<?xml version="1.0" encoding="UTF-8" standalone="no"?>
<svg
   xmlns:dc="http://purl.org/dc/elements/1.1/"
   xmlns:cc="http://creativecommons.org/ns#"
   xmlns:rdf="http://www.w3.org/1999/02/22-rdf-syntax-ns#"
   xmlns:svg="http://www.w3.org/2000/svg"
   xmlns="http://www.w3.org/2000/svg"
   xmlns:sodipodi="http://sodipodi.sourceforge.net/DTD/sodipodi-0.dtd"
   xmlns:inkscape="http://www.inkscape.org/namespaces/inkscape"
   height="256"
   width="256"
   viewBox="0 0 256 256"
   version="1.1"
   id="svg2178"
   sodipodi:docname="logo-app-ehb-academic-software.svg"
   inkscape:version="0.92.4 (5da689c313, 2019-01-14)">
  <metadata
     id="metadata2184">
    <rdf:RDF>
      <cc:Work
         rdf:about="">
        <dc:format>image/svg+xml</dc:format>
        <dc:type
           rdf:resource="http://purl.org/dc/dcmitype/StillImage" />
      </cc:Work>
    </rdf:RDF>
  </metadata>
  <defs
     id="defs2182" />
  <sodipodi:namedview
     pagecolor="#ffffff"
     bordercolor="#666666"
     borderopacity="1"
     objecttolerance="10"
     gridtolerance="10"
     guidetolerance="10"
     inkscape:pageopacity="0"
     inkscape:pageshadow="2"
     inkscape:window-width="1278"
     inkscape:window-height="1018"
     id="namedview2180"
     showgrid="false"
     inkscape:snap-intersection-paths="true"
     inkscape:snap-smooth-nodes="true"
     inkscape:zoom="0.65186408"
     inkscape:cx="-211.2678"
     inkscape:cy="-25.521099"
     inkscape:window-x="2553"
     inkscape:window-y="0"
     inkscape:window-maximized="0"
     inkscape:current-layer="svg2178" />
  <path
     style="fill:#ffffff;stroke-width:8"
     d="M 0,19.695311 V 236.30469 H 256 V 19.695311 Z m 194.19141,28.751954 h 7.07226 c 3.92016,0 7.08008,3.168212 7.08008,7.080078 v 7.072265 c 0,3.919918 -3.15992,7.080079 -7.08008,7.080079 h -7.07226 c -3.91187,0 -7.07227,-3.160161 -7.07227,-7.080079 v -7.072265 c 0,-3.911866 3.1604,-7.080078 7.07227,-7.080078 z m 29.53711,0 h 7.08007 c 3.91211,0 7.07032,3.168212 7.07032,7.080078 v 7.072265 c 0,3.919918 -3.15821,7.080079 -7.07032,7.080079 h -7.08007 c -3.9121,0 -7.08008,-3.160161 -7.08008,-7.080079 v -7.072265 c 0,-3.911866 3.16798,-7.080078 7.08008,-7.080078 z M 20.496094,88.599608 H 237.11914 V 216.60742 H 20.496094 Z m 90.455076,18.896482 v 31.34375 H 89.216797 l 37.902343,39.22461 37.89648,-39.22461 h -22.4082 v -31.34375 z m -26.046873,79.15235 v 15.16797 h 87.382813 v -15.16797 z"
     id="path1"
     inkscape:connector-curvature="0"
     sodipodi:nodetypes="cccccsssssssssssssssssscccccccccccccccccc" />
</svg>
