<?xml version="1.0" encoding="UTF-8" standalone="no"?>
<svg
   xmlns:dc="http://purl.org/dc/elements/1.1/"
   xmlns:cc="http://creativecommons.org/ns#"
   xmlns:rdf="http://www.w3.org/1999/02/22-rdf-syntax-ns#"
   xmlns:svg="http://www.w3.org/2000/svg"
   xmlns="http://www.w3.org/2000/svg"
   xmlns:sodipodi="http://sodipodi.sourceforge.net/DTD/sodipodi-0.dtd"
   xmlns:inkscape="http://www.inkscape.org/namespaces/inkscape"
   height="200"
   width="200"
   viewBox="0 0 200 200"
   version="1.1"
   id="svg5"
   sodipodi:docname="logo-action-account.svg"
   inkscape:version="0.92.4 (5da689c313, 2019-01-14)">
  <metadata
     id="metadata11">
    <rdf:RDF>
      <cc:Work
         rdf:about="">
        <dc:format>image/svg+xml</dc:format>
        <dc:type
           rdf:resource="http://purl.org/dc/dcmitype/StillImage" />
        <dc:title></dc:title>
      </cc:Work>
    </rdf:RDF>
  </metadata>
  <defs
     id="defs9" />
  <sodipodi:namedview
     pagecolor="#ffffff"
     bordercolor="#666666"
     borderopacity="1"
     objecttolerance="10"
     gridtolerance="10"
     guidetolerance="10"
     inkscape:pageopacity="0"
     inkscape:pageshadow="2"
     inkscape:window-width="1280"
     inkscape:window-height="971"
     id="namedview7"
     showgrid="false"
     inkscape:zoom="0.921875"
     inkscape:cx="128"
     inkscape:cy="128"
     inkscape:window-x="-8"
     inkscape:window-y="-8"
     inkscape:window-maximized="1"
     inkscape:current-layer="svg5" />
  <path
     style="display:inline;opacity:1;fill:#ffffff;fill-opacity:1;stroke:none;stroke-width:42.00426865;stroke-miterlimit:4;stroke-dasharray:none;stroke-opacity:1"
     d="m 1e-5,20 v 4 12 144 H 199.99999 V 36 24 20 Z M 16,36 H 184 V 164 H 16 Z m 8.00001,8 V 60 H 88 V 44 Z M 136,44 c -17.67311,-1e-5 -32.00001,14.32689 -32.00001,32 0,17.67312 14.3269,32.00001 32.00001,32 17.67311,1e-5 32.00001,-14.32688 32.00001,-32 0,-17.67311 -14.3269,-32.00001 -32.00001,-32 z M 24.00001,68 V 84 H 88 V 68 Z m 0,24 v 16 H 88 V 92 Z m 84.0898,12.59766 c -4.29411,2.0873 -8.3492,4.65761 -12.0898,7.66015 V 156 h 79.99998 v -43.71484 c -3.73331,-3.0009 -7.78009,-5.57151 -12.06641,-7.66016 C 156.46338,111.91631 146.43879,115.99848 136,116 125.56552,115.9853 115.55,111.89329 108.08981,104.59766 Z M 24.00001,116 v 16 H 88 v -16 z m 0,24 v 16 H 88 v -16 z"
     id="path6378"
     inkscape:connector-curvature="0" />
</svg>
