<?xml version="1.0" encoding="UTF-8" standalone="no"?>
<svg
   xmlns:dc="http://purl.org/dc/elements/1.1/"
   xmlns:cc="http://creativecommons.org/ns#"
   xmlns:rdf="http://www.w3.org/1999/02/22-rdf-syntax-ns#"
   xmlns:svg="http://www.w3.org/2000/svg"
   xmlns="http://www.w3.org/2000/svg"
   xmlns:sodipodi="http://sodipodi.sourceforge.net/DTD/sodipodi-0.dtd"
   xmlns:inkscape="http://www.inkscape.org/namespaces/inkscape"
   version="1.1"
   id="Layer_1"
   x="0px"
   y="0px"
   viewBox="0 0 200 200"
   xml:space="preserve"
   inkscape:version="0.92.4 (5da689c313, 2019-01-14)"
   width="100%"
   height="100%"
   sodipodi:docname="logo-app-ehb-canvas.svg"><metadata
   id="metadata3028"><rdf:RDF><cc:Work
       rdf:about=""><dc:format>image/svg+xml</dc:format><dc:type
         rdf:resource="http://purl.org/dc/dcmitype/StillImage" /></cc:Work></rdf:RDF></metadata><defs
   id="defs3026">
	
	
	
	
	
	
	
	
	
	
	
	
	
	
	
	
</defs><sodipodi:namedview
   pagecolor="#ffffff"
   bordercolor="#666666"
   borderopacity="1"
   objecttolerance="10"
   gridtolerance="10"
   guidetolerance="10"
   inkscape:pageopacity="0"
   inkscape:pageshadow="2"
   inkscape:window-width="2560"
   inkscape:window-height="1027"
   id="namedview3024"
   showgrid="false"
   fit-margin-top="0"
   fit-margin-left="0"
   fit-margin-right="0"
   fit-margin-bottom="0"
   inkscape:zoom="2.95"
   inkscape:cx="138.19178"
   inkscape:cy="63.399879"
   inkscape:window-x="-8"
   inkscape:window-y="-8"
   inkscape:window-maximized="1"
   inkscape:current-layer="Layer_1" />
<style
   type="text/css"
   id="style2988">
	.st0{fill:#BBBDBF;}
</style>

<path
   style="display:inline;opacity:1;fill:#ffffff;fill-opacity:1;stroke:none;stroke-width:8.21675301;stroke-miterlimit:4;stroke-dasharray:none;stroke-opacity:1"
   d="M 99.999998,-9.9999999e-7 A 99.999999,99.999999 0 0 0 72.285158,3.964839 c 1.92671,13.58527 13.59753,24.03516 27.71484,24.03516 14.106562,0 25.770822,-10.4338 27.710942,-24.00391 A 99.999999,99.999999 0 0 0 99.999998,-9.9999999e-7 Z M 148.32422,12.476559 c -8.25948,10.96954 -7.40044,26.62301 2.58789,36.61133 9.96645,9.96641 25.57312,10.84401 36.53906,2.64261 a 99.999999,99.999999 0 0 0 -39.12695,-39.25394 z m -96.593752,0.0723 a 99.999999,99.999999 0 0 0 -39.253906,39.12694 c 10.96951,8.2595 26.622966,7.4005 36.611326,-2.58788 9.96642,-9.96641 10.84397,-25.57314 2.64258,-36.53906 z m 48.26953,27.45114 a 7.9999995,7.9999995 0 0 0 -8,8 7.9999995,7.9999995 0 0 0 8,8 7.9999995,7.9999995 0 0 0 8.000002,-8 7.9999995,7.9999995 0 0 0 -8.000002,-8 z m -36.46484,15.043 a 7.9999995,7.9999995 0 0 0 -5.77344,2.3437 7.9999995,7.9999995 0 0 0 0,11.3125 7.9999995,7.9999995 0 0 0 11.3125,0 7.9999995,7.9999995 0 0 0 0,-11.3125 7.9999995,7.9999995 0 0 0 -5.53906,-2.3437 z m 73.351562,0.1875 a 7.9999995,7.9999995 0 0 0 -5.77344,2.3437 7.9999995,7.9999995 0 0 0 0,11.3125 7.9999995,7.9999995 0 0 0 11.3125,0 7.9999995,7.9999995 0 0 0 0,-11.3125 7.9999995,7.9999995 0 0 0 -5.53906,-2.3437 z m 59.14844,17.0547 C 182.44991,74.211899 172,85.882699 172,100 c 0,14.1066 10.43383,25.7708 24.00391,27.7109 A 99.999999,99.999999 0 0 0 200,100 99.999999,99.999999 0 0 0 196.03516,72.285199 Z m -192.039068,0 A 99.999999,99.999999 0 0 0 2e-6,100 99.999999,99.999999 0 0 0 3.964842,127.7148 C 17.550092,125.7881 27.999998,114.1173 27.999998,100 c 0,-14.106601 -10.433826,-25.770801 -24.003906,-27.710901 z m 44.003906,19.4492 a 7.9999995,7.9999995 0 0 0 -8,8.000002 7.9999995,7.9999995 0 0 0 8,7.999999 7.9999995,7.9999995 0 0 0 8,-7.999999 7.9999995,7.9999995 0 0 0 -8,-8.000002 z m 104.000002,0 a 7.9999995,7.9999995 0 0 0 -8,8.000002 7.9999995,7.9999995 0 0 0 8,7.999999 7.9999995,7.9999995 0 0 0 8,-7.999999 7.9999995,7.9999995 0 0 0 -8,-8.000002 z M 137.07422,128.582 a 7.9999995,7.9999995 0 0 0 -5.77344,2.3438 7.9999995,7.9999995 0 0 0 0,11.3125 7.9999995,7.9999995 0 0 0 11.3125,0 7.9999995,7.9999995 0 0 0 0,-11.3125 7.9999995,7.9999995 0 0 0 -5.53906,-2.3438 z m -73.726562,0.1875 a 7.9999995,7.9999995 0 0 0 -5.77344,2.3438 7.9999995,7.9999995 0 0 0 0,11.3125 7.9999995,7.9999995 0 0 0 11.3125,0 7.9999995,7.9999995 0 0 0 0,-11.3125 7.9999995,7.9999995 0 0 0 -5.53906,-2.3438 z m -34.0586,13.9414 c -5.896766,1e-4 -11.789956,1.8563 -16.740226,5.5586 a 99.999999,99.999999 0 0 0 39.126946,39.2539 c 8.25949,-10.9695 7.40047,-26.6229 -2.58789,-36.6113 -5.46733,-5.4673 -12.63301,-8.2012 -19.79883,-8.2012 z m 141.421882,0 c -7.16584,0 -14.3315,2.7339 -19.79883,8.2012 -9.96642,9.9665 -10.84399,25.5731 -2.64258,36.5391 a 99.999999,99.999999 0 0 0 39.25391,-39.127 c -4.96509,-3.7385 -10.887,-5.6133 -16.8125,-5.6133 z M 99.999998,144 a 7.9999995,7.9999995 0 0 0 -8,8 7.9999995,7.9999995 0 0 0 8,8 A 7.9999995,7.9999995 0 0 0 108,152 7.9999995,7.9999995 0 0 0 99.999998,144 Z m 0,28 c -14.10653,0 -25.77082,10.4338 -27.71094,24.0039 A 99.999999,99.999999 0 0 0 99.999998,200 99.999999,99.999999 0 0 0 127.71484,196.0352 C 125.78813,182.4499 114.11734,172 99.999998,172 Z"
   id="circle7123"
   inkscape:connector-curvature="0" /></svg>