<?xml version="1.0" encoding="UTF-8" standalone="no"?>
<!-- Created with Inkscape (http://www.inkscape.org/) -->

<svg
   xmlns:dc="http://purl.org/dc/elements/1.1/"
   xmlns:cc="http://creativecommons.org/ns#"
   xmlns:rdf="http://www.w3.org/1999/02/22-rdf-syntax-ns#"
   xmlns:svg="http://www.w3.org/2000/svg"
   xmlns="http://www.w3.org/2000/svg"
   xmlns:sodipodi="http://sodipodi.sourceforge.net/DTD/sodipodi-0.dtd"
   xmlns:inkscape="http://www.inkscape.org/namespaces/inkscape"
   width="200"
   height="200"
   id="svg3820"
   sodipodi:version="0.32"
   inkscape:version="0.92.4 (5da689c313, 2019-01-14)"
   version="1.0"
   sodipodi:docname="logo-app-dt-cisco-netspace.svg"
   inkscape:output_extension="org.inkscape.output.svg.inkscape"
   viewBox="0 0 200 200">
  <metadata
     id="metadata39">
    <rdf:RDF>
      <cc:Work
         rdf:about="">
        <dc:format>image/svg+xml</dc:format>
        <dc:type
           rdf:resource="http://purl.org/dc/dcmitype/StillImage" />
        <dc:title></dc:title>
      </cc:Work>
    </rdf:RDF>
  </metadata>
  <defs
     id="defs3822">
    <inkscape:perspective
       sodipodi:type="inkscape:persp3d"
       inkscape:vp_x="0 : 47.436245 : 1"
       inkscape:vp_y="0 : 1000 : 0"
       inkscape:vp_z="180 : 47.436245 : 1"
       inkscape:persp3d-origin="90 : 31.624163 : 1"
       id="perspective41" />
  </defs>
  <sodipodi:namedview
     id="base"
     pagecolor="#ffffff"
     bordercolor="#666666"
     borderopacity="1.0"
     gridtolerance="10000"
     guidetolerance="10"
     objecttolerance="10"
     inkscape:pageopacity="0.0"
     inkscape:pageshadow="2"
     inkscape:zoom="1.4"
     inkscape:cx="-319.12693"
     inkscape:cy="79.024757"
     inkscape:document-units="px"
     inkscape:current-layer="layer1"
     showgrid="false"
     inkscape:window-width="2560"
     inkscape:window-height="1027"
     inkscape:window-x="1272"
     inkscape:window-y="-8"
     fit-margin-top="0"
     fit-margin-left="0"
     fit-margin-right="0"
     fit-margin-bottom="0"
     inkscape:window-maximized="1" />
  <g
     inkscape:label="Layer 1"
     inkscape:groupmode="layer"
     id="layer1"
     transform="translate(-55.530357,-68.74387)">
    <path
       style="display:inline;opacity:1;fill:#ffffff;fill-opacity:1;fill-rule:nonzero;stroke:none;stroke-width:4.98755503;stroke-linecap:round;stroke-linejoin:round;stroke-miterlimit:4;stroke-dasharray:none;stroke-dashoffset:0;stroke-opacity:1"
       d="m 55.530352,68.743868 v 16 112.935502 71.0645 H 255.53036 v -63.9922 -24.0078 -96.000001 -16 h -16 -168.000008 z m 16,16 H 239.53036 V 180.74387 H 71.530352 Z m 51.488308,12.1582 c -1.632,0 -2.9629,1.321 -2.9629,2.9492 v 31.380902 c 0,1.6377 1.3309,2.959 2.9629,2.959 1.6301,0 2.957,-1.3213 2.957,-2.959 V 99.851268 c 0,-1.6282 -1.3269,-2.9492 -2.957,-2.9492 z m 65.0547,0 c -1.6302,0 -2.9512,1.321 -2.9512,2.9492 v 31.380902 c 0,1.6377 1.321,2.959 2.9512,2.959 1.6319,0 2.9511,-1.3213 2.9511,-2.959 V 99.851268 c 0,-1.6282 -1.3192,-2.9492 -2.9511,-2.9492 z m -81.3184,11.136702 c -1.632,0 -2.9629,1.325 -2.9629,2.9531 v 14.3438 c 0,1.6376 1.3309,2.9609 2.9629,2.9609 1.63,0 2.9609,-1.3233 2.9609,-2.9609 v -14.3438 c 0,-1.6281 -1.3309,-2.9531 -2.9609,-2.9531 z m 32.5234,0 c -1.632,0 -2.9609,1.325 -2.9609,2.9531 v 14.3438 c 0,1.6376 1.3289,2.9609 2.9609,2.9609 1.6301,0 2.9629,-1.3233 2.9629,-2.9609 v -14.3438 c 0,-1.6281 -1.3328,-2.9531 -2.9629,-2.9531 z m 32.5196,0 c -1.6263,0 -2.9472,1.325 -2.9473,2.9531 v 14.3438 c 0,1.6376 1.321,2.9609 2.9473,2.9609 1.632,0 2.9531,-1.3233 2.9531,-2.9609 v -14.3438 c 0,-1.6281 -1.3211,-2.9531 -2.9531,-2.9531 z m 32.5078,0 c -1.63,0 -2.9512,1.325 -2.9512,2.9531 v 14.3438 c 0,1.6376 1.3212,2.9609 2.9512,2.9609 1.6679,0 2.9883,-1.3233 2.9883,-2.9609 v -14.3438 c 0,-1.6281 -1.3204,-2.9531 -2.9883,-2.9531 z m -113.812508,8.1446 c -1.6302,0 -2.9629,1.3229 -2.9629,2.9511 v 6.2012 c 0,1.6376 1.3327,2.9609 2.9629,2.9609 1.6302,0 2.959,-1.3233 2.959,-2.9609 v -6.2012 c 0,-1.6282 -1.3288,-2.9511 -2.959,-2.9511 z m 65.044908,0 c -1.6302,0 -2.9609,1.3229 -2.9609,2.9511 v 6.2012 c 0,1.6376 1.3307,2.9609 2.9609,2.9609 1.6225,0 2.9453,-1.3233 2.9453,-2.9609 v -6.2012 c 0,-1.6282 -1.3228,-2.9511 -2.9453,-2.9511 z m 65.041,0 c -1.6301,0 -2.955,1.3229 -2.955,2.9511 v 6.2012 c 0,1.6376 1.3249,2.9609 2.955,2.9609 1.6282,0 2.9512,-1.3233 2.9512,-2.9609 v -6.2012 c 0,-1.6282 -1.323,-2.9511 -2.9512,-2.9511 z m -71.8183,27.9218 c -5.4967,0 -8.8067,2.9667 -8.8067,7.3867 0,3.9119 2.7692,5.8658 6.0899,6.9161 0.37,0.1209 0.9146,0.2874 1.2754,0.4082 1.479,0.4647 2.6582,1.1558 2.6582,2.3535 0,1.3392 -1.3647,2.207 -4.3321,2.207 -2.6048,0 -5.1037,-0.7467 -5.6289,-0.8789 v 5.4375 c 0.2929,0.063 3.2621,0.6484 6.4336,0.6484 4.5636,0 9.7852,-1.9948 9.7852,-7.9316 0,-2.8786 -1.7625,-5.5282 -5.6328,-6.7598 l -1.6465,-0.5254 c -0.9803,-0.3099 -2.7324,-0.8106 -2.7324,-2.248 0,-1.137 1.2999,-1.9395 3.6894,-1.9395 2.0626,0 4.5715,0.6944 4.6602,0.7227 v -5.043 c -0.1777,-0.048 -2.9093,-0.7539 -5.8125,-0.7539 z m -36.4024,0.012 c -7.2571,0 -12.584008,5.1737 -12.584008,12.2305 0,7.6142 5.880308,12.2383 12.584008,12.2383 2.6633,0 4.6971,-0.6302 5.4395,-0.8398 v -6.3418 c -0.257,0.1417 -2.2066,1.2519 -5.0098,1.2519 -3.9742,0 -6.5351,-2.7971 -6.5351,-6.3086 0,-3.619 2.6724,-6.3008 6.5351,-6.3008 2.8504,0 4.7698,1.1371 5.0098,1.2618 v -6.3438 c -0.561,-0.1663 -2.6346,-0.8477 -5.4395,-0.8477 z m 62.25,0 c -7.2684,0 -12.5937,5.1737 -12.5937,12.2305 0,7.6142 5.8863,12.2383 12.5937,12.2383 2.6482,0 4.6856,-0.6302 5.4336,-0.8398 v -6.3418 c -0.2627,0.1417 -2.2145,1.2519 -5.0176,1.2519 -3.9705,0 -6.5273,-2.7971 -6.5273,-6.3086 0,-3.619 2.6721,-6.3008 6.5273,-6.3008 2.8523,0 4.7739,1.1371 5.0176,1.2618 v -6.3438 c -0.5648,-0.1663 -2.6361,-0.8477 -5.4336,-0.8477 z m 24.1953,0 c -7.2683,0 -12.4804,5.4816 -12.4804,12.2305 0,6.7604 5.2121,12.2383 12.4804,12.2383 7.2665,0 12.4864,-5.4779 12.4864,-12.2383 0,-6.7489 -5.2199,-12.2305 -12.4864,-12.2305 z m -72.8086,0.418 v 23.6328 h 5.961 v -23.6328 z m 72.8086,5.5996 c 3.5342,0 6.1661,2.7827 6.1661,6.2129 0,3.4378 -2.6319,6.2207 -6.1661,6.2207 -3.5378,0 -6.166,-2.7829 -6.166,-6.2207 0,-3.4302 2.6282,-6.2129 6.166,-6.2129 z m -23.6718,46.6091 h 3.8554 v 11.7754 h 0.049 l 3.7207,-5.7715 h 4.5761 l -4.4785,5.8672 4.7969,6.6269 h -4.625 l -3.9902,-6.1992 h -0.049 v 6.1992 h -3.8554 z m 15.9101,0.061 c 0.6589,0 1.193,0.1829 1.5996,0.5489 0.4148,0.3662 0.6211,0.8385 0.6211,1.416 0,0.5856 -0.2063,1.0653 -0.6211,1.4394 -0.4066,0.3742 -0.9407,0.5625 -1.5996,0.5625 -0.6507,0 -1.1828,-0.192 -1.5976,-0.5742 -0.4148,-0.3904 -0.6231,-0.8664 -0.6231,-1.4277 0,-0.5775 0.2082,-1.0498 0.6231,-1.416 0.4148,-0.3663 0.9469,-0.5489 1.5976,-0.5489 z m -103.576208,0.939 h 4.2461 l 6.9414,10.6523 c 0.3175,0.4799 0.6105,0.956 0.879,1.4278 h 0.049 c -0.066,-0.4067 -0.096,-1.2087 -0.096,-2.4043 v -9.6758 h 3.720708 v 17.498 h -3.978508 l -7.211,-10.9941 c -0.4229,-0.6426 -0.7144,-1.1256 -0.8769,-1.4512 h -0.051 c 0.064,0.6184 0.098,1.5612 0.098,2.8301 v 9.6152 h -3.7207 z m 37.654308,1.209 v 3.7949 h 2.8047 v 2.8418 h -2.8047 v 5.0508 c 0,1.3015 0.5159,1.9531 1.5489,1.9531 0.4067,0 0.8247,-0.1177 1.2558,-0.3535 v 2.8555 c -0.5694,0.3008 -1.4273,0.4511 -2.5742,0.4511 -2.7168,0 -4.0742,-1.4119 -4.0742,-4.2343 v -5.7227 h -2.0254 v -2.8418 h 2.0254 v -2.6973 z m -12.7636,3.4883 c 1.822,0 3.2304,0.5412 4.2226,1.623 1.0007,1.0818 1.5,2.5497 1.5,4.4043 v 1.6231 h -8.1504 c 0.1301,1.8139 1.2723,2.7207 3.4278,2.7207 1.3747,0 2.5838,-0.324 3.625,-0.9746 v 2.7812 c -1.1551,0.6181 -2.6555,0.9277 -4.502,0.9277 -2.0173,0 -3.583,-0.5574 -4.6972,-1.6718 -1.1146,-1.1225 -1.6719,-2.6846 -1.6719,-4.6856 0,-2.0742 0.6008,-3.7177 1.8047,-4.9297 1.2038,-1.212 2.6843,-1.8183 4.4414,-1.8183 z m 43.6679,0 c 2.0742,0 3.7015,0.5865 4.8809,1.7578 1.1794,1.1632 1.7695,2.7052 1.7695,4.625 0,2.0742 -0.6099,3.7121 -1.83,4.916 -1.212,1.2038 -2.8754,1.8066 -4.9903,1.8066 -2.0824,0 -3.7223,-0.5828 -4.918,-1.7461 -1.1874,-1.1712 -1.7812,-2.7567 -1.7812,-4.7578 0,-2.066 0.6191,-3.6805 1.8555,-4.8437 1.2363,-1.1713 2.907,-1.7578 5.0136,-1.7578 z m 48.1094,0 c 2.7656,0 4.1485,1.7177 4.1485,5.1504 v 7.6503 h -3.8418 v -6.9433 c 0,-1.9359 -0.6914,-2.9043 -2.0743,-2.9043 -0.667,0 -1.2173,0.257 -1.6484,0.7695 -0.4312,0.5125 -0.6465,1.1621 -0.6465,1.9512 v 7.1269 h -3.8555 v -12.4941 h 3.8555 v 1.9766 h 0.049 c 0.9193,-1.5211 2.2567,-2.2832 4.0137,-2.2832 z m 12.1406,0 c 1.5211,0 2.6596,0.5865 3.4161,1.7578 h 0.049 v -1.4512 h 3.8555 v 11.0664 c 0,2.3182 -0.6696,4.112 -2.0118,5.3809 -1.3421,1.2771 -3.2881,1.914 -5.8339,1.914 -1.6838,0 -3.0177,-0.2389 -4.002,-0.7187 v -3.2461 c 1.2852,0.7483 2.583,1.123 3.8926,1.123 1.3014,0 2.3115,-0.3454 3.0273,-1.0371 0.7158,-0.6832 1.0723,-1.6155 1.0723,-2.7949 v -0.9883 h -0.049 c -0.8785,1.3991 -2.1763,2.0996 -3.8926,2.0996 -1.5943,0 -2.8595,-0.561 -3.7949,-1.6836 -0.9354,-1.1225 -1.4025,-2.6285 -1.4024,-4.5156 -1e-4,-2.1149 0.5192,-3.7945 1.5606,-5.039 1.041,-1.2446 2.4132,-1.8672 4.1132,-1.8672 z m -43.9003,0.086 c 0.4064,0 0.7255,0.049 0.9531,0.1465 v 3.5508 c -0.4636,-0.2521 -1.0049,-0.3789 -1.6231,-0.3789 -0.8378,0 -1.493,0.3095 -1.9648,0.9277 -0.4718,0.6101 -0.707,1.4446 -0.707,2.5019 v 5.9668 h -3.8555 v -12.4941 h 3.8555 v 2.3184 h 0.049 c 0.61,-1.692 1.7068,-2.5391 3.293,-2.5391 z m -43.7168,0.2207 h 3.9277 l 1.7207,8.1504 c 0.081,0.3823 0.1431,0.8457 0.1836,1.3906 h 0.072 c 0.041,-0.5694 0.1149,-1.0491 0.2208,-1.4394 l 2.1464,-8.1016 h 3.6739 l 1.9277,8.1504 c 0.049,0.2033 0.1049,0.6738 0.1699,1.4141 h 0.086 c 0.041,-0.4718 0.1057,-0.9423 0.1953,-1.4141 l 1.623,-8.1504 h 3.5762 l -3.5996,12.4941 h -4.0506 l -1.8438,-7.3222 c -0.1217,-0.4881 -0.1919,-1.0202 -0.207,-1.5977 h -0.074 c -0.057,0.6345 -0.1383,1.1503 -0.2441,1.5489 l -1.9766,7.371 h -4.002 z m 60.4335,0 h 3.8555 v 12.4941 h -3.8555 z m -76.7578,2.293 c -0.6182,0 -1.1558,0.257 -1.6113,0.7695 -0.4475,0.5125 -0.7189,1.1494 -0.8164,1.9141 h 4.5996 c 0,-1.7896 -0.724,-2.6836 -2.1719,-2.6836 z m 43.6172,0.3535 c -0.911,0 -1.6186,0.313 -2.123,0.9394 -0.5044,0.6265 -0.7559,1.5133 -0.7559,2.6602 0,2.3996 0.9684,3.5996 2.9043,3.5996 1.8465,0 2.7695,-1.2326 2.7695,-3.6973 0,-2.3345 -0.9321,-3.5019 -2.7949,-3.5019 z m 61.3125,0 c -0.8541,0 -1.5258,0.3329 -2.0136,1 -0.4879,0.667 -0.7305,1.6063 -0.7305,2.8184 0,1.0409 0.2317,1.8683 0.6953,2.4785 0.4636,0.602 1.097,0.9023 1.9023,0.9023 0.7971,0 1.4398,-0.3058 1.9278,-0.916 0.4963,-0.6182 0.7441,-1.4307 0.7441,-2.4395 v -0.9882 c 0,-0.7891 -0.2355,-1.4606 -0.707,-2.0137 -0.4637,-0.5615 -1.07,-0.8418 -1.8184,-0.8418 z m -63.0918,22.9844 h 3.8555 v 18.4961 h -3.8555 v -1.7207 h -0.051 c -0.8785,1.3502 -2.1673,2.0253 -3.8671,2.0253 -1.5619,0 -2.8179,-0.5483 -3.7696,-1.6464 -0.9517,-1.1063 -1.4277,-2.6485 -1.4277,-4.625 0,-2.0662 0.5249,-3.7204 1.5742,-4.9649 1.0493,-1.2445 2.4229,-1.8672 4.1231,-1.8672 1.6105,0 2.7328,0.5774 3.3671,1.7325 h 0.051 z m -46.5488,1 h 4.6738 l 6.2227,17.4961 h -4.2949 l -1.2442,-3.8926 h -6.2226 l -1.2325,3.8926 h -4.2714 z m 2.1855,3.123 c -0.041,0.5124 -0.1441,1.0211 -0.3066,1.5254 l -1.9023,5.9297 h 4.4785 l -1.8809,-5.8809 c -0.1383,-0.4392 -0.2363,-0.9641 -0.293,-1.5742 z m 16.7872,1.5742 c 1.4723,0 2.5384,0.1954 3.1972,0.586 v 3.2695 c -0.8052,-0.602 -1.7029,-0.9023 -2.6953,-0.9023 -1.1062,0 -1.986,0.3258 -2.6367,0.9765 -0.6427,0.6426 -0.9629,1.5331 -0.9629,2.6719 0,1.1062 0.3096,1.9769 0.9277,2.6113 0.6182,0.6262 1.467,0.9395 2.5489,0.9395 0.9598,0 1.8992,-0.3024 2.8183,-0.9043 v 3.0996 c -0.8703,0.5044 -2.1264,0.7558 -3.7695,0.7558 -1.9196,0 -3.4726,-0.5809 -4.6602,-1.7441 -1.1875,-1.1632 -1.7832,-2.6637 -1.7832,-4.5019 0,-2.1232 0.6354,-3.7955 1.9043,-5.0157 1.2771,-1.2282 2.9802,-1.8418 5.1114,-1.8418 z m 10.7851,0 c 3.5627,0 5.3438,1.7775 5.3438,5.3321 v 7.4668 h -3.6484 v -1.793 h -0.049 c -0.8378,1.3991 -2.0795,2.0976 -3.7226,2.0976 -1.212,0 -2.1676,-0.3421 -2.8672,-1.0253 -0.6913,-0.6915 -1.0371,-1.609 -1.0371,-2.7559 0,-2.424 1.4353,-3.8231 4.3066,-4.1973 l 3.3926,-0.4511 c 0,-1.3666 -0.7403,-2.0508 -2.2207,-2.0508 -1.4886,0 -2.904,0.4433 -4.2461,1.3301 v -2.9043 c 0.5368,-0.2767 1.27,-0.5208 2.1973,-0.7325 0.9354,-0.2112 1.7842,-0.3164 2.5488,-0.3164 z m 29.3945,0 c 1.8221,0 3.2284,0.5412 4.2207,1.6231 1.0006,1.0818 1.502,2.5497 1.502,4.4043 v 1.623 h -8.1504 c 0.13,1.814 1.2722,2.7207 3.4277,2.7207 1.3747,0 2.5839,-0.3258 3.625,-0.9765 v 2.7832 c -1.1549,0.6181 -2.6575,0.9257 -4.5039,0.9257 -2.0173,0 -3.5828,-0.5575 -4.6972,-1.6718 -1.1143,-1.1225 -1.6719,-2.6827 -1.6719,-4.6836 0,-2.0742 0.6029,-3.7177 1.8066,-4.9297 1.204,-1.212 2.6846,-1.8184 4.4414,-1.8184 z m 15.959,0 c 1.7652,0 2.9723,0.7765 3.6231,2.3301 0.9516,-1.5536 2.3507,-2.3301 4.1972,-2.3301 2.7168,0 4.0762,1.6761 4.0762,5.0274 v 7.7715 h -3.8437 v -7.125 c 0,-1.8139 -0.6661,-2.7207 -2,-2.7207 -0.6345,0 -1.1523,0.2713 -1.5508,0.8164 -0.3988,0.5449 -0.5977,1.2256 -0.5977,2.039 v 6.9903 h -3.8554 v -7.1993 c 0,-1.7651 -0.6552,-2.6464 -1.9649,-2.6464 -0.6588,0 -1.1875,0.2604 -1.5859,0.7812 -0.3906,0.5206 -0.586,1.2282 -0.586,2.1231 v 6.9414 h -3.8554 v -12.4942 h 3.8554 v 1.9531 h 0.049 c 0.3984,-0.6669 0.956,-1.2081 1.6718,-1.623 0.7239,-0.4232 1.5131,-0.6348 2.3672,-0.6348 z m 13.2754,0.3047 h 4.2695 l 2.3301,7.6016 c 0.1463,0.4718 0.2609,1.0293 0.3418,1.6719 h 0.049 c 0.073,-0.4718 0.2087,-1.0202 0.4042,-1.6465 l 2.3536,-7.627 h 3.8203 l -5.0762,13.4942 c -1.2201,3.2456 -3.0592,4.8691 -5.5156,4.8691 -0.9355,0 -1.7047,-0.1051 -2.3067,-0.3164 v -3.0762 c 0.5125,0.3013 1.07,0.4512 1.6719,0.4512 0.9924,0 1.6838,-0.4668 2.0742,-1.4024 l 0.6602,-1.5488 z m -29.2597,2.2949 c -0.6182,0 -1.154,0.2552 -1.6094,0.7676 -0.4475,0.5124 -0.7209,1.1514 -0.8184,1.916 h 4.5996 c 0,-1.7893 -0.7241,-2.6836 -2.1718,-2.6836 z m -15.0547,0.3536 c -0.8541,0 -1.5221,0.3363 -2.002,1.0117 -0.4798,0.667 -0.7187,1.5865 -0.7187,2.7578 0,1.0981 0.2317,1.9433 0.6953,2.5371 0.4636,0.594 1.1062,0.8906 1.9277,0.8906 0.7809,0 1.4143,-0.313 1.9024,-0.9394 0.4957,-0.6264 0.7441,-1.4552 0.7441,-2.4883 v -0.9395 c 0,-0.8134 -0.2355,-1.4885 -0.707,-2.0254 -0.4718,-0.5368 -1.0853,-0.8046 -1.8418,-0.8046 z m -12.5918,3.9277 -2.2696,0.293 c -1.2527,0.1625 -1.8789,0.7293 -1.8789,1.6972 0,0.4393 0.1504,0.8014 0.4512,1.086 0.3092,0.2766 0.7237,0.414 1.2441,0.414 0.724,0 1.3141,-0.2479 1.7696,-0.7441 0.4554,-0.5043 0.6836,-1.1397 0.6836,-1.9043 z"
       id="path5793"
       inkscape:connector-curvature="0" />
  </g>
</svg>
