<?xml version="1.0" encoding="UTF-8" standalone="no"?>
<!-- Created with Inkscape (http://www.inkscape.org/) -->

<svg
   xmlns:dc="http://purl.org/dc/elements/1.1/"
   xmlns:cc="http://creativecommons.org/ns#"
   xmlns:rdf="http://www.w3.org/1999/02/22-rdf-syntax-ns#"
   xmlns:svg="http://www.w3.org/2000/svg"
   xmlns="http://www.w3.org/2000/svg"
   xmlns:sodipodi="http://sodipodi.sourceforge.net/DTD/sodipodi-0.dtd"
   xmlns:inkscape="http://www.inkscape.org/namespaces/inkscape"
   width="200"
   height="200"
   id="svg3820"
   sodipodi:version="0.32"
   inkscape:version="0.92.4 (5da689c313, 2019-01-14)"
   version="1.0"
   sodipodi:docname="logo-app-dt-cisco-netlab.svg"
   inkscape:output_extension="org.inkscape.output.svg.inkscape"
   viewBox="0 0 200 200">
  <metadata
     id="metadata39">
    <rdf:RDF>
      <cc:Work
         rdf:about="">
        <dc:format>image/svg+xml</dc:format>
        <dc:type
           rdf:resource="http://purl.org/dc/dcmitype/StillImage" />
        <dc:title></dc:title>
      </cc:Work>
    </rdf:RDF>
  </metadata>
  <defs
     id="defs3822">
    <inkscape:perspective
       sodipodi:type="inkscape:persp3d"
       inkscape:vp_x="0 : 47.436245 : 1"
       inkscape:vp_y="0 : 1000 : 0"
       inkscape:vp_z="180 : 47.436245 : 1"
       inkscape:persp3d-origin="90 : 31.624163 : 1"
       id="perspective41" />
  </defs>
  <sodipodi:namedview
     id="base"
     pagecolor="#ffffff"
     bordercolor="#666666"
     borderopacity="1.0"
     gridtolerance="10000"
     guidetolerance="10"
     objecttolerance="10"
     inkscape:pageopacity="0.0"
     inkscape:pageshadow="2"
     inkscape:zoom="1.4"
     inkscape:cx="345.44763"
     inkscape:cy="58.260841"
     inkscape:document-units="px"
     inkscape:current-layer="layer1"
     showgrid="false"
     inkscape:window-width="2560"
     inkscape:window-height="1027"
     inkscape:window-x="1272"
     inkscape:window-y="-8"
     fit-margin-top="0"
     fit-margin-left="0"
     fit-margin-right="0"
     fit-margin-bottom="0"
     inkscape:window-maximized="1"
     showguides="true" />
  <g
     inkscape:label="Layer 1"
     inkscape:groupmode="layer"
     id="layer1"
     transform="translate(-55.530357,-68.743868)">
    <path
       style="display:inline;opacity:1;fill:#ffffff;fill-opacity:1;fill-rule:nonzero;stroke:none;stroke-width:4.98755503;stroke-linecap:round;stroke-linejoin:round;stroke-miterlimit:4;stroke-dasharray:none;stroke-dashoffset:0;stroke-opacity:1"
       d="m 55.530352,68.743866 v 16 112.935504 71.0645 H 255.53036 v -63.9922 -24.0078 -96.000004 -16 h -16 -168.000008 z m 16,16 H 239.53036 V 180.74387 H 71.530352 Z m 51.488308,12.1582 c -1.632,0 -2.9629,1.321 -2.9629,2.9492 v 31.380904 c 0,1.6377 1.3309,2.959 2.9629,2.959 1.6301,0 2.957,-1.3213 2.957,-2.959 V 99.851266 c 0,-1.6282 -1.3269,-2.9492 -2.957,-2.9492 z m 65.0547,0 c -1.6302,0 -2.9512,1.321 -2.9512,2.9492 v 31.380904 c 0,1.6377 1.321,2.959 2.9512,2.959 1.6319,0 2.9511,-1.3213 2.9511,-2.959 V 99.851266 c 0,-1.6282 -1.3192,-2.9492 -2.9511,-2.9492 z m -81.3184,11.136704 c -1.632,0 -2.9629,1.325 -2.9629,2.9531 v 14.3438 c 0,1.6376 1.3309,2.9609 2.9629,2.9609 1.63,0 2.9609,-1.3233 2.9609,-2.9609 v -14.3438 c 0,-1.6281 -1.3309,-2.9531 -2.9609,-2.9531 z m 32.5234,0 c -1.632,0 -2.9609,1.325 -2.9609,2.9531 v 14.3438 c 0,1.6376 1.3289,2.9609 2.9609,2.9609 1.6301,0 2.9629,-1.3233 2.9629,-2.9609 v -14.3438 c 0,-1.6281 -1.3328,-2.9531 -2.9629,-2.9531 z m 32.5196,0 c -1.6263,0 -2.9472,1.325 -2.9473,2.9531 v 14.3438 c 0,1.6376 1.321,2.9609 2.9473,2.9609 1.632,0 2.9531,-1.3233 2.9531,-2.9609 v -14.3438 c 0,-1.6281 -1.3211,-2.9531 -2.9531,-2.9531 z m 32.5078,0 c -1.63,0 -2.9512,1.325 -2.9512,2.9531 v 14.3438 c 0,1.6376 1.3212,2.9609 2.9512,2.9609 1.6679,0 2.9883,-1.3233 2.9883,-2.9609 v -14.3438 c 0,-1.6281 -1.3204,-2.9531 -2.9883,-2.9531 z m -113.812508,8.1446 c -1.6302,0 -2.9629,1.3229 -2.9629,2.9511 v 6.2012 c 0,1.6376 1.3327,2.9609 2.9629,2.9609 1.6302,0 2.959,-1.3233 2.959,-2.9609 v -6.2012 c 0,-1.6282 -1.3288,-2.9511 -2.959,-2.9511 z m 65.046908,0 c -1.6302,0 -2.9629,1.3229 -2.9629,2.9511 v 6.2012 c 0,1.6376 1.3327,2.9609 2.9629,2.9609 1.6225,0 2.9433,-1.3233 2.9433,-2.9609 v -6.2012 c 0,-1.6282 -1.3208,-2.9511 -2.9433,-2.9511 z m 65.039,0 c -1.6301,0 -2.9551,1.3229 -2.955,2.9511 v 6.2012 c 0,1.6376 1.3249,2.9609 2.955,2.9609 1.6282,0 2.9512,-1.3233 2.9512,-2.9609 v -6.2012 c 0,-1.6282 -1.323,-2.9511 -2.9512,-2.9511 z m -71.8183,27.9218 c -5.4967,0 -8.8067,2.9667 -8.8067,7.3867 0,3.9119 2.7711,5.8658 6.0918,6.9161 0.37,0.1209 0.9127,0.2874 1.2735,0.4082 1.479,0.4647 2.6582,1.1558 2.6582,2.3535 0,1.3392 -1.3647,2.207 -4.3321,2.207 -2.6048,0 -5.1037,-0.7467 -5.6289,-0.8789 v 5.4375 c 0.2929,0.063 3.2621,0.6484 6.4336,0.6484 4.5636,0 9.7852,-1.9948 9.7852,-7.9316 0,-2.8786 -1.7625,-5.5282 -5.6328,-6.7598 l -1.6465,-0.5254 c -0.9803,-0.3099 -2.7324,-0.8106 -2.7324,-2.248 0,-1.137 1.2999,-1.9395 3.6894,-1.9395 2.0626,0 4.5715,0.6944 4.6602,0.7227 v -5.043 c -0.1777,-0.048 -2.9093,-0.7539 -5.8125,-0.7539 z m -36.4024,0.012 c -7.2571,0 -12.584008,5.1737 -12.584008,12.2305 0,7.6142 5.880308,12.2383 12.584008,12.2383 2.6633,0 4.6971,-0.6302 5.4395,-0.8398 v -6.3418 c -0.257,0.1417 -2.2066,1.2519 -5.0098,1.2519 -3.9742,0 -6.5351,-2.7971 -6.5351,-6.3086 0,-3.619 2.6724,-6.3008 6.5351,-6.3008 2.8504,0 4.7698,1.1371 5.0098,1.2618 v -6.3438 c -0.561,-0.1663 -2.6346,-0.8477 -5.4395,-0.8477 z m 62.25,0 c -7.2684,0 -12.5937,5.1737 -12.5937,12.2305 0,7.6142 5.8863,12.2383 12.5937,12.2383 2.6482,0 4.6856,-0.6302 5.4336,-0.8398 v -6.3418 c -0.2627,0.1417 -2.2145,1.2519 -5.0176,1.2519 -3.9705,0 -6.5273,-2.7971 -6.5273,-6.3086 0,-3.619 2.6721,-6.3008 6.5273,-6.3008 2.8523,0 4.7739,1.1371 5.0176,1.2618 v -6.3438 c -0.5648,-0.1663 -2.6361,-0.8477 -5.4336,-0.8477 z m 24.1953,0 c -7.2683,0 -12.4804,5.4816 -12.4804,12.2305 0,6.7604 5.2121,12.2383 12.4804,12.2383 7.2665,0 12.4864,-5.4779 12.4864,-12.2383 0,-6.7489 -5.2199,-12.2305 -12.4864,-12.2305 z m -72.8086,0.418 v 23.6328 h 5.9629 v -23.6328 z m 72.8086,5.5996 c 3.5342,0 6.1661,2.7827 6.1661,6.2129 0,3.4378 -2.6319,6.2207 -6.1661,6.2207 -3.5378,0 -6.166,-2.7829 -6.166,-6.2207 0,-3.4302 2.6282,-6.2129 6.166,-6.2129 z m -33.3222,53.8867 h 8.5 v 40.7754 h -8.5 z m 45.4023,0 h 8.5 v 17.375 h 0.1074 c 2.098,-3.2097 5.0839,-4.8144 8.9571,-4.8144 3.5504,0 6.2844,1.2196 8.2031,3.6582 1.9187,2.4387 2.8789,5.7741 2.8789,10.0059 0,4.5905 -1.1199,8.2752 -3.3613,11.0546 -2.2415,2.7794 -5.2367,4.17 -8.9844,4.17 -3.3891,0 -5.954,-1.291 -7.6934,-3.8731 h -0.1074 v 3.1992 h -8.5 z m -139.353508,2.2029 h 9.3594 l 15.3047,23.4824 c 0.6993,1.0579 1.3457,2.1064 1.9375,3.1465 h 0.1074 c -0.1435,-0.8966 -0.2149,-2.6629 -0.2149,-5.2989 v -21.33 h 8.203208 v 38.5703 h -8.767608 l -15.8965,-24.2344 c -0.9324,-1.4166 -1.5789,-2.482 -1.9375,-3.1992 h -0.1074 c 0.1434,1.3628 0.2148,3.4429 0.2148,6.2402 v 21.1934 h -8.2031 z m 83.003908,2.664 v 8.3653 h 6.1875 v 6.2656 h -6.1875 v 11.1367 c 0,2.869 1.1387,4.3027 3.416,4.3027 0.8966,0 1.8211,-0.2592 2.7715,-0.7793 v 6.293 c -1.2552,0.6635 -3.1474,0.9961 -5.6758,0.9961 -5.9891,0 -8.9844,-3.1118 -8.9844,-9.334 v -12.6152 h -4.4648 v -6.2656 h 4.4648 v -5.9453 z m -28.1328,7.6914 c 4.0166,0 7.117,1.1933 9.3047,3.5782 2.2056,2.3848 3.3086,5.6206 3.3086,9.7089 v 3.5782 h -17.9668 c 0.2869,3.9987 2.8067,5.998 7.5586,5.998 3.0304,0 5.693,-0.7178 7.9883,-2.1523 v 6.1328 c -2.5463,1.3628 -5.8554,2.0449 -9.9258,2.0449 -4.447,0 -7.8989,-1.2289 -10.3555,-3.6855 -2.4566,-2.4746 -3.6836,-5.917 -3.6836,-10.3282 0,-4.5725 1.3266,-8.1957 3.9805,-10.8671 2.6538,-2.6718 5.9178,-4.0079 9.791,-4.0079 z m 65.9238,0 c 7.854,0 11.7813,3.9179 11.7813,11.7539 v 16.461 h -8.043 v -3.9531 h -0.1074 c -1.847,3.0842 -4.581,4.6269 -8.2031,4.6269 -2.6718,0 -4.7782,-0.7535 -6.3204,-2.2598 -1.5241,-1.5241 -2.2871,-3.5497 -2.2871,-6.0781 0,-5.3436 3.1663,-8.429 9.4961,-9.2539 l 7.4766,-0.9941 c 0,-3.0125 -1.631,-4.5196 -4.8945,-4.5196 -3.2815,0 -6.4027,0.9772 -9.3614,2.9317 v -6.4004 c 1.1835,-0.6097 2.7976,-1.149 4.8418,-1.6152 2.0621,-0.4663 3.9356,-0.6993 5.6211,-0.6993 z m -65.9785,5.7305 c -1.3628,0 -2.5466,0.5637 -3.5508,1.6934 -0.9862,1.1296 -1.5856,2.5371 -1.8008,4.2226 h 10.1387 c 0,-3.9449 -1.5953,-5.916 -4.7871,-5.916 z m 98.8203,0.7793 c -1.7035,0 -3.1203,0.637 -4.25,1.9102 -1.1117,1.2731 -1.6679,2.9304 -1.6679,4.9746 v 2.8242 c 0,1.7752 0.5111,3.2466 1.5332,4.4121 1.022,1.1655 2.3318,1.748 3.9277,1.748 1.9366,0 3.4342,-0.7441 4.4922,-2.2324 1.0759,-1.5062 1.6133,-3.6315 1.6133,-6.375 0,-2.2773 -0.4923,-4.0511 -1.4786,-5.3242 -0.9683,-1.2911 -2.3588,-1.9375 -4.1699,-1.9375 z m -29.0488,8.6602 -5.002,0.6464 c -2.7614,0.3587 -4.1425,1.6045 -4.1425,3.7383 0,0.9683 0.3306,1.767 0.9941,2.3946 0.6814,0.6096 1.5965,0.914 2.7441,0.914 1.5959,0 2.8963,-0.5468 3.9004,-1.6406 1.0042,-1.1118 1.5059,-2.5098 1.5059,-4.1953 z"
       id="path5748"
       inkscape:connector-curvature="0" />
  </g>
</svg>
