<?xml version="1.0" encoding="UTF-8" standalone="no"?>
<svg
   xmlns:dc="http://purl.org/dc/elements/1.1/"
   xmlns:cc="http://creativecommons.org/ns#"
   xmlns:rdf="http://www.w3.org/1999/02/22-rdf-syntax-ns#"
   xmlns:svg="http://www.w3.org/2000/svg"
   xmlns="http://www.w3.org/2000/svg"
   xmlns:sodipodi="http://sodipodi.sourceforge.net/DTD/sodipodi-0.dtd"
   xmlns:inkscape="http://www.inkscape.org/namespaces/inkscape"
   height="200"
   width="200"
   viewBox="0 0 200 200"
   version="1.1"
   id="svg5"
   sodipodi:docname="logo-app-ehb-stuvo-explore.svg"
   inkscape:version="0.92.4 (5da689c313, 2019-01-14)">
  <metadata
     id="metadata11">
    <rdf:RDF>
      <cc:Work
         rdf:about="">
        <dc:format>image/svg+xml</dc:format>
        <dc:type
           rdf:resource="http://purl.org/dc/dcmitype/StillImage" />
        <dc:title></dc:title>
      </cc:Work>
    </rdf:RDF>
  </metadata>
  <defs
     id="defs9" />
  <sodipodi:namedview
     pagecolor="#ffffff"
     bordercolor="#666666"
     borderopacity="1"
     objecttolerance="10"
     gridtolerance="10"
     guidetolerance="10"
     inkscape:pageopacity="0"
     inkscape:pageshadow="2"
     inkscape:window-width="640"
     inkscape:window-height="480"
     id="namedview7"
     showgrid="false"
     inkscape:zoom="0.921875"
     inkscape:cx="-56.949153"
     inkscape:cy="128"
     inkscape:current-layer="svg5" />
  <path
     style="display:inline;opacity:1;fill:#ffffff;stroke:none;stroke-width:0.99999994px;stroke-linecap:butt;stroke-linejoin:miter;stroke-opacity:1"
     d="m 168.3184,0.05998583 c -13.0206,0.28119 -24.4865,9.66669997 -26.9122,22.97850017 -0.7589,4.22812 -0.5474,8.57371 0.6368,12.70311 L 157.5,90.905689 191.4004,44.733806 c 2.5715,-3.44322 4.3155,-7.43062 5.0976,-11.65621 2.7722,-15.21351 -7.3138,-29.7942802 -22.5273,-32.56641017 -1.9017,-0.34659 -3.7923,-0.49138 -5.6523,-0.4512 z m 0.7851,11.99803017 a 16.000001,16.000001 0 0 1 2.7168,0.25776 16.000001,16.000001 0 0 1 12.8731,18.6093 16.000001,16.000001 0 0 1 -18.6094,12.87311 16.000001,16.000001 0 0 1 -12.8731,-18.60941 16.000001,16.000001 0 0 1 15.8926,-13.13087 z m -37.0273,53.6973 3.4785,62.415984 c 3.9789,2.94709 8.1397,5.94101 12.4453,8.89459 2.9227,-6.66138 6.3354,-13.7978 12.0879,-19.8887 5.817,-6.15931 14.063,-10.94827 25.7519,-12.8047 L 182.5,82.780689 175.2012,80.315909 154.2285,108.8784 143.1974,69.509176 Z m -7.9942,0.35338 -39.5468,17.503903 -3.1426,32.001981 29.2148,-11.0742 0.838,33.22072 16.0917,-9.67582 z M 27.5,67.155596 9.416,136.61647 c 8.9147,-0.31408 18.231,2.14832 27.4395,5.85162 11.0392,4.43958 21.9693,10.7221 32.2129,16.80268 l 3.4531,-35.16008 c -2.3261,-1.07421 -5.7995,-2.7846 -9.7188,-5.17579 -6.6404,-4.05151 -14.3362,-9.6982 -18.123,-17.53913 C 39.3635,90.388579 40.3903,81.023169 43.1309,72.573589 Z m 23.1074,8.011693 c -2.4465,7.08529 -3.1185,13.65029 1.2774,22.752 2.4931,5.162191 9.0414,10.501981 15.082,14.187511 2.5593,1.5614 4.7033,2.6917 6.3887,3.5156 L 76.4492,84.124389 Z M 187.0586,112.2494 c -10.1324,1.54178 -16.4371,5.42729 -21.1524,10.4199 -4.9658,5.25807 -8.119,12.0283 -11.1445,18.91989 12.6799,8.20479 26.3152,15.53088 39.8477,19.47069 z m -84.1641,3.76948 -22.375,8.4785 -3.3242,33.85942 26.3711,-15.85742 z m 25.1465,21.09762 -51.8203,31.1602 -3.0977,31.5351 57.0879,-23.7851 z m 8.086,1.33009 2.0781,37.2813 L 200,195.90558 195.9824,169.931 C 174.4246,164.6987 153.6162,151.16818 136.127,138.44659 Z M 10.4551,144.6107 c -1.078,0.0113 -2.1309,0.0809 -3.1699,0.18935 L 0,172.78054 l 65.0742,27.166 3.1348,-31.9121 c -11.1035,-6.61618 -22.9594,-13.5653 -34.336,-18.1406 -8.328,-3.34919 -16.2828,-5.3565 -23.4179,-5.28318 z"
     id="path8609"
     inkscape:connector-curvature="0" />
</svg>
