<?xml version="1.0" encoding="UTF-8" standalone="no"?>
<!-- Created with Inkscape (http://www.inkscape.org/) -->

<svg
   xmlns:dc="http://purl.org/dc/elements/1.1/"
   xmlns:cc="http://creativecommons.org/ns#"
   xmlns:rdf="http://www.w3.org/1999/02/22-rdf-syntax-ns#"
   xmlns:svg="http://www.w3.org/2000/svg"
   xmlns="http://www.w3.org/2000/svg"
   xmlns:sodipodi="http://sodipodi.sourceforge.net/DTD/sodipodi-0.dtd"
   xmlns:inkscape="http://www.inkscape.org/namespaces/inkscape"
   width="200"
   height="200"
   viewBox="0 0 52.916665 52.916668"
   version="1.1"
   id="svg8"
   sodipodi:docname="logo-app-ehb-vandale.svg"
   inkscape:version="0.92.4 (5da689c313, 2019-01-14)">
  <defs
     id="defs2" />
  <sodipodi:namedview
     id="base"
     pagecolor="#ffffff"
     bordercolor="#666666"
     borderopacity="1.0"
     inkscape:pageopacity="0.0"
     inkscape:pageshadow="2"
     inkscape:zoom="3.959798"
     inkscape:cx="102.83116"
     inkscape:cy="121.58159"
     inkscape:document-units="mm"
     inkscape:current-layer="layer1"
     showgrid="false"
     units="px"
     inkscape:showpageshadow="true"
     borderlayer="true"
     inkscape:pagecheckerboard="false"
     inkscape:window-width="2560"
     inkscape:window-height="1027"
     inkscape:window-x="-8"
     inkscape:window-y="-8"
     inkscape:window-maximized="1" />
  <metadata
     id="metadata5">
    <rdf:RDF>
      <cc:Work
         rdf:about="">
        <dc:format>image/svg+xml</dc:format>
        <dc:type
           rdf:resource="http://purl.org/dc/dcmitype/StillImage" />
        <dc:title></dc:title>
      </cc:Work>
    </rdf:RDF>
  </metadata>
  <g
     inkscape:label="Layer 1"
     inkscape:groupmode="layer"
     id="layer1"
     transform="translate(0,-244.08332)">
    <path
       style="display:inline;opacity:1;fill:#ffffff;fill-opacity:1;fill-rule:nonzero;stroke:none;stroke-width:1.47203732;stroke-linecap:square;stroke-linejoin:miter;stroke-miterlimit:4;stroke-dasharray:none;stroke-dashoffset:0;stroke-opacity:1"
       d="m 26.458484,251.41861 a 26.458429,19.122918 0 0 0 -21.8541296,8.3458 c 0.5453599,-0.009 1.0118499,-0.0194 1.2410997,-0.0332 0.1563201,-0.01 0.69195,-0.0293 1.1902101,-0.0442 1.01639,-0.0304 2.33205,-0.099 2.4207899,-0.12617 0.0321,-0.01 0.3602802,-0.0331 0.7287299,-0.0514 0.87113,-0.0432 1.60444,-0.0981 1.90178,-0.14221 0.13075,-0.0202 0.3467,-0.0356 0.47973,-0.0354 0.21987,2.9e-4 0.72116,-0.0479 1.48734,-0.14275 0.15732,-0.0202 0.388611,-0.036 0.514601,-0.0371 0.12597,-9.5e-4 0.30899,-0.0176 0.40669,-0.0354 0.0977,-0.018 0.30571,-0.0428 0.46203,-0.0537 0.15631,-0.01 0.36105,-0.0346 0.45483,-0.0531 0.0938,-0.018 0.2621,-0.0339 0.37349,-0.0349 0.1114,-8.7e-4 0.27396,-0.0179 0.36188,-0.0365 0.0879,-0.0204 0.31181,-0.0491 0.49744,-0.0669 0.97432,-0.093 1.14732,-0.11371 1.22949,-0.14498 0.0492,-0.0181 0.17893,-0.0337 0.28883,-0.0337 0.10991,0 0.2892,-0.0144 0.39784,-0.0337 0.49344,-0.0836 0.95604,-0.14463 1.09393,-0.14443 0.0828,1.1e-4 0.21879,-0.0162 0.30211,-0.0343 0.16638,-0.0379 0.57247,-0.0978 0.98603,-0.14497 0.14654,-0.0162 0.43503,-0.0548 0.64019,-0.0852 0.20516,-0.0305 0.49255,-0.07 0.63909,-0.088 0.14655,-0.018 0.30694,-0.042 0.35579,-0.0542 0.0828,-0.0208 0.28261,-0.0499 0.85157,-0.12394 0.25815,-0.0334 0.71303,-0.10864 1.3147,-0.21691 0.12701,-0.0226 0.32708,-0.0545 0.44432,-0.0708 0.46136,-0.0643 0.68829,-0.10472 0.77964,-0.13945 0.0525,-0.0202 0.150069,-0.0365 0.2169,-0.0365 0.0669,0 0.189461,-0.0164 0.272791,-0.0349 0.218879,-0.0498 0.547878,-0.11132 0.772988,-0.14441 0.107471,-0.0162 0.33192,-0.054 0.498002,-0.0858 0.166079,-0.0319 0.397348,-0.0736 0.51459,-0.0924 0.11724,-0.0181 0.349071,-0.0585 0.515149,-0.0885 0.166079,-0.0301 0.412639,-0.0696 0.547791,-0.0875 0.135139,-0.0181 0.27118,-0.0422 0.302109,-0.0542 0.0309,-0.0122 0.128421,-0.029 0.21635,-0.0376 0.0879,-0.007 0.239281,-0.0311 0.336981,-0.0493 0.39864,-0.074 0.76989,-0.12683 1.464649,-0.20971 0.18024,-0.0215 0.39619,-0.0555 0.479729,-0.0747 0.0835,-0.0202 0.235861,-0.035 0.33809,-0.0354 0.102201,-5.3e-4 0.293801,-0.0163 0.426051,-0.036 0.469201,-0.0681 0.92184,-0.11358 1.430351,-0.14442 1.20901,-0.0732 2.03419,-0.11476 2.71517,-0.12782 v -5.6e-4 c 0.680968,-0.0131 1.217599,0.002 1.84976,0.0398 1.41269,0.0848 1.78122,0.11275 1.822648,0.13834 0.0199,0.0122 0.169662,0.0387 0.332552,0.0581 0.46871,0.0561 0.76608,0.10054 0.90967,0.13777 0.0731,0.0181 0.2286,0.0527 0.345829,0.0747 0.117231,0.0222 0.285011,0.0636 0.37294,0.0919 0.0879,0.0282 0.20305,0.0509 0.255641,0.0509 0.0526,-1.1e-4 0.10577,0.0161 0.117859,0.0354 0.01209,0.0202 0.0495,0.036 0.0836,0.036 0.0769,0 0.86537,0.2528 1.17747,0.37792 0.478411,0.19175 0.940861,0.41141 1.225621,0.58099 0.0977,0.0582 0.20142,0.11667 0.230741,0.13059 0.12736,0.06 0.607758,0.3971 0.848788,0.59538 0.0803,0.0661 0.16096,0.14427 0.241811,0.218 a 26.458429,19.122918 0 0 0 -20.852612,-7.36419 z m 21.464032,7.98227 c 0.256119,0.29191 0.48215,0.59101 0.637429,0.85378 0.227311,0.38464 0.548201,1.11748 0.645181,1.47406 0.0159,0.0586 0.0452,0.1549 0.0653,0.21358 0.02011,0.0586 0.0521,0.17039 0.0708,0.24845 0.01871,0.0783 0.0533,0.21409 0.0763,0.30211 0.0502,0.19112 0.0908,0.43869 0.142758,0.86982 0.02119,0.17584 0.048,0.39183 0.0598,0.47974 0.0299,0.22425 0.0307,1.44093 0.0011,1.63396 -0.01349,0.0879 -0.0408,0.31237 -0.0614,0.498 -0.0691,0.62243 -0.0959,0.80729 -0.122291,0.84991 -0.0145,0.0233 -0.0399,0.12546 -0.0564,0.22686 -0.0386,0.23689 -0.0965,0.50678 -0.13888,0.64462 -0.01831,0.0595 -0.0594,0.20369 -0.0913,0.32093 -0.0319,0.11722 -0.0711,0.24532 -0.0869,0.28441 -0.01569,0.0391 -0.0574,0.16661 -0.093,0.28385 -0.0356,0.11722 -0.078,0.22871 -0.0935,0.24735 -0.0155,0.018 -0.0277,0.0605 -0.0277,0.0935 0,0.0328 -0.0245,0.10579 -0.0537,0.16158 -0.0292,0.0561 -0.0525,0.12903 -0.0526,0.16212 0,0.033 -0.0163,0.0699 -0.036,0.0819 -0.0195,0.0122 -0.036,0.0443 -0.036,0.072 0,0.0275 -0.042,0.14221 -0.093,0.25508 -0.051,0.11279 -0.112591,0.25406 -0.137779,0.31263 -0.175062,0.40739 -0.573091,1.221 -0.764141,1.56259 -0.0656,0.11722 -0.144859,0.25838 -0.1754,0.31374 -0.0949,0.17179 -0.116689,0.20806 -0.492461,0.80784 -0.20125,0.32125 -0.46119,0.71925 -0.578228,0.88533 -0.117042,0.16616 -0.256371,0.36616 -0.309312,0.44432 -0.111389,0.16455 -0.757168,1.01411 -0.892508,1.17415 -0.0504,0.0595 -0.147971,0.17896 -0.216352,0.26505 -0.0684,0.086 -0.19462,0.2367 -0.280538,0.33531 -0.0859,0.0986 -0.245761,0.2827 -0.355232,0.40891 -0.109469,0.12628 -0.253238,0.28042 -0.436568,0.48638 -0.183341,0.20595 -1.492372,1.46425 -2.685291,2.51596 -1.192921,1.05171 -2.911451,2.30593 -5.393812,2.98685 -2.482357,0.68099 -4.658939,0.71878 -5.271529,0.6662 -0.263779,-0.0225 -0.647509,-0.0666 -0.85268,-0.098 -0.205158,-0.0315 -0.47951,-0.0709 -0.609209,-0.0868 -0.129712,-0.0163 -0.25065,-0.038 -0.26892,-0.0492 -0.01831,-0.0121 -0.13613,-0.0391 -0.26172,-0.0615 -0.458711,-0.0819 -0.550849,-0.10076 -0.7077,-0.14165 -0.0879,-0.0228 -0.223962,-0.0569 -0.30212,-0.0758 -0.0781,-0.0181 -0.18983,-0.0511 -0.248441,-0.0714 -0.0586,-0.0206 -0.154418,-0.0451 -0.213029,-0.0537 -0.0586,-0.007 -0.138541,-0.0287 -0.17762,-0.0442 -0.0391,-0.0162 -0.167172,-0.0566 -0.284411,-0.0913 -0.11724,-0.0346 -0.317449,-0.10022 -0.44487,-0.14663 -0.127409,-0.0465 -0.24688,-0.0842 -0.265599,-0.0842 -0.0395,0 -0.387781,-0.12605 -0.888641,-0.32093 -0.0391,-0.0162 -0.13432,-0.0542 -0.21247,-0.0868 -0.0782,-0.0326 -0.1745,-0.0715 -0.213589,-0.0875 -0.0391,-0.0162 -0.158961,-0.0707 -0.2667,-0.1223 -0.10776,-0.0514 -0.210511,-0.0935 -0.22797,-0.0935 -0.0175,0 -0.15323,0.0574 -0.301561,0.12781 -0.47535,0.22595 -0.935019,0.40504 -1.04081,0.40504 -0.0326,0 -0.0681,0.0142 -0.0786,0.0309 -0.0105,0.0162 -0.0838,0.0416 -0.163231,0.0543 -0.0794,0.0121 -0.17194,0.0366 -0.205279,0.0542 -0.0638,0.0331 -0.588021,0.16663 -0.859871,0.21856 -0.0879,0.0162 -0.27952,0.0556 -0.42606,0.0868 -0.14654,0.0313 -0.35455,0.0707 -0.462029,0.0868 -0.107471,0.0163 -0.267861,0.0467 -0.355781,0.0675 -0.0879,0.0208 -0.27158,0.0541 -0.408359,0.0742 -0.13677,0.0201 -0.344241,0.054 -0.461471,0.0753 -0.21761,0.0394 -0.397149,0.0649 -0.95504,0.13667 -0.17367,0.0224 -0.33359,0.0509 -0.35468,0.0636 -0.0211,0.0121 -0.15882,0.0356 -0.30599,0.0493 -0.56957,0.0534 -1.01385,0.10731 -1.15258,0.13943 -0.0796,0.0181 -0.2598,0.0332 -0.40005,0.0337 -0.14024,5.3e-4 -0.37152,0.0162 -0.51459,0.0337 -0.143079,0.0181 -0.60048,0.0528 -1.01646,0.0769 -0.415981,0.0242 -0.764481,0.0576 -0.774661,0.0741 -0.0241,0.0392 -2.50277,0.0368 -2.57241,-0.002 v -5.3e-4 c -0.0293,-0.0162 -0.38923,-0.0496 -0.79955,-0.073 -0.41032,-0.0233 -0.8530697,-0.0577 -0.9838096,-0.0758 -0.1307499,-0.018 -0.3420401,-0.0327 -0.46922,-0.0327 -0.12719,0 -0.30739,-0.0163 -0.4011599,-0.036 -0.1608701,-0.0337 -0.4250902,-0.0673 -1.10167,-0.13999 -0.16022,-0.018 -0.3080102,-0.0407 -0.3281201,-0.0531 -0.020201,-0.0121 -0.16026,-0.0393 -0.31208,-0.0592 -0.3321899,-0.0439 -0.5443,-0.0807 -0.8980501,-0.15659 -0.14654,-0.0315 -0.3381298,-0.0697 -0.4260598,-0.0852 -0.009,-0.001 -0.023,-0.005 -0.0326,-0.007 a 26.458429,19.122918 0 0 0 20.8763425,7.38866 26.458429,19.122918 0 0 0 26.45835,-19.12293 26.458429,19.122918 0 0 0 -4.99431,-11.14064 z m -13.1055,0.27777 c -0.926251,0.002 -2.752889,0.1143 -3.02005,0.18647 -0.0684,0.0181 -0.235521,0.0342 -0.371282,0.0343 -0.135768,1.1e-4 -0.374978,0.0163 -0.532299,0.0354 -0.71116,0.0871 -0.986639,0.11608 -1.334619,0.1422 -0.62979,0.0473 -1.21807,0.10905 -1.367272,0.14331 -0.0781,0.0181 -0.244318,0.0327 -0.369069,0.0332 -0.124741,4.2e-4 -0.324829,0.0163 -0.444321,0.0354 -0.306358,0.0484 -0.834069,0.11001 -1.230039,0.14331 -0.37356,0.0314 -0.86078,0.0893 -1.19352,0.14275 -0.1195,0.0202 -0.31163,0.0356 -0.42662,0.036 -0.11498,5.3e-4 -0.28058,0.0184 -0.36851,0.0382 -0.15236,0.0353 -0.3798,0.061 -1.19905,0.13667 -0.20034,0.018 -0.38154,0.0437 -0.40227,0.0564 -0.0207,0.0121 -0.20897,0.0366 -0.41776,0.0531 -0.75039,0.0588 -1.19856,0.10816 -1.29976,0.14221 -0.0567,0.0181 -0.20736,0.0343 -0.33532,0.0343 -0.12795,0 -0.36169,0.0162 -0.51902,0.0354 -0.7785,0.0968 -0.95826,0.11525 -1.36948,0.14276 -0.7515,0.0505 -1.39245,0.10676 -1.61571,0.1422 -0.11723,0.0181 -0.35755,0.0343 -0.5334,0.0343 -0.17585,0 -0.51141,0.0165 -0.74589,0.036 -0.91111,0.0762 -1.559031,0.11587 -2.327281,0.14221 -0.43963,0.014 -1.13512,0.0443 -1.54544,0.0659 -2.7804398,0.14529 -6.41673,0.15396 -8.82719,0.0288 A 26.458429,19.122918 0 0 0 1.3413333e-4,270.54157 26.458429,19.122918 0 0 0 0.83897413,275.25258 c 0.1129,-0.058 0.23018997,-0.113 0.35246997,-0.16488 0.0782,-0.0331 0.16657,-0.0731 0.19587,-0.088 0.0293,-0.0141 0.14891,-0.0542 0.26615,-0.0885 0.11724,-0.0342 0.27708,-0.0828 0.35524,-0.1079 0.0782,-0.0253 0.238,-0.0654 0.35523,-0.0891 0.11724,-0.0235 0.2850199,-0.0592 0.3729399,-0.0797 0.7211601,-0.16706 2.6216002,-0.23632 3.8190501,-0.13889 1.1171801,0.0909 1.2471302,0.10301 1.5277301,0.14331 0.1563201,0.0223 0.3881501,0.0554 0.5151501,0.073 0.1270098,0.018 0.3344698,0.0509 0.4614698,0.0736 0.1270101,0.0226 0.31915,0.0543 0.42662,0.0702 0.1074701,0.0162 0.3313502,0.0565 0.49744,0.0891 0.1660799,0.0329 0.3814699,0.0725 0.4791799,0.0885 0.0977,0.0162 0.29777,0.0559 0.44432,0.0885 0.14654,0.0329 0.3302,0.0728 0.40835,0.0885 0.0781,0.0163 0.25387,0.0551 0.39065,0.088 0.13677,0.0329 0.31304,0.0727 0.3912,0.088 0.20228,0.0398 0.48324,0.11188 0.57878,0.14829 0.0449,0.018 0.11506,0.0316 0.15548,0.0316 0.0404,0 0.14738,0.0224 0.23793,0.0509 0.0906,0.0283 0.23633,0.0701 0.32425,0.0919 0.0879,0.022 0.2319,0.0604 0.31982,0.0858 0.0879,0.0259 0.2319,0.0656 0.31982,0.0886 0.15899,0.0417 0.470051,0.12828 0.639651,0.17871 0.0488,0.014 0.17638,0.052 0.28385,0.083 0.10748,0.031 0.33191,0.0968 0.498,0.14663 0.16608,0.0496 0.38941,0.11683 0.49688,0.14884 0.10747,0.0318 0.22338,0.0714 0.2573,0.0885 0.0339,0.0181 0.0986,0.0316 0.14386,0.0316 0.0452,0 0.0976,0.014 0.1162,0.0309 0.0185,0.0163 0.12955,0.0586 0.24678,0.0919 0.11724,0.0335 0.26561,0.0831 0.32978,0.11067 0.0642,0.0277 0.13987,0.0509 0.16877,0.0509 0.0289,0 0.0806,0.0137 0.11454,0.0304 0.0775,0.0386 0.2772,0.10916 0.41665,0.14663 0.13805,0.037 0.55275,0.17911 0.62305,0.21359 0.0299,0.0141 0.10558,0.038 0.16821,0.052 0.0626,0.0141 0.1233,0.0393 0.13445,0.0575 0.0111,0.018 0.0471,0.0327 0.0797,0.0327 0.0588,0 0.45488,0.13877 0.67008,0.2346 0.0616,0.0274 0.1293,0.0493 0.15106,0.0493 0.0217,0 0.0673,0.0147 0.10126,0.0327 0.0339,0.018 0.18158,0.0743 0.32812,0.1267 0.14655,0.0524 0.33076,0.11965 0.40891,0.14996 0.0782,0.0302 0.17395,0.0669 0.21303,0.0819 0.30708,0.11688 0.39881,0.15376 0.45262,0.18149 0.0339,0.0181 0.0795,0.0321 0.10126,0.0321 0.0217,0 0.0895,0.0223 0.15106,0.0487 0.36249,0.15643 0.38814,0.1582 0.65458,0.0608 0.41485,-0.15165 0.82138,-0.46484 1.46853,-1.131 0.59014,-0.6075 1.21921,-1.35998 1.90786,-2.28246 0.24068,-0.32241 0.47239,-0.63212 0.51515,-0.68834 0.0861,-0.11319 0.352,-0.48532 0.52344,-0.7326 0.0609,-0.0879 0.178849,-0.25626 0.26173,-0.3735 0.2222,-0.31431 0.742569,-1.07892 1.05242,-1.54543 0.465989,-0.7016 1.60773,-2.44972 1.720839,-2.63549 0.302242,-0.49646 1.865831,-2.97404 2.032371,-3.22036 0.750239,-1.10971 1.559671,-1.71936 2.622761,-1.97481 0.494639,-0.11877 1.620809,-0.0626 2.14911,0.10675 0.0879,0.0282 0.18664,0.0509 0.219671,0.0509 0.112868,-3.2e-4 0.099,0.0617 -0.0337,0.14995 -0.169262,0.1124 -0.631323,0.57657 -0.894731,0.89805 -0.186801,0.22797 -0.698892,0.95747 -0.760262,1.08341 -0.01429,0.0293 -0.0454,0.0855 -0.0692,0.1245 -0.28602,0.46949 -1.019781,1.92857 -1.019781,2.02794 0,0.01 -0.0417,0.11022 -0.0924,0.22132 -0.0507,0.11113 -0.115699,0.25805 -0.14442,0.32647 -0.0287,0.0684 -0.0688,0.1642 -0.0896,0.21303 -0.0208,0.0488 -0.0513,0.12082 -0.067,0.1599 -0.01569,0.0391 -0.0774,0.17992 -0.137229,0.31319 -0.0599,0.13333 -0.109001,0.24988 -0.109001,0.25951 0,0.01 -0.0409,0.10845 -0.0913,0.21967 -0.0504,0.11115 -0.104961,0.23371 -0.12118,0.27279 -0.01611,0.0391 -0.0627,0.14731 -0.103481,0.24014 -0.0408,0.0928 -0.10459,0.23684 -0.141089,0.31982 -0.0365,0.0831 -0.0912,0.20658 -0.12174,0.275 -0.0305,0.0684 -0.0899,0.20447 -0.131691,0.30212 -0.134739,0.31433 -0.173688,0.402 -0.472541,1.04856 -0.0677,0.14663 -0.158847,0.34611 -0.201959,0.44376 -0.0776,0.17582 -0.246859,0.54454 -0.407799,0.88809 -0.179031,0.38217 -0.970571,1.96583 -1.083411,2.16737 -0.0656,0.11722 -0.1486,0.26577 -0.184809,0.33033 -0.348242,0.62198 -0.638071,1.09205 -0.852122,1.38221 -0.0751,0.10173 -0.136668,0.20049 -0.136668,0.21912 0,0.0181 -0.0122,0.039 -0.0271,0.0454 -0.0149,0.005 -0.13272,0.14829 -0.262279,0.31429 -0.428001,0.54863 -0.990301,1.09917 -1.362292,1.33407 -0.0586,0.037 -0.114639,0.0769 -0.124489,0.088 -0.0265,0.0301 -0.47743,0.30928 -0.66842,0.41389 -0.0917,0.05 -0.18091,0.10451 -0.19864,0.12062 -0.052,0.0478 0.0357,0.12328 0.200299,0.17264 0.0833,0.0252 0.183351,0.0579 0.222441,0.0725 0.0876,0.033 0.34291,0.1014 0.53285,0.14275 0.0782,0.0162 0.25387,0.0568 0.390652,0.0885 0.516098,0.12041 1.531479,0.22852 2.149657,0.22852 0.761511,-10e-6 1.605891,-0.10215 2.309582,-0.27998 0.355839,-0.0898 0.59317,-0.15462 0.656799,-0.17817 0.17571,-0.065 0.325189,-0.11542 0.39065,-0.13169 0.0391,-0.01 0.103121,-0.0312 0.1422,-0.047 0.0391,-0.0162 0.23916,-0.0976 0.44432,-0.18148 1.114441,-0.45624 2.385679,-1.24293 3.463261,-2.14249 0.725609,-0.60572 1.82114,-1.70132 2.55969,-2.56078 0.58473,-0.68048 1.53987,-1.93127 1.810481,-2.371 0.0195,-0.0318 0.172947,-0.26309 0.341399,-0.51348 0.555401,-0.82555 0.934329,-1.43623 1.27375,-2.05394 0.0644,-0.11723 0.129159,-0.22896 0.143869,-0.24845 0.0301,-0.0401 0.372999,-0.72489 0.444871,-0.88864 0.02569,-0.0586 0.0874,-0.19867 0.137779,-0.31152 0.0503,-0.11299 0.0919,-0.22573 0.0919,-0.25121 0,-0.0257 0.0109,-0.0575 0.02429,-0.0708 0.0514,-0.0514 0.246761,-0.64789 0.362432,-1.10665 0.252449,-1.00126 0.277468,-2.12881 0.0642,-2.89555 -0.0299,-0.10754 -0.0653,-0.23558 -0.0786,-0.2844 -0.01331,-0.0488 -0.0462,-0.13874 -0.0736,-0.20031 -0.0274,-0.0616 -0.0504,-0.12296 -0.0504,-0.13667 0,-0.0313 -0.26411,-0.56578 -0.354129,-0.71655 -0.149262,-0.24997 -0.479621,-0.66457 -0.739241,-0.92848 -0.673841,-0.68492 -1.516139,-1.23479 -2.512099,-1.63896 -0.254011,-0.10311 -0.51462,-0.20962 -0.578782,-0.23682 -0.0642,-0.0273 -0.14043,-0.0498 -0.16932,-0.0498 -0.0289,0 -0.0806,-0.0137 -0.11453,-0.0326 -0.0914,-0.0487 -0.42019,-0.14497 -0.49634,-0.14497 -0.0364,0 -0.081,-0.0138 -0.0996,-0.0316 -0.0337,-0.0318 -0.24652,-0.0885 -0.548899,-0.14607 -0.14787,-0.0282 -0.26403,-0.0531 -0.66675,-0.14332 -0.0833,-0.0181 -0.216321,-0.0343 -0.295481,-0.0343 -0.0791,0 -0.17145,-0.0145 -0.20528,-0.0332 -0.147878,-0.0791 -1.740008,-0.18971 -2.704658,-0.18757 z M 8.3702842,276.01447 c -0.62993,-2.2e-4 -1.2520901,0.0146 -1.4237099,0.0449 -0.1367801,0.0242 -0.36805,0.058 -0.51459,0.0753 -0.14654,0.0181 -0.3783701,0.0571 -0.5151501,0.088 -0.13677,0.031 -0.32043,0.0707 -0.40835,0.0875 -0.0879,0.0162 -0.20071,0.0466 -0.2495499,0.0659 -0.0488,0.0201 -0.1605301,0.0542 -0.24844,0.0781 -0.1413701,0.0381 -0.27099,0.0835 -0.5146001,0.17872 -0.71941,0.28096 -1.3048502,0.70762 -1.51721,1.10721 -0.1118701,0.21045 -0.11355,0.65409 -0.003,0.86318 0.3014901,0.57143 1.3540601,1.22476 2.58568,1.60465 0.0977,0.0302 0.23373,0.0756 0.3021201,0.10065 0.17009,0.0628 0.6259499,0.19465 0.7990001,0.23073 0.0781,0.0162 0.2385499,0.0561 0.35579,0.0885 0.11724,0.0324 0.28502,0.073 0.37294,0.0902 0.0879,0.0162 0.2874499,0.0569 0.44377,0.0891 0.15631,0.0321 0.3960799,0.0712 0.5328499,0.0868 0.13677,0.0162 0.39296,0.0464 0.56882,0.0681 0.17584,0.0217 0.4558501,0.0535 0.6219399,0.0702 0.4414398,0.0448 2.7117198,0.047 3.2496698,0.004 h 0.001 c 0.25401,-0.0206 0.61338,-0.0542 0.799011,-0.0747 0.185609,-0.0204 0.489429,-0.0502 0.67505,-0.0664 0.185621,-0.0162 0.49737,-0.0554 0.69277,-0.0874 0.19538,-0.0318 0.45896,-0.0715 0.58597,-0.0891 0.2872,-0.0392 0.622701,-0.103 0.76635,-0.14608 0.06,-0.018 0.15882,-0.0332 0.219671,-0.0332 0.0608,0 0.155809,-0.0178 0.21082,-0.0382 0.055,-0.0211 0.17213,-0.0523 0.26006,-0.0692 0.318049,-0.0609 0.37577,-0.0741 0.550559,-0.12283 0.0977,-0.0273 0.249061,-0.068 0.336981,-0.0907 0.0879,-0.0228 0.22396,-0.0619 0.30211,-0.0863 0.0782,-0.0246 0.286169,-0.0888 0.46203,-0.14277 0.175839,-0.054 0.367989,-0.11766 0.426609,-0.14165 0.0586,-0.024 0.16236,-0.0637 0.23074,-0.0885 0.33728,-0.12145 0.841691,-0.33778 0.896941,-0.38512 0.0342,-0.0291 0.062,-0.0755 0.062,-0.10236 0,-0.0271 -0.0278,-0.0578 -0.062,-0.0686 -0.0948,-0.0297 -0.50634,-0.19181 -0.66621,-0.26226 -0.0781,-0.0346 -0.270291,-0.11388 -0.426611,-0.17652 -0.353559,-0.14176 -0.43374,-0.17509 -0.567709,-0.23184 -0.269851,-0.11442 -0.571531,-0.2314 -0.594831,-0.23129 -0.0141,1.1e-4 -0.109369,-0.0382 -0.21247,-0.0852 -0.103129,-0.047 -0.308289,-0.12824 -0.454839,-0.18039 -0.14654,-0.0521 -0.3302,-0.11965 -0.40835,-0.14995 -0.0781,-0.0302 -0.173951,-0.0662 -0.213031,-0.0807 -0.0391,-0.0141 -0.13135,-0.0532 -0.205279,-0.0852 -0.0739,-0.0321 -0.158131,-0.0582 -0.18703,-0.0582 -0.0289,0 -0.0801,-0.0137 -0.113981,-0.0309 -0.149749,-0.0757 -0.33513,-0.14607 -0.38346,-0.14607 -0.0289,0 -0.0801,-0.0167 -0.113979,-0.036 -0.06,-0.0345 -0.584801,-0.20794 -1.233921,-0.40835 -0.175851,-0.0544 -0.383871,-0.11879 -0.46202,-0.14331 -0.0781,-0.0246 -0.214201,-0.0638 -0.302121,-0.0868 -0.0879,-0.023 -0.23135,-0.0627 -0.31927,-0.0885 -0.0879,-0.0257 -0.22396,-0.0632 -0.30211,-0.0835 -0.0781,-0.0203 -0.2142,-0.0566 -0.30212,-0.0807 -0.0879,-0.0243 -0.22396,-0.0563 -0.30211,-0.0714 -0.0782,-0.0163 -0.26182,-0.0546 -0.40836,-0.0875 -0.14654,-0.0328 -0.34662,-0.0723 -0.44432,-0.0891 -0.0977,-0.0162 -0.32103,-0.0557 -0.49688,-0.0868 -0.17585,-0.0313 -0.46435,-0.0701 -0.6402,-0.0868 -0.17585,-0.0163 -0.4553,-0.051 -0.621389,-0.0758 -0.20403,-0.0304 -0.8419102,-0.0452 -1.47184,-0.0454 z"
       id="path850-9"
       inkscape:connector-curvature="0" />
  </g>
</svg>
