<?xml version="1.0" encoding="UTF-8" standalone="no"?>
<!-- Generator: Adobe Illustrator 19.2.1, SVG Export Plug-In . SVG Version: 6.00 Build 0)  -->

<svg
   xmlns:dc="http://purl.org/dc/elements/1.1/"
   xmlns:cc="http://creativecommons.org/ns#"
   xmlns:rdf="http://www.w3.org/1999/02/22-rdf-syntax-ns#"
   xmlns:svg="http://www.w3.org/2000/svg"
   xmlns="http://www.w3.org/2000/svg"
   xmlns:sodipodi="http://sodipodi.sourceforge.net/DTD/sodipodi-0.dtd"
   xmlns:inkscape="http://www.inkscape.org/namespaces/inkscape"
   version="1.1"
   id="Layer_1"
   x="0px"
   y="0px"
   viewBox="0 0 199.99999 200"
   xml:space="preserve"
   inkscape:version="0.92.4 (5da689c313, 2019-01-14)"
   sodipodi:docname="logo-app-ehb-site.svg"
   width="200"
   height="200"><metadata
     id="metadata4181"><rdf:RDF><cc:Work
         rdf:about=""><dc:format>image/svg+xml</dc:format><dc:type
           rdf:resource="http://purl.org/dc/dcmitype/StillImage" /><dc:title /></cc:Work></rdf:RDF></metadata><defs
     id="defs4179" /><sodipodi:namedview
     pagecolor="#ffffff"
     bordercolor="#666666"
     borderopacity="1"
     objecttolerance="10"
     gridtolerance="10"
     guidetolerance="10"
     inkscape:pageopacity="0"
     inkscape:pageshadow="2"
     inkscape:window-width="2560"
     inkscape:window-height="1027"
     id="namedview4177"
     showgrid="false"
     showguides="true"
     inkscape:guide-bbox="true"
     inkscape:zoom="2.9276896"
     inkscape:cx="107.03851"
     inkscape:cy="72.83492"
     inkscape:window-x="-8"
     inkscape:window-y="-8"
     inkscape:window-maximized="1"
     inkscape:current-layer="Layer_1"
     fit-margin-top="0"
     fit-margin-left="0"
     fit-margin-right="0"
     fit-margin-bottom="0" /><path
     style="display:inline;opacity:1;fill:#ffffff;fill-opacity:1;stroke-width:0.99999994"
     d="m 140.45928,163.82705 c -4.70059,4.7006 -10.18458,8.46108 -15.98199,11.12474 h 63.30122 c 6.11074,-10.49798 10.18461,-21.77938 12.22148,-33.37421 h -46.06572 c -2.66366,8.14771 -7.05086,15.82533 -13.47499,22.24947 m 39.48495,-87.117543 2.19356,-2.1936 C 178.06399,68.405167 173.83341,61.981028 168.34943,56.653709 129.02122,17.325531 69.480433,13.094993 29.525498,53.049929 -3.5352778,86.110742 -8.8626358,136.40695 13.7002,174.95179 h 63.457852 c -5.797379,-2.66366 -11.124699,-6.42414 -15.981959,-11.12474 -21.779376,-21.77941 -21.779376,-57.19041 0,-79.126488 17.078816,-17.078853 38.701493,-19.115754 57.347157,-9.871219 l -43.402098,43.245357 31.650638,31.65059 42.30519,-42.30523 z"
     id="path4139-0"
     inkscape:connector-curvature="0" /></svg>