<?xml version="1.0" encoding="UTF-8" standalone="no"?>
<!-- Generator: Adobe Illustrator 15.0.0, SVG Export Plug-In . SVG Version: 6.00 Build 0)  -->

<svg
   xmlns:dc="http://purl.org/dc/elements/1.1/"
   xmlns:cc="http://creativecommons.org/ns#"
   xmlns:rdf="http://www.w3.org/1999/02/22-rdf-syntax-ns#"
   xmlns:svg="http://www.w3.org/2000/svg"
   xmlns="http://www.w3.org/2000/svg"
   xmlns:sodipodi="http://sodipodi.sourceforge.net/DTD/sodipodi-0.dtd"
   xmlns:inkscape="http://www.inkscape.org/namespaces/inkscape"
   version="1.1"
   id="Layer_1"
   x="0px"
   y="0px"
   width="200"
   height="200"
   viewBox="0 0 200 200"
   xml:space="preserve"
   inkscape:version="0.92.4 (5da689c313, 2019-01-14)"
   sodipodi:docname="logo-app-ehb-webmail.svg"><metadata
     id="metadata4155"><rdf:RDF><cc:Work
         rdf:about=""><dc:format>image/svg+xml</dc:format><dc:type
           rdf:resource="http://purl.org/dc/dcmitype/StillImage" /><dc:title /></cc:Work></rdf:RDF></metadata><defs
     id="defs4153" /><sodipodi:namedview
     pagecolor="#ffffff"
     bordercolor="#666666"
     borderopacity="1"
     objecttolerance="10"
     gridtolerance="10"
     guidetolerance="10"
     inkscape:pageopacity="0"
     inkscape:pageshadow="2"
     inkscape:window-width="2560"
     inkscape:window-height="1027"
     id="namedview4151"
     showgrid="false"
     fit-margin-top="0"
     fit-margin-left="0"
     fit-margin-right="0"
     fit-margin-bottom="0"
     inkscape:zoom="2"
     inkscape:cx="-283.78265"
     inkscape:cy="127.22775"
     inkscape:window-x="1272"
     inkscape:window-y="-8"
     inkscape:window-maximized="1"
     inkscape:current-layer="Layer_1"
     showguides="true"
     inkscape:guide-bbox="true"
     inkscape:snap-intersection-paths="true"
     inkscape:snap-smooth-nodes="true"
     inkscape:object-paths="false" /><path
     style="display:inline;opacity:1;fill:#ffffff;fill-opacity:1;stroke:none;stroke-width:16.19137001;stroke-miterlimit:4;stroke-dasharray:none;stroke-opacity:1"
     d="m 54,0.001 v 32 h 74 V 135.9815 L 182,105.083 V 10e-4 Z m -54,40 v 120 h 120 v -120 z m 59.1523,25.707 c 0.5521,-0.011 1.1044,-0.011 1.6563,0.012 5.8034,-0.1255 11.5296,1.3467 16.5527,4.2558 4.7275,2.815 8.535,6.9434 10.959,11.8828 2.6383,5.4418 3.9533,11.4301 3.8379,17.4766 0.1296,6.3213 -1.2236,12.5852 -3.9512,18.289 -2.4785,5.1142 -6.4012,9.3898 -11.2832,12.2989 -5.2187,2.9999 -11.1599,4.5117 -17.1777,4.3711 -5.9286,0.1402 -11.7821,-1.3479 -16.9238,-4.3028 -4.7656,-2.8201 -8.6183,-6.9529 -11.0977,-11.9043 -2.6564,-5.364 -3.9879,-11.2866 -3.8828,-17.2714 -0.1164,-6.2675 1.1876,-12.4802 3.8144,-18.1719 2.4291,-5.1753 6.3495,-9.5064 11.2579,-12.4375 4.951,-2.834 10.5346,-4.3786 16.2382,-4.4922 z m 1.1485,11.2891 c -3.6083,-0.092 -7.1532,0.96 -10.127,3.0059 -2.8966,2.081 -5.1415,4.943 -6.4726,8.2519 -2.9436,7.5821 -2.9604,15.9883 -0.047,23.582 1.2957,3.2721 3.4918,6.1102 6.334,8.1856 2.8957,2.0255 6.3637,3.0706 9.8965,2.9824 3.7617,0.1463 7.4692,-0.9334 10.5644,-3.0762 2.8083,-2.0749 4.9466,-4.9277 6.1504,-8.205 1.3517,-3.6548 2.0184,-7.5274 1.9668,-11.4239 C 78.6083,96.37 77.9819,92.4615 76.7147,88.7412 75.5966,85.3916 73.5331,82.4368 70.7733,80.2334 67.7579,77.9835 64.0597,76.8407 60.3007,76.9971 Z M 200,104.001 128,145.1983 V 168.001 H 38 v 31.998 h 162 z"
     id="rect7383"
     inkscape:connector-curvature="0"
     sodipodi:nodetypes="ccccccccccccccccccccccccccccccccccccccccccccccc" /></svg>