<?xml version="1.0" encoding="UTF-8" standalone="no"?>
<svg
   xmlns:dc="http://purl.org/dc/elements/1.1/"
   xmlns:cc="http://creativecommons.org/ns#"
   xmlns:rdf="http://www.w3.org/1999/02/22-rdf-syntax-ns#"
   xmlns:svg="http://www.w3.org/2000/svg"
   xmlns="http://www.w3.org/2000/svg"
   xmlns:sodipodi="http://sodipodi.sourceforge.net/DTD/sodipodi-0.dtd"
   xmlns:inkscape="http://www.inkscape.org/namespaces/inkscape"
   height="200"
   width="200"
   viewBox="0 0 200 200"
   version="1.1"
   id="svg5869"
   sodipodi:docname="logo-app-ehb-stuvo-money.svg"
   inkscape:version="0.92.4 (5da689c313, 2019-01-14)">
  <metadata
     id="metadata5875">
    <rdf:RDF>
      <cc:Work
         rdf:about="">
        <dc:format>image/svg+xml</dc:format>
        <dc:type
           rdf:resource="http://purl.org/dc/dcmitype/StillImage" />
        <dc:title></dc:title>
      </cc:Work>
    </rdf:RDF>
  </metadata>
  <defs
     id="defs5873" />
  <sodipodi:namedview
     pagecolor="#ffffff"
     bordercolor="#666666"
     borderopacity="1"
     objecttolerance="10"
     gridtolerance="10"
     guidetolerance="10"
     inkscape:pageopacity="0"
     inkscape:pageshadow="2"
     inkscape:window-width="1471"
     inkscape:window-height="798"
     id="namedview5871"
     showgrid="false"
     inkscape:snap-bbox="false"
     inkscape:snap-intersection-paths="true"
     inkscape:snap-smooth-nodes="true"
     showguides="true"
     inkscape:guide-bbox="true"
     inkscape:zoom="2"
     inkscape:cx="-32.205461"
     inkscape:cy="73.618665"
     inkscape:window-x="2163"
     inkscape:window-y="125"
     inkscape:window-maximized="0"
     inkscape:current-layer="svg5869"
     inkscape:snap-global="true" />
  <path
     style="display:inline;opacity:1;fill:#ffffff;fill-opacity:1;stroke:none;stroke-width:17.54568672;stroke-miterlimit:4;stroke-dasharray:none;stroke-opacity:1"
     d="M 16,8 V 32 H 144 V 8 Z M 0,40 V 64 H 128 V 40 Z M 8,72 V 96 H 88.1699 C 100.1881,81.8515 117.4682,73.2316 136,72.1406 V 72 Z m 132,8 c -33.1371,0 -60,26.8629 -60,60 0,33.1371 26.8629,60 60,60 33.1371,0 60,-26.8629 60,-60 0,-33.1371 -26.8629,-60 -60,-60 z m -10.6465,16 h 7.7422 v 7.4531 c 0.9555,-0.068 1.9245,-0.1054 2.9043,-0.1054 0.9804,0 1.9481,0.038 2.9043,0.1054 V 96 h 7.7422 v 8.7988 c 11.2027,3.167 19.1621,11.1804 19.1621,20.5703 0,1.1639 -0.122,2.2969 -0.3477,3.3946 h -13.3164 c 0.2257,-1.0978 0.3496,-2.2307 0.3496,-3.3946 0,-5.0826 -7.3852,-9.2031 -16.4941,-9.2031 -9.1089,0 -16.4922,4.1205 -16.4922,9.2031 0,0.064 0,0.1307 0.01,0.1954 0,0.055 0,0.11 0.012,0.166 0.2045,2.3997 2.4055,4.4579 5.3086,5.7402 3.1479,1.3905 7.8809,2.3037 13.1543,2.793 1.6681,0.1549 3.4649,0.098 6.5843,0.495 3.1194,0.397 7.4926,1.4804 11.6074,4.2999 0.043,0.03 0.082,0.06 0.125,0.09 5.2241,3.4467 9.2412,8.6647 9.4903,14.8692 0.01,0.2018 0.012,0.4053 0.012,0.6094 v 0 c 0,9.3903 -7.9587,17.4036 -19.1621,20.5703 V 184 h -7.7422 v -7.4531 c -0.9555,0.068 -1.9245,0.1054 -2.9043,0.1054 -0.9804,0 -1.9481,-0.038 -2.9043,-0.1054 V 184 h -7.7422 v -8.7988 c -11.2027,-3.167 -19.1621,-11.1804 -19.1621,-20.5703 0,-1.1638 0.122,-2.2968 0.3477,-3.3946 h 13.3164 c -0.2257,1.0978 -0.3496,2.2308 -0.3496,3.3946 0,5.0826 7.3852,9.2031 16.4941,9.2031 9.1089,0 16.4922,-4.1205 16.4922,-9.2031 0,-0.064 0,-0.1307 -0.01,-0.1954 0,-0.055 0,-0.11 -0.012,-0.166 -0.2045,-2.3998 -2.4055,-4.4598 -5.3086,-5.7422 -3.1479,-1.3905 -7.8808,-2.3017 -13.1543,-2.791 -5.2735,-0.4893 -11.6908,-0.5604 -18.1934,-4.7988 -5.458,-3.5574 -9.6269,-9.044 -9.6269,-15.5684 0,-9.3902 7.9586,-17.4036 19.1621,-20.5703 z M 0,104 v 24 h 73.127 c 1.5381,-8.5178 4.6882,-16.6636 9.2812,-24 z m 16,32 v 24 H 75.0801 C 73.0616,153.5243 72.0235,146.783 72,140 c 0.028,-1.335 0.095,-2.6689 0.2012,-4 z M 0,168 v 24 H 96.1836 C 88.4505,185.446 82.2804,177.246 78.125,168 Z"
     id="rect8479"
     inkscape:connector-curvature="0"
     sodipodi:nodetypes="ccccccccccccccccssssscccsccccsccsssccccccccccccccsccccsccsssccczcscccccccccccccccccc" />
</svg>
