<?xml version="1.0" encoding="UTF-8" standalone="no"?>
<!-- Created with Inkscape (http://www.inkscape.org/) -->

<svg
   xmlns:dc="http://purl.org/dc/elements/1.1/"
   xmlns:cc="http://creativecommons.org/ns#"
   xmlns:rdf="http://www.w3.org/1999/02/22-rdf-syntax-ns#"
   xmlns:svg="http://www.w3.org/2000/svg"
   xmlns="http://www.w3.org/2000/svg"
   xmlns:sodipodi="http://sodipodi.sourceforge.net/DTD/sodipodi-0.dtd"
   xmlns:inkscape="http://www.inkscape.org/namespaces/inkscape"
   width="200"
   height="200"
   viewBox="0 0 187.5 187.5"
   id="svg2"
   version="1.1"
   inkscape:version="0.92.4 (5da689c313, 2019-01-14)"
   sodipodi:docname="logo-app-gl-castor.svg">
  <defs
     id="defs4" />
  <sodipodi:namedview
     id="base"
     pagecolor="#ffffff"
     bordercolor="#666666"
     borderopacity="1.0"
     inkscape:pageopacity="0.0"
     inkscape:pageshadow="2"
     inkscape:zoom="1.4142136"
     inkscape:cx="-155.5707"
     inkscape:cy="52.465931"
     inkscape:document-units="px"
     inkscape:current-layer="layer1"
     showgrid="false"
     fit-margin-top="0"
     fit-margin-left="0"
     fit-margin-right="0"
     fit-margin-bottom="0"
     inkscape:window-width="1280"
     inkscape:window-height="971"
     inkscape:window-x="-8"
     inkscape:window-y="-8"
     inkscape:window-maximized="1"
     units="px" />
  <metadata
     id="metadata7">
    <rdf:RDF>
      <cc:Work
         rdf:about="">
        <dc:format>image/svg+xml</dc:format>
        <dc:type
           rdf:resource="http://purl.org/dc/dcmitype/StillImage" />
        <dc:title></dc:title>
      </cc:Work>
    </rdf:RDF>
  </metadata>
  <g
     inkscape:label="Layer 1"
     inkscape:groupmode="layer"
     id="layer1"
     transform="translate(-327.69075,-396.78376)">
    <path
       style="display:inline;opacity:1;fill:#ffffff;stroke-width:0.79857343"
       d="m 437.44966,405.82004 c -0.49879,0.009 -1.0276,0.0291 -1.59485,0.0694 -8.64588,0.62287 -17.76301,6.76012 -15.71777,10.58165 0.68566,1.28119 3.09841,1.10691 5.02441,-0.3644 4.71342,-3.60066 6.72692,-4.93463 8.41737,-5.5755 2.86646,-1.08685 7.84095,-1.71497 11.32323,-1.42828 1.69481,0.13959 3.07984,0.16406 3.07984,0.0534 0,-0.43472 -4.11827,-2.25703 -6.46546,-2.86012 -1.32622,-0.34088 -2.57032,-0.49088 -4.06677,-0.47606 z m 18.44604,9.71925 c -5.48858,0.0394 -11.1308,0.28172 -14.67224,0.70857 -26.19379,3.15665 -50.96993,11.90287 -70.87279,25.01953 -3.0069,1.98168 -5.46753,3.74447 -5.46753,3.91668 0,0.17213 2.16727,0.3615 4.81383,0.42291 l 4.81019,0.11353 -8.3899,11.08885 -8.38989,11.09071 v 2.02519 c 7.99767,-3.6135 16.86505,-5.6415 26.21155,-5.6415 35.20814,0 63.75,28.54181 63.75,63.75 0,12.17212 -3.41411,23.54437 -9.33289,33.219 6.21284,2.01919 12.76963,3.37444 19.76624,4.09969 6.68859,0.69346 27.8247,-0.74213 28.27697,-1.92075 0.096,-0.25088 -1.78564,-11.98866 -4.18213,-26.08341 -4.19364,-24.66403 -4.33219,-25.66528 -3.68957,-26.68022 0.36723,-0.58022 3.18499,-3.88978 6.26221,-7.35534 18.17596,-20.47003 26.45443,-33.32512 29.53491,-45.86428 1.48319,-6.03694 1.10254,-9.06234 -1.48315,-11.7975 -3.30786,-3.49894 -5.29617,-0.53747 -11.53016,17.16609 -7.9286,22.51641 -12.02989,30.53907 -19.02831,37.22541 -4.44423,4.24584 -9.49142,6.53887 -11.47706,5.21296 -0.62946,-0.42028 -1.35132,-1.90425 -1.35132,-2.77771 0,-1.55494 1.25565,-4.884 2.59095,-6.86822 0.76188,-1.13222 1.38428,-2.12784 1.38428,-2.21381 0,-0.0863 -0.76023,0.42375 -1.69007,1.13344 -3.60223,2.74968 -9.44306,4.6439 -11.79199,3.82509 -2.41757,-0.84281 -2.13996,-2.93888 1.15173,-8.70666 1.30802,-2.292 2.37648,-4.34606 2.37488,-4.56487 -0.002,-0.21853 -1.59635,-1.33753 -3.54492,-2.48653 -7.39712,-4.36182 -14.74784,-10.55775 -18.75,-15.80382 -1.74884,-2.29237 -5.52246,-8.51728 -5.52246,-9.11137 0,-0.15797 1.6921,1.27416 3.75916,3.18244 7.047,6.50568 13.82927,10.9934 19.682,13.02422 2.857,0.9915 4.18887,1.20825 8.36792,1.36237 9.706,0.35784 18.42953,-2.38416 25.01037,-7.86075 4.96559,-4.13231 10.97067,-15.88491 11.26283,-22.04409 l 0.10803,-2.27419 -3.57972,-1.48125 c -7.5685,-3.13125 -11.99072,-6.13997 -11.64734,-7.923 0.0681,-0.354 0.70941,-1.03847 1.4264,-1.52156 2.87213,-1.93575 10.66485,-1.5675 17.77587,0.83859 l 3.97705,1.34578 -1.59118,-1.40437 c -2.78812,-2.46216 -10.98648,-7.68338 -15.5072,-9.87675 -7.15022,-3.46894 -15.26317,-5.73816 -25.04883,-7.00557 -2.9329,-0.37987 -8.2681,-0.54328 -13.75672,-0.50353 z m -13.33008,5.592 c 3.92518,-0.0281 7.21294,0.86438 10.07813,2.74294 2.42901,1.59253 3.46703,2.97609 3.09997,4.13269 -0.21259,0.66919 -0.55648,0.79997 -1.9226,0.73425 -0.91466,-0.0441 -4.53868,-0.17831 -8.0548,-0.2985 -6.13432,-0.20935 -6.45955,-0.26288 -8.04383,-1.31288 -1.73392,-1.1489 -2.47278,-2.7239 -1.7981,-3.83784 0.80668,-1.33191 3.27931,-2.13516 6.64123,-2.16066 z m -58.62487,50.65247 c -31.06605,0 -56.25,25.18397 -56.25,56.25 0,31.06603 25.18395,56.25 56.25,56.25 31.06601,0 56.25,-25.18397 56.25,-56.25 0,-31.06603 -25.18399,-56.25 -56.25,-56.25 z m -11.25,15 h 22.5 v 30 h 30 v 22.5 h -30 v 30 h -22.5 v -30 h -30 v -22.5 h 30 z"
       id="path1354"
       inkscape:connector-curvature="0" />
  </g>
</svg>
