<?xml version="1.0" encoding="UTF-8" standalone="no"?>
<!-- Svg Vector Icons : http://www.onlinewebfonts.com/icon -->

<svg
   xmlns:dc="http://purl.org/dc/elements/1.1/"
   xmlns:cc="http://creativecommons.org/ns#"
   xmlns:rdf="http://www.w3.org/1999/02/22-rdf-syntax-ns#"
   xmlns:svg="http://www.w3.org/2000/svg"
   xmlns="http://www.w3.org/2000/svg"
   xmlns:sodipodi="http://sodipodi.sourceforge.net/DTD/sodipodi-0.dtd"
   xmlns:inkscape="http://www.inkscape.org/namespaces/inkscape"
   version="1.1"
   x="0px"
   y="0px"
   viewBox="0 0 200 200"
   enable-background="new 0 0 1000 1000"
   xml:space="preserve"
   id="svg3158"
   inkscape:version="0.92.4 (5da689c313, 2019-01-14)"
   width="100%"
   height="100%"
   sodipodi:docname="logo-app-ehb-mobility-abroad.svg"><defs
   id="defs3200" /><sodipodi:namedview
   pagecolor="#ffffff"
   bordercolor="#666666"
   borderopacity="1"
   objecttolerance="10"
   gridtolerance="10"
   guidetolerance="10"
   inkscape:pageopacity="0"
   inkscape:pageshadow="2"
   inkscape:window-width="2560"
   inkscape:window-height="1027"
   id="namedview3198"
   showgrid="false"
   inkscape:zoom="1.888"
   inkscape:cx="66.490819"
   inkscape:cy="170.50583"
   inkscape:window-x="-8"
   inkscape:window-y="-8"
   inkscape:window-maximized="1"
   inkscape:current-layer="svg3158" />
<metadata
   id="metadata3160"> Svg Vector Icons : http://www.onlinewebfonts.com/icon <rdf:RDF><cc:Work
     rdf:about=""><dc:format>image/svg+xml</dc:format><dc:type
       rdf:resource="http://purl.org/dc/dcmitype/StillImage" /></cc:Work></rdf:RDF></metadata>

<path
   style="display:inline;opacity:1;fill:#ffffff;fill-opacity:1;stroke:none;stroke-width:8.76608086;stroke-miterlimit:4;stroke-dasharray:none;stroke-opacity:1"
   d="m 108.86643,4.2715025 c -50.810202,0 -92.000032,41.1898005 -92.000032,91.9999995 0.0338,5.447898 0.55147,10.881998 1.54687,16.238298 l 6.33008,-3.9824 9.67969,2.5488 c -1.0021,-4.8721 -1.52348,-9.8308 -1.55664,-14.804698 0,-10.1586 2.0085,-19.8433 5.625,-28.7012 2.12821,10.4157 7.55266,18.5566 10.41015,21.414101 11.79708,11.796997 28.91978,8.0814 31.14458,17.939497 1.5103,6.7149 -5.0384,9.0216 -9.2032,12.7343 -0.2702,0.2409 -0.5267,0.5121 -0.7695,0.8086 l 10.7363,2.8281 c 10.631,-4.1489 20.326102,-7.4483 28.763702,-8.871 -0.5537,-0.3976 -1.0867,-0.7603 -1.5606,-1.0372 -4.7982,-2.8039 -10.576802,-4.4411 -13.781202,-6.2168 -8.7763,-4.8572 -6.6539,-16.451198 -8.5312,-21.982398 -2.6738,-7.8375 -11.736,2.1843 -16.5528,-2.3672 -7.9599,-7.5313 1.4283,-18.123999 8.082,-17.9199 14.083,0.449 18.3901,14.1637 23.574302,13.6738 5.0617,-0.449 8.3673,-7.5101 9.2246,-11.265599 1.8777,-8.164001 -3.1625,-4.532001 -5.2031,-8.777301 -3.1432,-6.5312 13.6748,-12.7349 15.9199,-17.1231 4.2861,-8.4294 -21.329002,-10.756 -22.125002,-19.7773 -0.02,-0.2263 -0.011,-0.4443 0.023,-0.6563 3.345602,-0.45 6.753802,-0.7031 10.222702,-0.7031 13.9653,0 27.0399,3.7825 38.2851,10.3555 2.7889,4.6804 4.5059,10.1873 5.0039,16.0254 0.7552,9.0825 -9.083,17.2478 -19.084,20.248 -7.0415,2.1227 -12.4706,11.471001 -9.205,19.084001 2.2247,5.224999 17.8392,4.2449 16.4922,15.429697 -1.0818,9.1845 10.9198,11.6131 15.1855,11.1641 4.2249,-0.4899 10.7967,7.0001 7.4902,10.3066 -3.286,3.3064 -9.4701,3.4295 -8.5312,11.9609 0.2653,2.4697 7.7754,2.1624 7.7754,5.877 0,3.3969 -3.1072,7.2041 -1.6289,11.082 -10.9756,10.2293 -25.0286,17.2955 -40.8184,19.5977 l 1.8516,15.8613 c 45.3696,-6.3826 79.1285,-45.1759 79.1836,-90.992197 0,-50.8102 -41.1898,-92.0000005 -92,-92.0000005 z M 26.063658,117.1485 l -13.48828,8.4863 33.85547,21.9668 c -6.91903,3.5309 -13.47003,7.1238 -19.2461,10.5527 l -18.6953098,-9.8886 -9.35547005,3.7929 10.27344005,18.2383 c -3.08194,2.6533 -4.83789,4.8579 -4.83789,6.3887 0,4.5514 5.6134898,5.6953 10.5527298,5.6953 8.81715,0 125.359382,-26.6773 125.359382,-50.8633 -0.019,-4.8095 -3.2989,-7.1972 -8.6523,-8.4844 l -22.4668,9.3067 0.3164,-4.461 14.5254,-6.0156 c -2.0727,-0.1415 -4.2049,-0.2031 -6.3379,-0.2031 -8.0416,0 -21.613802,4.0617 -36.615302,10.0215 z m 84.826172,46.6543 c -7.8641,3.2447 -16.360202,6.2623 -24.955102,9.0351 -1.1539,0.3723 -2.3082,0.7309 -3.4629,1.0938 l 19.181702,21.7968 12.2949,-5.7324 z"
   id="path2090"
   inkscape:connector-curvature="0" /></svg>