<?xml version="1.0" encoding="UTF-8" standalone="no"?>
<svg
   xmlns:dc="http://purl.org/dc/elements/1.1/"
   xmlns:cc="http://creativecommons.org/ns#"
   xmlns:rdf="http://www.w3.org/1999/02/22-rdf-syntax-ns#"
   xmlns:svg="http://www.w3.org/2000/svg"
   xmlns="http://www.w3.org/2000/svg"
   xmlns:sodipodi="http://sodipodi.sourceforge.net/DTD/sodipodi-0.dtd"
   xmlns:inkscape="http://www.inkscape.org/namespaces/inkscape"
   height="200"
   width="200"
   viewBox="0 0 200 200"
   version="1.1"
   id="svg6583"
   sodipodi:docname="logo-action-help.svg"
   inkscape:version="0.92.4 (5da689c313, 2019-01-14)">
  <metadata
     id="metadata6589">
    <rdf:RDF>
      <cc:Work
         rdf:about="">
        <dc:format>image/svg+xml</dc:format>
        <dc:type
           rdf:resource="http://purl.org/dc/dcmitype/StillImage" />
        <dc:title></dc:title>
      </cc:Work>
    </rdf:RDF>
  </metadata>
  <defs
     id="defs6587">
    <inkscape:path-effect
       effect="powerstroke"
       id="path-effect7222"
       is_visible="true"
       offset_points="0,6.8749188 | 0.53280806,7.5088338 | 1.1640019,9.7426701 | 2.1903215,7.1650796 | 2.9691199,8.3613207 | 3.5020585,6.26415"
       sort_points="true"
       interpolator_type="SpiroInterpolator"
       interpolator_beta="0.2"
       start_linecap_type="butt"
       linejoin_type="extrp_arc"
       miter_limit="4"
       end_linecap_type="butt" />
  </defs>
  <sodipodi:namedview
     pagecolor="#ffffff"
     bordercolor="#666666"
     borderopacity="1"
     objecttolerance="10"
     gridtolerance="10"
     guidetolerance="10"
     inkscape:pageopacity="0"
     inkscape:pageshadow="2"
     inkscape:window-width="1280"
     inkscape:window-height="971"
     id="namedview6585"
     showgrid="false"
     inkscape:zoom="3.337544"
     inkscape:cx="109.82344"
     inkscape:cy="87.994103"
     inkscape:window-x="-8"
     inkscape:window-y="-8"
     inkscape:window-maximized="1"
     inkscape:current-layer="svg6583"
     inkscape:snap-global="false" />
  <path
     style="display:inline;opacity:1;fill:#ffffff;stroke-width:6.25"
     d="M 100,-5.0000001e-7 C 100,-5.0000001e-7 67.500225,33.749997 15.000014,33.749997 c 0,0 -5.6253362,67.500073 12.499994,105.625003 C 40.000115,165.6251 64.374625,187.50001 100,200 135.62537,187.50001 159.99988,165.6251 172.49999,139.375 190.62532,101.25007 184.99998,33.749997 184.99998,33.749997 132.49977,33.749997 100,-5.0000001e-7 100,-5.0000001e-7 Z M 97.085945,47.999996 c 4.353785,0 8.403215,0.49149 12.148425,1.474609 3.74521,0.936302 6.9996,2.434273 9.76172,4.494142 2.80891,2.059869 4.9844,4.7053 6.52928,7.935549 1.59175,3.183432 2.38866,7.021361 2.38866,11.51562 0,2.855731 -0.32881,5.45416 -0.98434,7.79492 -0.65544,2.29395 -1.61491,4.471381 -2.8789,6.53125 -1.26402,2.059869 -2.83249,4.049329 -4.7051,5.968751 -1.8726,1.872609 -4.02459,3.81507 -6.45898,5.828131 -1.63854,1.357642 -3.09146,2.622592 -4.35545,3.792972 -1.2172,1.17038 -2.24719,2.34134 -3.08984,3.51172 -0.79585,1.12356 -1.40288,2.33956 -1.82423,3.65039 -0.42134,1.26401 -0.63284,2.71498 -0.63284,4.35351 0,1.12357 0.14098,2.27103 0.42191,3.44141 0.32768,1.17038 0.74869,2.15336 1.26365,2.94922 H 86.201175 c -0.46817,-1.2172 -0.84216,-2.57418 -1.12305,-4.07227 -0.23395,-1.5449 -0.3515,-2.99587 -0.3515,-4.35351 0,-2.1535 0.21166,-4.12142 0.63281,-5.90039 0.42134,-1.77898 1.05188,-3.43948 1.89456,-4.98438 0.84265,-1.59172 1.89612,-3.089685 3.16014,-4.494142 1.26403,-1.451271 2.7385,-2.880699 4.42383,-4.28516 1.77898,-1.49808 3.32394,-2.87856 4.63476,-4.14257 1.357635,-1.310831 2.505095,-2.597322 3.441405,-3.861331 0.9363,-1.310828 1.63929,-2.646271 2.10742,-4.003912 0.46817,-1.404457 0.70118,-2.949418 0.70118,-4.634759 0,-1.451278 -0.25663,-2.78476 -0.77148,-4.00196 -0.51499,-1.26401 -1.26493,-2.340979 -2.24806,-3.230468 -0.9363,-0.889489 -2.10531,-1.592451 -3.509735,-2.10742 -1.35765,-0.514972 -2.87913,-0.77148 -4.56446,-0.77148 -3.65159,0 -7.4445,0.771499 -11.37695,2.3164 -3.93248,1.498088 -7.6549,3.793009 -11.16601,6.882819 v -21.13672 c 3.60476,-2.153501 7.53861,-3.768961 11.79882,-4.845707 4.26017,-1.07675 8.66007,-1.615234 13.20117,-1.615234 z m -0.63284,80.826174 c 3.698415,0 6.764855,1.10047 9.199215,3.30078 2.43439,2.1535 3.65238,4.89292 3.65238,8.2168 0,3.3707 -1.19448,6.15515 -3.58204,8.35547 -2.4344,2.20031 -5.52431,3.30078 -9.269555,3.30078 -3.74521,0 -6.8586,-1.12396 -9.33982,-3.37109 -2.48122,-2.34076 -3.72072,-5.10173 -3.72072,-8.28516 0,-3.27707 1.2395,-6.01648 3.72072,-8.2168 2.48122,-2.20031 5.59461,-3.30078 9.33982,-3.30078 z"
     id="path2284"
     inkscape:connector-curvature="0" />
</svg>
