<?xml version="1.0" encoding="UTF-8" standalone="no"?>
<!-- Created with Inkscape (http://www.inkscape.org/) -->

<svg
   xmlns:dc="http://purl.org/dc/elements/1.1/"
   xmlns:cc="http://creativecommons.org/ns#"
   xmlns:rdf="http://www.w3.org/1999/02/22-rdf-syntax-ns#"
   xmlns:svg="http://www.w3.org/2000/svg"
   xmlns="http://www.w3.org/2000/svg"
   xmlns:sodipodi="http://sodipodi.sourceforge.net/DTD/sodipodi-0.dtd"
   xmlns:inkscape="http://www.inkscape.org/namespaces/inkscape"
   width="200"
   height="200"
   viewBox="0 0 52.916665 52.916668"
   version="1.1"
   id="svg1127"
   inkscape:version="0.92.4 (5da689c313, 2019-01-14)"
   sodipodi:docname="logo-app-ehb-instagram.svg">
  <defs
     id="defs1121" />
  <sodipodi:namedview
     id="base"
     pagecolor="#ffffff"
     bordercolor="#666666"
     borderopacity="1.0"
     inkscape:pageopacity="0.0"
     inkscape:pageshadow="2"
     inkscape:zoom="1.979899"
     inkscape:cx="138.36411"
     inkscape:cy="154.22624"
     inkscape:document-units="mm"
     inkscape:current-layer="layer1"
     showgrid="false"
     units="px" />
  <metadata
     id="metadata1124">
    <rdf:RDF>
      <cc:Work
         rdf:about="">
        <dc:format>image/svg+xml</dc:format>
        <dc:type
           rdf:resource="http://purl.org/dc/dcmitype/StillImage" />
        <dc:title></dc:title>
      </cc:Work>
    </rdf:RDF>
  </metadata>
  <g
     inkscape:label="Layer 1"
     inkscape:groupmode="layer"
     id="layer1"
     transform="translate(0,-244.08332)">
    <path
       inkscape:connector-curvature="0"
       style="display:inline;opacity:1;fill:#ffffff;fill-opacity:1;stroke:none;stroke-width:4.23333311;stroke-miterlimit:4;stroke-dasharray:none;stroke-opacity:1"
       d="m -1.6666667e-6,244.08332 v 16.93333 H 16.551958 a 13.758333,13.758333 0 0 1 9.90637,-4.23333 13.758333,13.758333 0 0 1 9.92291,4.23333 h 16.53543 v -16.93333 h -38.1 v 12.7 h -2.11667 v -12.7 h -2.11667 v 12.7 H 8.4666683 v -12.7 h -2.11667 v 12.7 h -2.11667 v -12.7 z M 40.216668,248.31665 h 8.46666 v 8.46667 h -8.46666 z m -13.75834,10.58334 a 11.641666,11.641666 0 0 0 -11.64166,11.64166 11.641666,11.641666 0 0 0 11.64166,11.64167 11.641666,11.641666 0 0 0 11.64167,-11.64167 11.641666,11.641666 0 0 0 -11.64167,-11.64166 z M -1.6666667e-6,263.13332 v 33.86667 H 52.916668 v -33.86667 h -14.86681 a 13.758333,13.758333 0 0 1 2.16681,7.40833 13.758333,13.758333 0 0 1 -13.75834,13.75834 13.758333,13.758333 0 0 1 -13.75833,-13.75834 13.758333,13.758333 0 0 1 2.18228,-7.40833 z m 26.4583296666667,0 a 7.4083333,7.4083333 0 0 1 7.40834,7.40833 7.4083333,7.4083333 0 0 1 -7.40834,7.40834 7.4083333,7.4083333 0 0 1 -7.40833,-7.40834 7.4083333,7.4083333 0 0 1 7.40833,-7.40833 z"
       id="rect1065" />
  </g>
</svg>
