<?xml version="1.0" encoding="UTF-8" standalone="no"?>
<svg
   xmlns:dc="http://purl.org/dc/elements/1.1/"
   xmlns:cc="http://creativecommons.org/ns#"
   xmlns:rdf="http://www.w3.org/1999/02/22-rdf-syntax-ns#"
   xmlns:svg="http://www.w3.org/2000/svg"
   xmlns="http://www.w3.org/2000/svg"
   xmlns:sodipodi="http://sodipodi.sourceforge.net/DTD/sodipodi-0.dtd"
   xmlns:inkscape="http://www.inkscape.org/namespaces/inkscape"
   height="200"
   width="200"
   viewBox="0 0 200 200"
   version="1.1"
   id="svg4621"
   sodipodi:docname="logo-app-ehb-jobs.svg"
   inkscape:version="0.92.4 (5da689c313, 2019-01-14)">
  <metadata
     id="metadata4627">
    <rdf:RDF>
      <cc:Work
         rdf:about="">
        <dc:format>image/svg+xml</dc:format>
        <dc:type
           rdf:resource="http://purl.org/dc/dcmitype/StillImage" />
        <dc:title />
      </cc:Work>
    </rdf:RDF>
  </metadata>
  <defs
     id="defs4625" />
  <sodipodi:namedview
     pagecolor="#ffffff"
     bordercolor="#666666"
     borderopacity="1"
     objecttolerance="10"
     gridtolerance="10"
     guidetolerance="10"
     inkscape:pageopacity="0"
     inkscape:pageshadow="2"
     inkscape:window-width="1495"
     inkscape:window-height="743"
     id="namedview4623"
     showgrid="false"
     inkscape:zoom="1.18"
     inkscape:cx="-232.14954"
     inkscape:cy="31.242807"
     inkscape:window-x="1384"
     inkscape:window-y="104"
     inkscape:window-maximized="0"
     inkscape:current-layer="svg4621"
     showguides="true"
     inkscape:guide-bbox="true"
     inkscape:snap-intersection-paths="true"
     inkscape:object-paths="false"
     inkscape:snap-smooth-nodes="true" />
  <path
     style="display:inline;opacity:1;fill:#ffffff;fill-opacity:1;stroke:none;stroke-width:18.12190819;stroke-miterlimit:4;stroke-dasharray:none;stroke-opacity:1"
     d="m 58.47266,3.00001 v 42 H 12 L 0,196.99999 H 200 L 188,45.00001 h -45.52734 v -42 z m 16,15.99998 h 52 v 26.00002 h -52 z m 25.52734,42 c 33.13709,0 60,26.86292 60,60.00001 0,33.13708 -26.86291,60 -60,60 -33.13708,0 -60,-26.86292 -60,-60 0,-33.13709 26.86292,-60.00001 60,-60.00001 z m 0,8.00002 c -28.7188,0 -51.99999,23.28117 -51.99999,51.99999 0,28.71881 23.28119,51.99999 51.99999,51.99999 28.7188,0 51.99999,-23.28118 52,-51.99999 -1e-5,-28.71882 -23.2812,-51.99999 -52,-51.99999 z m -10.64648,7.99997 h 7.74219 v 7.45323 c 0.95555,-0.0684 1.9245,-0.10545 2.90429,-0.10545 0.98046,0 1.94811,0.0378 2.9043,0.10545 v -7.45323 h 7.74218 v 8.79893 c 11.20277,3.16698 19.16211,11.18037 19.16211,20.57027 0,1.16372 -0.12197,2.29682 -0.34764,3.39451 h -13.31641 c 0.22571,-1.0978 0.34961,-2.23079 0.34961,-3.39451 0,-5.0826 -7.3853,-9.20308 -16.49414,-9.20308 -9.10884,0 -16.49219,4.12048 -16.49219,9.20308 0,0.0643 0.005,0.13077 0.008,0.1954 0.003,0.0556 0.004,0.10999 0.01,0.16593 0.20466,2.39969 2.40544,4.45787 5.30859,5.74019 3.14778,1.39049 7.88089,2.30381 13.1543,2.793 1.6681,0.15496 3.46617,0.0983 6.58563,0.49515 3.11945,0.39689 7.49269,1.48052 11.6076,4.30001 0.0427,0.0302 0.0825,0.0597 0.12499,0.0899 5.22407,3.4467 9.24113,8.66461 9.49024,14.86908 0.008,0.20183 0.0117,0.40532 0.0117,0.60941 v 0.004 c 0,9.39039 -7.95859,17.40359 -19.16211,20.5703 v 8.79882 h -7.74218 v -7.45311 c -0.95556,0.0684 -1.92451,0.10544 -2.9043,0.10544 -0.98046,0 -1.94811,-0.0378 -2.9043,-0.10544 v 7.45311 H 89.3538 v -8.79882 c -11.20277,-3.16701 -19.16211,-11.1804 -19.16211,-20.5703 0,-1.16368 0.12196,-2.29671 0.34764,-3.39451 h 13.31641 c -0.22575,1.0978 -0.34961,2.23083 -0.34961,3.39451 0,5.08259 7.3853,9.20311 16.49414,9.20311 9.10883,0 16.49219,-4.12052 16.49219,-9.20311 0,-0.0642 -0.005,-0.13077 -0.008,-0.1954 -0.003,-0.0556 -0.004,-0.10999 -0.01,-0.16592 -0.20463,-2.39981 -2.40545,-4.45981 -5.30859,-5.7422 -3.14778,-1.39053 -7.8809,-2.30166 -13.1543,-2.79099 -5.27341,-0.48934 -11.69076,-0.56051 -18.19336,-4.79891 -5.45794,-3.5574 -9.62695,-9.04411 -9.62695,-15.56833 0,-9.39039 7.95859,-17.40359 19.16211,-20.57027 z"
     id="rect8337"
     inkscape:connector-curvature="0"
     sodipodi:nodetypes="ccccccccccccccsssssssssscccsccccsccssscccczccccssccccsccccsccsssccczcsc" />
</svg>
