<?xml version="1.0" encoding="UTF-8" standalone="no"?>
<!-- Created with Inkscape (http://www.inkscape.org/) -->

<svg
   width="200"
   height="200"
   viewBox="0 0 52.916665 52.916667"
   version="1.1"
   id="svg17517"
   inkscape:version="1.2.1 (9c6d41e410, 2022-07-14)"
   sodipodi:docname="logo-app-ehb-language.svg"
   xmlns:inkscape="http://www.inkscape.org/namespaces/inkscape"
   xmlns:sodipodi="http://sodipodi.sourceforge.net/DTD/sodipodi-0.dtd"
   xmlns="http://www.w3.org/2000/svg"
   xmlns:svg="http://www.w3.org/2000/svg">
  <sodipodi:namedview
     id="namedview17519"
     pagecolor="#ffffff"
     bordercolor="#666666"
     borderopacity="1.0"
     inkscape:showpageshadow="2"
     inkscape:pageopacity="0.0"
     inkscape:pagecheckerboard="0"
     inkscape:deskcolor="#d1d1d1"
     inkscape:document-units="mm"
     showgrid="false"
     inkscape:zoom="2"
     inkscape:cx="70.25"
     inkscape:cy="81.25"
     inkscape:current-layer="layer1" />
  <defs
     id="defs17514" />
  <g
     inkscape:label="Layer 1"
     inkscape:groupmode="layer"
     id="layer1">
    <path
       id="path1747"
       style="display:inline;fill:#ffffff;fill-opacity:1;stroke:none;stroke-width:0.350517;stroke-miterlimit:4;stroke-dasharray:none"
       d="M 3.6701083,-1.6665709e-6 C 1.6430883,-1.6665709e-6 4.8333333e-5,1.6430683 4.8333333e-5,3.6700583 c 0,1.88484 1.420899966667,3.4377 3.249929966667,3.64629 l 0.14314,1.49862 C 1.4391083,9.3382083 4.8333333e-5,11.120988 4.8333333e-5,13.240018 c 0,1.63835 0.860559996667,3.07536 2.153869966667,3.88503 l -0.64647,1.5689 c -0.84481997,0.0741 -1.507429966667,0.78285 -1.507399966667,1.64693 0,0.91341 0.740229996667,1.65417 1.653639966667,1.65416 0.91341,0 1.65417,-0.74076 1.65416,-1.65416 0,-0.40564 -0.14623,-0.77681 -0.3886,-1.06454 l 0.64647,-1.56889 c 0.32649,0.0739 0.66612,0.11317 1.01492,0.11317 2.52989,0 4.58112,-2.05068 4.58112,-4.5806 0,-2.41796 -1.8738,-4.3982197 -4.24832,-4.5687097 l -0.14263,-1.49914 c 1.05314,-0.33068 1.90171,-1.12285 2.30839,-2.13992 l 1.42679,0.24598 c 0.0103,2.41099 1.9677597,4.36199 4.3811197,4.36201 2.41981,0 4.38165,-1.96134 4.38165,-4.38113 0,-0.42133 -0.0595,-0.82878 -0.17053,-1.2144 l 1.22473,-0.60048 c 0.34451,0.2994 0.79448,0.4806 1.28674,0.4806 1.08373,0 1.96216,-0.87894 1.96216,-1.96268 0,-1.08370997 -0.87842,-1.9621499665709 -1.96216,-1.9621499665709 -1.08373,0 -1.96215,0.8784299965709 -1.96215,1.9621499665709 0,0.037 6.6e-4,0.0741 0.003,0.11059 l -1.22577,0.601 c -0.79715,-1.08878 -2.08442,-1.79626997 -3.53725,-1.79626997 -1.89839,10e-6 -3.5148297,1.20718997 -4.1232597,2.89593997 l -1.42679,-0.24598 c -0.0751,-1.96076 -1.68782,-3.527449966571 -3.66696,-3.5274299665709 z m 24.1483897,0 C 27.719598,0.02549833 27.626638,0.05729833 27.539968,0.09509833 c -0.0907,0.0337 -0.17738,0.0713 -0.25994,0.11317 -0.0785,0.0459 -0.15288,0.0958 -0.22324,0.14986 -0.0704,0.0541 -0.13675,0.11195 -0.19895,0.17415 -0.2372,0.23717 -0.3837,0.51837997 -0.43977,0.84335997 -0.0561,0.32497 0.006,0.65464 0.18449,0.98908 0.0331,0.0565 0.066,0.11304 0.0992,0.1695 0.0329,0.0485 0.0678,0.0993 0.1049,0.15193 0.0412,0.0485 0.0823,0.0973 0.12299,0.14625 0.0366,0.0449 0.0772,0.0895 0.12195,0.13435 0.21594,0.21594 0.46833,0.3831 0.75758,0.50127 0.28907,0.11022 0.60244,0.15144 0.94,0.1235 0.0717,0.002 0.16509,-0.007 0.28008,-0.0238 0.11482,-0.0251 0.23755,-0.0457 0.36845,-0.0625 0.18239,-0.0276 0.36548,-0.0355 0.54881,-0.0232 0.18332,0.0122 0.33402,0.0777 0.45217,0.19585 l 0.0243,0.0243 0.0186,0.0181 c 0.13516,0.1663 0.1909,0.3427 0.16743,0.52916 -0.0235,0.18647 -0.10497,0.34992 -0.24495,0.4899 -0.0272,0.0272 -0.0586,0.0543 -0.094,0.0811 -0.0313,0.0231 -0.0649,0.044 -0.10025,0.063 -0.0941,0.0614 -0.19806,0.10891 -0.31264,0.14211 -0.11868,0.0291 -0.24367,0.0401 -0.37517,0.0331 l 0.91054,0.91054 0.007,0.006 c 0.21736,-0.0626 0.40647,-0.14203 0.56741,-0.23772 0.16094,-0.0957 0.29987,-0.20168 0.41651,-0.31832 0.25271,-0.25274 0.40546,-0.53593 0.45786,-0.84905 0.0483,-0.31719 0.0211,-0.6201 -0.0811,-0.90898 -0.0171,-0.0482 -0.0338,-0.0922 -0.0506,-0.1323 -0.0209,-0.0444 -0.04,-0.087 -0.0568,-0.12712 -0.0587,-0.1287 -0.12541,-0.24568 -0.19947,-0.35088 -0.0779,-0.10949 -0.16146,-0.20486 -0.25115,-0.28629 -0.20371,-0.20371 -0.43799,-0.35225 -0.7028,-0.44597 -0.26499,-0.10167 -0.54645,-0.1423 -0.84439,-0.12144 -0.0676,0.002 -0.13514,0.009 -0.20258,0.0191 -0.0715,0.006 -0.14082,0.0149 -0.20825,0.0253 -0.0116,0.004 -0.0235,0.008 -0.0357,0.0109 -0.0159,-3e-4 -0.0321,-6.6e-4 -0.0481,-10e-4 -0.17462,0.0198 -0.34528,0.0356 -0.51211,0.0476 -0.17093,0.008 -0.33611,-0.006 -0.49609,-0.0413 -0.044,-0.013 -0.0882,-0.0258 -0.1323,-0.0388 -0.0441,-0.0212 -0.0842,-0.046 -0.12092,-0.0744 -0.0199,-0.0127 -0.0384,-0.0229 -0.0548,-0.031 l -0.0486,-0.0491 c -0.11815,-0.11816 -0.18347,-0.261 -0.19534,-0.42839 -0.0119,-0.1674 0.0505,-0.31919 0.18655,-0.45527 0.0857,-0.0776 0.20136,-0.14424 0.34727,-0.20050997 0.14573,-0.0642 0.32611,-0.10567 0.54053,-0.12454 z M 38.217348,1.4696783 1.4697183,38.217308 l 14.6993597,14.69936 11.86905,-11.86905 -1.4702,-1.46967 -2.06912,2.0686 -2.93987,-2.93987 17.1483,-17.14831 2.93988,2.93988 -9.3307,9.33069 1.46968,1.47071 19.13061,-19.13061 z m -35.0242197,0.1602 h 0.971 l 1.15704,4.08088 h -0.77308 l -0.22583,-0.88056 h -1.28674 l -0.24288,0.88056 h -0.7736 z m 0.49145,0.78444 -0.48008,1.77251 h 0.94826 l -0.45682,-1.77251 z m 9.2764297,0.24288 c 0.48618,0 0.87136,0.10999 1.15652,0.3297 0.28517,0.21502 0.48876,0.54957 0.6103,1.00304 l -0.87643,0.21032 c -0.0702,-0.21506 -0.18218,-0.39049 -0.33642,-0.52607 -0.14965,-0.1355 -0.344,-0.20357 -0.58239,-0.2036 -0.32254,0 -0.57729,0.14988 -0.76429,0.44907 -0.18226,0.29455 -0.27337,0.74106 -0.27337,1.33945 -0.014,1.19206 0.34152,1.78801 1.06608,1.78801 0.10748,0 0.20521,-0.0118 0.29404,-0.0351 0.0935,-0.0233 0.17788,-0.0632 0.2527,-0.11938 0.0795,-0.0562 0.15421,-0.13072 0.22427,-0.22427 0.0748,-0.0982 0.14743,-0.22197 0.21756,-0.37156 l 0.89762,0.23823 c -0.14959,0.43942 -0.38593,0.77142 -0.70848,0.99581 -0.31789,0.21974 -0.71023,0.3297 -1.17771,0.32969 -0.64979,10e-6 -1.15265,-0.22453 -1.50792,-0.67334 -0.35063,-0.45343 -0.52607,-1.09593 -0.52606,-1.92805 0,-0.8321 0.17544,-1.47255 0.52606,-1.92133 0.3553,-0.45344 0.85813,-0.68059 1.50792,-0.68058 z m 12.25352,0.4253 c -0.10346,7e-5 -0.20805,0.007 -0.3142,0.0191 -0.42478,0.0418 -0.83357,0.25893 -1.22628,0.65164 l -0.216,0.21601 -0.31471,0.31471 -0.20981,0.2098 c -0.066,0.066 -0.12842,0.12466 -0.18707,0.17467 l 4.61987,4.62039 0.92191,-0.92139 c 0.45879,-0.4588 0.69797,-0.93489 0.7183,-1.42782 0.0162,-0.49697 -0.0869,-0.92308 -0.31005,-1.27848 -0.17798,-0.29463 -0.35526,-0.55714 -0.53176,-0.78806 -0.18057,-0.235 -0.36075,-0.44241 -0.54001,-0.62167 -0.24446,-0.24446 -0.49386,-0.44708 -0.74828,-0.60823 -0.25444,-0.16113 -0.50984,-0.29279 -0.76688,-0.39429 -0.2861,-0.11117 -0.58467,-0.16662 -0.89503,-0.1664 z m -0.06,1.23403 c 0.12796,-0.003 0.25821,0.0212 0.39068,0.0708 0.38534,0.14431 0.74461,0.36751 1.07797,0.66973 l 0.0672,0.0672 0.0672,0.0672 0.12195,0.12196 c 0.0408,0.0408 0.0797,0.0838 0.11627,0.12868 0.31428,0.3376 0.55529,0.69927 0.72347,1.0852 0.1641,0.38182 0.0817,0.75385 -0.24804,1.11621 l -3.02514,-3.02514 c 0.22782,-0.19573 0.46421,-0.29664 0.70848,-0.30179 z m -3.09697,1.03973 -0.82785,0.82838 2.84168,2.84168 -3.85092,-1.83296 -0.87488,0.87488 4.62038,4.6203897 0.87489,-0.87488 -2.74402,-2.7440197 3.79977,1.6882697 0.78134,-0.7813497 z m 14.69006,0.52297 2.93988,2.93987 -3.91966,3.9196597 -2.93987,-2.9393597 z m -18.77818,3.56567 -0.92139,0.9213897 3.61115,5.62912 0.87488,-0.87489 -0.58963,-0.95084 0.87489,-0.87488 0.90433,0.63613 0.92139,-0.92139 z M 2.6654683,10.626228 h 1.94045 c 0.26066,0 0.49763,0.024 0.71003,0.0723 0.21239,0.0435 0.39297,0.1157 0.5426,0.21704 0.15452,0.10134 0.27536,0.23432 0.36225,0.39843 0.0917,0.16411 0.1447,0.36206 0.15917,0.59376 1e-5,0.27514 -0.06021,0.514 -0.18087,0.71675 -0.1207,0.20272 -0.32583,0.35978 -0.61547,0.47078 0.16897,0.0676 0.31151,0.14223 0.42737,0.22427 0.11582,0.0772 0.20982,0.16865 0.28215,0.27492 0.0724,0.10137 0.123,0.2247 0.15193,0.36949 0.0338,0.14483 0.05064,0.31629 0.05064,0.51418 0,0.20275 -0.0361,0.38865 -0.10852,0.55759 -0.0724,0.16897 -0.18798,0.31341 -0.34726,0.43408 -0.15447,0.12067 -0.3524,0.2151 -0.59376,0.28267 -0.23652,0.0675 -0.52167,0.10128 -0.85473,0.10128 h -1.92598 z m 15.9514797,0.4811 2.39055,1.6552 -0.64182,0.64182 z m 12.74134,0.16175 2.93935,2.93987 -3.91965,3.91966 -2.93988,-2.93987 z m -27.6933997,0.16795 v 1.27434 h 0.99942 c 0.24135,0 0.41951,-0.0602 0.53537,-0.18087 0.12068,-0.12069 0.18137,-0.27287 0.18138,-0.4563 -1e-5,-0.18342 -0.06069,-0.33562 -0.18138,-0.4563 -0.11614,-0.12038 -0.29402,-0.18087 -0.53537,-0.18087 z m 11.3181697,0.99374 -0.87488,0.87488 4.62039,4.62039 1.8836,-1.88361 -0.86764,-0.86816 -1.00873,1.00924 z m 23.4797,0.55345 2.93988,2.93936 -3.91966,3.91965 -2.93987,-2.94039 z m -34.7978697,0.53795 v 1.52084 h 0.99942 c 0.28962,0 0.4996,-0.0631 0.62994,-0.18862 0.13487,-0.13063 0.20256,-0.32107 0.20257,-0.57206 0,-0.251 -0.0674,-0.4388 -0.20257,-0.5643 -0.13034,-0.13034 -0.34032,-0.19585 -0.62994,-0.19586 z m 9.9606297,1.10588 c -0.0314,-4.4e-4 -0.0633,-2.1e-4 -0.0951,10e-4 -0.50472,0.0163 -0.95534,0.21883 -1.35238,0.6072 l -1.10225,1.10226 4.61987,4.62039 0.92139,-0.92139 -2.16318,-2.1637 2.94504,1.38183 0.91571,-0.9157 -2.89026,-1.32654 c 0.0179,-0.0911 0.0302,-0.17687 0.0362,-0.25631 0.0103,-0.0833 0.0144,-0.16036 0.0124,-0.23203 0.003,-0.36994 -0.0652,-0.65609 -0.20515,-0.85835 -0.14005,-0.20218 -0.25878,-0.35231 -0.35657,-0.4501 -0.38578,-0.38577 -0.81437,-0.582 -1.28571,-0.58859 z m 31.9412,0.0708 2.94039,2.93988 -3.92017,3.92017 -2.93987,-2.94039 z m -32.03835,1.09503 c 0.15949,0.003 0.32452,0.0951 0.49558,0.2744 l 0.0186,0.0181 0.0119,0.0124 0.0186,0.0181 c 0.004,0.003 0.008,0.008 0.0119,0.0124 l 0.006,0.006 0.0181,0.006 0.0186,0.0181 0.0243,0.0248 c 0.0286,0.0285 0.0633,0.071 0.10439,0.12764 0.037,0.0526 0.0703,0.11309 0.0997,0.18138 0.0385,0.11631 0.046,0.25157 0.0217,0.40618 -0.0243,0.1546 -0.12963,0.32547 -0.31626,0.51211 -0.008,0.008 -0.0155,0.0155 -0.0233,0.0233 l -0.0176,0.0176 -0.0238,0.0233 c -0.004,0.004 -0.0116,0.008 -0.0238,0.0114 l -1.2454,-1.24592 0.0114,-0.0114 c 0.003,-0.0121 0.0105,-0.024 0.0222,-0.0357 0.0117,-0.0116 0.0253,-0.0252 0.0408,-0.0408 0.0151,-0.0238 0.0345,-0.0475 0.0579,-0.0708 0.0311,-0.0311 0.0684,-0.0636 0.11162,-0.0982 0.043,-0.0348 0.09,-0.0658 0.14108,-0.0925 0.11777,-0.0691 0.25623,-0.10167 0.41548,-0.0977 z m 12.44007,0.86455 2.93987,2.93987 -3.91966,3.91965 -2.93987,-2.93935 z m -15.4001,0.18758 -1.7905897,1.79059 4.6198797,4.62039 1.79059,-1.79059 -0.86765,-0.86816 -0.8692,0.86919 -1.00821,-1.0082 0.73484,-0.73484 -0.91674,-0.91674 -0.73484,0.73484 -0.95963,-0.95963 0.8692,-0.8692 z m 22.50457,1.52807 2.93987,2.93936 -3.91965,3.91966 -2.93987,-2.93936 z m -24.9059697,1.75648 c -0.10346,8e-5 -0.20856,0.006 -0.31471,0.0186 -0.42478,0.0418 -0.83358,0.25893 -1.22628,0.65164 l -0.21549,0.21601 -0.31523,0.3147 -0.20981,0.21033 c -0.06613,0.0661 -0.12833,0.12408 -0.18706,0.17415 v 5.1e-4 l 4.6203897,4.61988 0.92139,-0.92139 c 0.45878,-0.4588 0.69848,-0.93437 0.71882,-1.42731 0.0162,-0.49697 -0.0874,-0.92359 -0.31058,-1.27899 -0.17798,-0.29463 -0.35525,-0.55714 -0.53175,-0.78806 -0.18058,-0.235 -0.36024,-0.44241 -0.5395,-0.62167 -0.24446,-0.24446 -0.49386,-0.44708 -0.7482797,-0.60823 -0.25444,-0.16113 -0.51036,-0.29227 -0.76739,-0.39378 -0.28611,-0.11116 -0.58416,-0.16662 -0.89452,-0.1664 z m -0.0605,1.23404 c 0.12795,-0.003 0.2582,0.0207 0.39067,0.0703 0.38535,0.1443 0.74461,0.3675 1.07797,0.66972 l 0.0672,0.0672 0.0677,0.0672 0.12195,0.12248 c 0.0408,0.0408 0.0797,0.0833 0.11628,0.12815 0.3142697,0.3376 0.5552897,0.6998 0.7234697,1.08573 0.16409,0.38182 0.0812,0.75384 -0.24857,1.11621 l -3.0313397,-3.03134 0.0067,0.006 c 0.22783,-0.19574 0.46369,-0.29613 0.70797,-0.30127 z m 12.4720997,0.68419 2.93988,2.93988 -3.91966,3.91914 -2.93987,-2.93988 z m -15.3876897,0.17467 -1.79058,1.79059 4.62038,4.61987 1.79008,-1.79007 -0.86765,-0.86816 -0.86868,0.86919 -1.00873,-1.0082 0.73484,-0.73536 -0.91674,-0.91622 -0.73484,0.73484 -0.95911,-0.95963 0.86868,-0.8692 z m 22.4926897,1.53996 2.93987,2.93935 -3.92017,3.92018 -2.93988,-2.93936 z m -24.9715997,0.93844 -0.82786,0.82838 2.84169,2.84168 -3.85092997,-1.83244 -0.874879996667,0.87488 4.620389966667,4.61987 0.87488,-0.87488 -2.74402,-2.74402 3.79977,1.68879 0.78134,-0.78187 z m 12.4767497,2.73679 2.93988,2.93883 -3.91966,3.91966 -2.93936,-2.93935 z m 7.10448,1.71462 2.93987,2.93987 -3.91966,3.91966 -2.93935,-2.93987 z m -12.4938097,3.67471 2.9398697,2.93987 -3.9196597,3.91914 -2.93935,-2.93987 z m 34.6045997,1.03921 c -0.36747,-0.0117 -0.73992,0.10321 -1.05678,0.35709 -0.72509,0.57962 -0.87022,1.59494 -0.2899,2.31924 l 1.45004,1.74098 -3.26234,-3.26234 c -0.58033,-0.58031 -1.74048,-0.43561 -2.46548,0.28939 -0.57961,0.57961 -0.79677,1.37705 -0.57929,2.02933 l -0.36225,-0.36173 c -0.72503,-0.72505 -1.88513,-0.58034 -2.61018,0.14469 -0.58028,0.58032 -0.72563,1.44967 -0.50746,2.10272 l -4.42247,-4.42196 c -0.79776,-0.79775 -2.03034,-0.72561 -2.75539,-5.1e-4 -0.72507,0.72505 -0.7969,1.95799 -0.0718,2.68304 l 10.14925,10.14925 -3.915,-1.01441 c -0.72434,-0.14546 -1.5227,0.36182 -1.73943,1.30431 -0.21815,0.94246 0.14465,1.8842 0.86971,2.03037 l 9.64231,2.3921 0.0723,0.0713 c 1.3781,0.79778 3.26216,0.65336 4.49482,-0.5793 l 4.7842,-4.78472 c 1.4501,-1.4501 1.45009,-3.76972 0,-5.21983 l -0.50746,-0.50747 -5.65443,-6.81508 c -0.32642,-0.40745 -0.79051,-0.63153 -1.26298,-0.64648 z m -27.49961,0.67541 2.93987,2.93936 -3.92017,3.92017 -2.93987,-2.93987 z m 1.71462,7.10396 2.93988,2.94039 -3.92018,3.91966 -2.93987,-2.93987 z" />
  </g>
</svg>
