<?xml version="1.0" encoding="UTF-8" standalone="no"?>
<svg
   xmlns:dc="http://purl.org/dc/elements/1.1/"
   xmlns:cc="http://creativecommons.org/ns#"
   xmlns:rdf="http://www.w3.org/1999/02/22-rdf-syntax-ns#"
   xmlns:svg="http://www.w3.org/2000/svg"
   xmlns="http://www.w3.org/2000/svg"
   xmlns:sodipodi="http://sodipodi.sourceforge.net/DTD/sodipodi-0.dtd"
   xmlns:inkscape="http://www.inkscape.org/namespaces/inkscape"
   height="200"
   width="200"
   viewBox="0 0 200 200"
   version="1.1"
   id="svg5"
   sodipodi:docname="logo-app-ehb-stuvo-mind.svg"
   inkscape:version="0.92.4 (5da689c313, 2019-01-14)">
  <metadata
     id="metadata11">
    <rdf:RDF>
      <cc:Work
         rdf:about="">
        <dc:format>image/svg+xml</dc:format>
        <dc:type
           rdf:resource="http://purl.org/dc/dcmitype/StillImage" />
        <dc:title></dc:title>
      </cc:Work>
    </rdf:RDF>
  </metadata>
  <defs
     id="defs9" />
  <sodipodi:namedview
     pagecolor="#ffffff"
     bordercolor="#666666"
     borderopacity="1"
     objecttolerance="10"
     gridtolerance="10"
     guidetolerance="10"
     inkscape:pageopacity="0"
     inkscape:pageshadow="2"
     inkscape:window-width="640"
     inkscape:window-height="480"
     id="namedview7"
     showgrid="false"
     inkscape:zoom="0.921875"
     inkscape:cx="-56.949153"
     inkscape:cy="128"
     inkscape:current-layer="svg5" />
  <path
     style="display:inline;opacity:1;fill:#ffffff;fill-opacity:1;stroke:none;stroke-width:17.72257423;stroke-miterlimit:4;stroke-dasharray:none;stroke-opacity:1"
     d="m 112,1e-6 c -41.973702,0 -76.000002,34.026298 -76.000002,75.999998 v 5.1113 l -24,45.138701 h 24 V 172 h 48 v 28 L 164,184 V 131.2969 C 179.2804,116.9609 187.966,96.952599 188,75.999999 188,34.026299 153.9737,10e-7 112,10e-7 Z m 0,15.999998 c 33.1371,0 60,26.8629 60,60 C 172,109.1371 145.1371,136 112,136 78.862898,136 51.999998,109.1371 51.999998,75.999999 c 0,-33.1371 26.8629,-60 60.000002,-60 z m -3.0527,8.1094 a 52,52 0 0 0 -10.615302,1.7304 c -0.1272,0.035 -0.2559,0.065 -0.3828,0.1016 a 52,52 0 0 0 -4.166,1.3848 c -0.4367,0.1652 -0.8725,0.3347 -1.3047,0.5117 a 52,52 0 0 0 -2.8789,1.2871 c -0.8413,0.4058 -1.6743,0.8299 -2.4941,1.2812 a 52,52 0 0 0 -1.295,0.7442 c -1.9506,1.1484 -3.8373,2.42 -5.6367,3.8262 -3.783,3.1739 -7.8944,8.3188 -6.5176,13.4218 0.056,0.2465 0.1388,0.4913 0.2344,0.7364 0.011,0.034 0.02,0.069 0.035,0.1035 v -0.012 c 0,0.011 4e-4,0.02 0.012,0.027 v 0 c 0.9049,2.1714 3.658,4.1922 6.1328,4.6523 3.937,0.7315 6.3893,-0.8062 7.4766,-2.584 1.0872,-1.7774 1.0076,-3.5672 -0.9434,-4.8867 l 2.291,-3.3926 c 3.6276,2.4538 4.1586,7.1143 2.1426,10.4102 -2.0161,3.2963 -6.3841,5.4566 -11.7109,4.4668 -3.8617,-0.7178 -7.581,-3.2872 -9.168,-7.0938 -0.3103,-0.7444 -0.5239,-1.543 -0.6211,-2.373 -0.1054,-0.7616 -0.082,-1.5467 0.023,-2.3164 -1.5981,2.2458 -3.0491,4.5989 -4.2363,7.0859 a 52,52 0 0 0 -0.1523,0.3145 c -3.1215,6.6742 -4.5045,12.4346 -3.3887,18.9101 1.1219,6.5109 6.2252,10.7482 12.4199,10.6934 5.6201,-0.4365 7.5807,-3.7246 7.4903,-6.6621 -0.091,-2.9704 -2.1413,-5.8339 -7.5977,-5.3965 l -0.3301,-4.0762 c 0.45,-0.038 0.8906,-0.053 1.3203,-0.049 6.4475,0.069 10.5511,4.5689 10.6993,9.3926 0.047,1.5233 -0.2884,3.0559 -0.9786,4.4726 3.3899,-0.6833 6.8862,-0.7493 10.4043,-0.3554 -2.7217,-3.2653 -4.0726,-7.1009 -3.9804,-10.7872 0.1591,-6.3264 4.929,-12.0656 12.955002,-12.8593 l 0.4043,4.0703 c -6.389302,0.6317 -9.164702,4.4067 -9.277302,8.8926 -0.1119,4.4525 2.7507,9.7394 9.351602,12.7558 3.9292,1.2464 7.7876,2.9065 11.4453,4.7754 -0.047,-1.0122 0.1001,-2.0046 0.4101,-2.9141 1.1908,-3.4964 4.3287,-5.9708 7.7227,-6.8398 1.0169,-0.26 1.9988,-0.3889 2.9414,-0.3965 0.1349,0 0.2695,4e-4 0.4023,0.012 3.1912,0.093 5.839,1.5454 7.3477,3.6661 2.0109,2.8275 1.8124,7.0868 -1.293,9.5019 l -2.5097,-3.2285 c 1.5095,-1.1733 1.4488,-2.5258 0.4707,-3.9004 -0.978,-1.3754 -3.0639,-2.5299 -6.3477,-1.6895 -2.031,0.52 -4.2451,2.3866 -4.8633,4.2012 -0.3091,0.9075 -0.3171,1.7525 0.1172,2.7227 0.3685,0.8219 1.1162,1.7759 2.5039,2.75 0.011,0 0.012,4e-4 0.016,0.012 6.6684,4.0695 13.3116,5.1244 19.2637,3.9883 l -0.012,-0.041 c 6.0459,-1.4846 8.8497,-6.6012 8.6875,-10.9844 -0.081,-2.1913 -0.894,-4.1093 -2.3672,-5.3906 -1.4733,-1.2815 -3.6875,-2.0636 -7.0996,-1.6153 l -0.5332,-4.0566 c 0.5378,-0.071 1.0657,-0.1141 1.5801,-0.1367 0.2249,-0.011 0.4496,-0.012 0.6699,-0.012 3.3034,-0.011 6.0651,0.9971 8.0644,2.7364 2.4381,2.1198 3.6536,5.1886 3.7696,8.3242 0.065,1.7496 -0.2116,3.5469 -0.8145,5.2734 0.8423,-0.7333 1.6452,-1.5231 2.4004,-2.3593 3.7794,-4.183 6.0639,-9.4004 6.541,-13.4981 0.3298,-2.8318 0.136,-5.4279 -0.2461,-7.6719 a 52,52 0 0 0 -0.6191,-2.7578 c -1.5057,1.9419 -3.6953,3.2578 -6.1191,3.9336 -6.6093,1.8427 -15.2475,-0.1917 -21.7872,-5.0762 -3.6869,-2.7528 -6.1651,-7.6865 -6.4433,-12.4218 -0.1391,-2.3676 0.3273,-4.7897 1.8867,-6.67 1.5596,-1.8803 4.1355,-2.9537 7.3066,-2.9199 l -0.041,4.0899 c -2.3074,-0.023 -3.4212,0.604 -4.1172,1.4433 -0.696,0.8392 -1.0486,2.1548 -0.9511,3.8184 0.1954,3.3268 2.4402,7.6161 4.8086,9.3848 5.5332,4.1322 13.3897,5.7649 18.2422,4.4121 2.4264,-0.677 4.0037,-1.9052 4.7558,-3.8379 0.2594,-0.6664 0.4145,-1.4667 0.4414,-2.3926 a 52,52 0 0 0 -4.75,-9.166 c -0.1507,0.522 -0.3446,1.0321 -0.5918,1.5195 -2.0013,3.9481 -7.1581,6.055 -13.414,4.0762 l 1.2382,-3.8985 c 4.982,1.5761 7.4741,0.052 8.5313,-2.0332 0.8617,-1.7002 0.7185,-4.1149 -0.9551,-6.3066 a 52,52 0 0 0 -34.3437,-16.7656 c 5.0514,0.8813 8.2685,3.4692 9.4433,5.955 0.9617,2.243 0.7785,4.7676 -0.2246,6.92 -1.0649,2.2853 -3.125,4.2286 -5.9023,4.9394 -2.7775,0.7107 -6.1293,0.1271 -9.5918,-2.0859 l 2.2031,-3.4473 c 2.7557,1.7614 4.8519,1.962 6.375,1.5723 1.5229,-0.3896 2.6143,-1.4328 3.209,-2.709 0.4168,-0.8944 0.5449,-1.8656 0.4043,-2.7344 0,-0.056 -0.012,-0.1121 -0.027,-0.1699 -8e-4,0 -9e-4,-0.01 0,-0.01 v -0.016 c -0.011,-0.03 -0.01,-0.058 -0.017,-0.088 -0.2741,-1.8524 -1.7325,-5.0283 -10.17,-5.0586 -8.3766,-0.03 -12.446602,5.2175 -13.414002,8.5235 -0.011,0.019 -0.012,0.039 -0.02,0.059 0,0.011 -3e-4,0.012 -0.012,0.016 -0.3628,1.2531 -0.2947,2.5509 0.1426,3.8535 1.1742,3.4977 5.177302,6.7573 10.439502,6.582 2.9538,-0.098 5.5854,1.3861 7.4355,3.5352 1.8499,2.1491 3.0323,4.9918 3.3184,8.0508 0.5713,6.119 -2.8766,13.1864 -11.8692,16.0898 l -1.2597,-3.8926 c 7.5344,-2.4328 9.4677,-7.3549 9.0507,-11.8203 -0.2086,-2.2328 -1.1081,-4.3288 -2.3398,-5.7597 -1.2315,-1.4309 -2.6806,-2.1636 -4.2012,-2.1133 -6.9963,0.2339 -12.650902,-3.997 -14.453102,-9.3653 -0.9012,-2.6841 -0.7931,-5.7176 0.6699,-8.3925 0,-0.011 0.012,-0.012 0.016,-0.02 -6.438,2.1373 -12.7901,5.3785 -18.7695,9.8848 l -0.041,0.033 c -1.43,1.2009 -2.1998,2.3409 -2.5664,3.3379 -0.011,0.034 -0.016,0.065 -0.027,0.098 0.011,-0.03 0.012,-0.077 0.02,-0.1 0.3666,-0.997 1.1364,-2.1369 2.5664,-3.3379 l 0.041,-0.033 c 5.9794,-4.5062 12.3314,-7.7474 18.7695,-9.8847 1.5216,-2.6604 5.739202,-7.4383 13.740302,-8.5039 z m -35.027402,25.1289 v 0.016 c 0.011,0 0,4e-4 0.01,0.012 v -0.01 c 0,-0.011 0,-0.012 -0.01,-0.02 z m 19.5293,35.2754 c 3.1333,5.0163 8.025202,9.6456 13.730502,13.4004 7.3408,6.509301 13.1499,14.091701 17.3808,22.539001 1.1141,2.2242 1.9117,3.8764 2.5743,5.2461 a 52,52 0 0 0 3.6601,-1.2168 c -0.1357,-0.9245 -0.3184,-1.9336 -0.5722,-3.0683 -1.1808,-5.2778 -2.5269,-7.7169 -4.0079,-11.0157 -2.9516,-0.443 -5.5038,-2.1308 -7.4628,-4.2422 -2.0419,-2.2005 -3.4922,-4.889 -4.0274,-7.599601 l 4.0156,-0.7929 c 0.3523,1.7851 1.471,3.944201 3.0157,5.609301 1.1156,1.2022 2.4243,2.1328 3.7558,2.6329 13.3061,3.2578 26.0607,0.6442 29.6602,-12.236401 -9.1493,6.788601 -22.0451,8.421301 -34.2989,0.9356 -8.299,-5.0701 -18.2468,-9.445 -27.421802,-10.1914 z"
     id="path1446"
     inkscape:connector-curvature="0" />
</svg>
