<?xml version="1.0" encoding="UTF-8" standalone="no"?>
<!-- Created with Inkscape (http://www.inkscape.org/) -->

<svg
   xmlns:dc="http://purl.org/dc/elements/1.1/"
   xmlns:cc="http://creativecommons.org/ns#"
   xmlns:rdf="http://www.w3.org/1999/02/22-rdf-syntax-ns#"
   xmlns:svg="http://www.w3.org/2000/svg"
   xmlns="http://www.w3.org/2000/svg"
   xmlns:sodipodi="http://sodipodi.sourceforge.net/DTD/sodipodi-0.dtd"
   xmlns:inkscape="http://www.inkscape.org/namespaces/inkscape"
   width="200"
   height="200"
   viewBox="0 0 187.5 187.5"
   id="svg2"
   version="1.1"
   inkscape:version="0.92.4 (5da689c313, 2019-01-14)"
   sodipodi:docname="logo-app-mmm-castor.svg">
  <defs
     id="defs4" />
  <sodipodi:namedview
     id="base"
     pagecolor="#ffffff"
     bordercolor="#666666"
     borderopacity="1.0"
     inkscape:pageopacity="0.0"
     inkscape:pageshadow="2"
     inkscape:zoom="0.98994949"
     inkscape:cx="-65.044461"
     inkscape:cy="1.1433979"
     inkscape:document-units="px"
     inkscape:current-layer="layer1"
     showgrid="false"
     fit-margin-top="0"
     fit-margin-left="0"
     fit-margin-right="0"
     fit-margin-bottom="0"
     inkscape:window-width="1280"
     inkscape:window-height="971"
     inkscape:window-x="-8"
     inkscape:window-y="-8"
     inkscape:window-maximized="1"
     units="px" />
  <metadata
     id="metadata7">
    <rdf:RDF>
      <cc:Work
         rdf:about="">
        <dc:format>image/svg+xml</dc:format>
        <dc:type
           rdf:resource="http://purl.org/dc/dcmitype/StillImage" />
        <dc:title></dc:title>
      </cc:Work>
    </rdf:RDF>
  </metadata>
  <g
     inkscape:label="Layer 1"
     inkscape:groupmode="layer"
     id="layer1"
     transform="translate(-327.69075,-396.78376)">
    <path
       style="display:inline;opacity:1;fill:#ffffff;stroke-width:0.79857343"
       d="m 437.46065,405.82004 c -0.49883,0.009 -1.02577,0.0291 -1.59302,0.0694 -8.64588,0.62287 -17.763,6.7619 -15.71777,10.58353 0.68566,1.28119 3.09658,1.10503 5.02258,-0.36628 4.71338,-3.60066 6.72875,-4.93463 8.41919,-5.5755 2.86646,-1.08685 7.83912,-1.71497 11.32141,-1.42828 1.6948,0.13959 3.08167,0.16406 3.08167,0.0534 0,-0.43472 -4.12013,-2.25525 -6.46729,-2.85834 -1.32623,-0.34088 -2.57033,-0.49266 -4.06677,-0.47784 z m 18.44604,9.71925 c -5.48858,0.0394 -11.13081,0.28172 -14.67224,0.70856 -26.19379,3.15666 -50.96994,11.90288 -70.87281,25.01954 -3.00688,1.98168 -5.46752,3.74456 -5.46752,3.91668 0,0.17213 2.16727,0.3615 4.81384,0.42291 l 4.81018,0.11353 -8.38989,11.08885 -8.38989,11.09071 v 2.02519 c 7.99771,-3.6135 16.86505,-5.6415 26.21155,-5.6415 35.20814,0 63.75,28.54181 63.75,63.75 0,12.17212 -3.41411,23.54437 -9.33289,33.219 6.21283,2.01919 12.76962,3.37444 19.76623,4.09969 6.6886,0.69347 27.82471,-0.74213 28.27698,-1.92075 0.096,-0.25088 -1.78565,-11.98875 -4.18213,-26.08341 -4.19364,-24.66412 -4.33219,-25.66519 -3.68957,-26.68022 0.36723,-0.58012 3.18499,-3.88978 6.2622,-7.35534 18.17597,-20.47003 26.4544,-33.32512 29.53492,-45.86428 1.48316,-6.03694 1.1025,-9.06234 -1.48316,-11.7975 -3.30789,-3.49894 -5.29616,-0.53756 -11.53015,17.16609 -7.92861,22.51641 -12.0299,30.53907 -19.02831,37.22541 -4.44423,4.24593 -9.49142,6.53887 -11.47706,5.21297 -0.62946,-0.42029 -1.35132,-1.90425 -1.35132,-2.77772 0,-1.55503 1.25565,-4.884 2.59094,-6.86822 0.76189,-1.13222 1.38428,-2.12784 1.38428,-2.21381 0,-0.0863 -0.76026,0.42375 -1.69006,1.13344 -3.60227,2.74968 -9.44307,4.6439 -11.79199,3.82509 -2.41753,-0.84281 -2.13997,-2.93888 1.15173,-8.70666 1.30804,-2.292 2.37648,-4.34606 2.37488,-4.56487 -0.002,-0.21853 -1.59635,-1.33753 -3.54492,-2.48653 -7.39712,-4.36182 -14.74784,-10.55775 -18.75,-15.80382 -1.74884,-2.29237 -5.52247,-8.51728 -5.52247,-9.11137 0,-0.15797 1.6921,1.27416 3.75916,3.18244 7.047,6.50559 13.82928,10.9934 19.68201,13.02422 2.857,0.9915 4.18887,1.20825 8.36792,1.36237 9.706,0.35784 18.42957,-2.38416 25.01037,-7.86075 4.96559,-4.13231 10.97067,-15.88491 11.26282,-22.04409 l 0.10803,-2.27419 -3.57971,-1.48125 c -7.56854,-3.13125 -11.99072,-6.13997 -11.64734,-7.923 0.0681,-0.354 0.70944,-1.03866 1.4264,-1.52156 2.87216,-1.93575 10.66481,-1.5675 17.77587,0.83859 l 3.97705,1.34578 -1.59118,-1.40437 c -2.78812,-2.46216 -10.98644,-7.68338 -15.50721,-9.87675 -7.15021,-3.46903 -15.2632,-5.73816 -25.04882,-7.00557 -2.93294,-0.37987 -8.2681,-0.54328 -13.75672,-0.50353 z m -13.33008,5.592 c 3.92517,-0.0281 7.21294,0.86438 10.07813,2.74294 2.429,1.59253 3.46706,2.97609 3.09997,4.13269 -0.21259,0.66918 -0.55648,0.79997 -1.9226,0.73425 -0.91468,-0.0441 -4.53869,-0.17832 -8.05482,-0.2985 -6.1343,-0.20935 -6.45953,-0.26288 -8.04381,-1.31288 -1.73393,-1.149 -2.47278,-2.7239 -1.7981,-3.83784 0.80666,-1.33191 3.27931,-2.13516 6.64123,-2.16066 z m -58.63586,50.65247 c -31.06598,0 -56.25,25.18397 -56.25,56.25 0,31.06603 25.18402,56.25 56.25,56.25 31.06605,0 56.25,-25.18397 56.25,-56.25 0,-31.06603 -25.18395,-56.25 -56.25,-56.25 z m -9.98108,15 h 7.2583 v 6.98728 c 0.89579,-0.0638 1.80422,-0.0988 2.72278,-0.0988 0.91913,0 1.82635,0.0356 2.72278,0.0988 v -6.98728 h 7.25829 v 8.24888 c 10.50255,2.96906 17.96452,10.48162 17.96448,19.28465 0,1.09116 -0.11438,2.15334 -0.32592,3.18244 h -12.48413 c 0.21153,-1.02919 0.32776,-2.09128 0.32776,-3.18244 0,-4.76494 -6.92364,-8.62791 -15.46326,-8.62791 -8.53958,0 -15.46143,3.86297 -15.46143,8.62791 0,0.06 7.1e-4,0.12253 0.011,0.18319 0,0.0516 7.1e-4,0.10312 0.011,0.15562 0.19169,2.24972 2.25516,4.17928 4.9768,5.38144 2.95116,1.30359 7.38833,2.15972 12.33216,2.61844 1.56384,0.14522 3.24805,0.0909 6.17248,0.46322 2.92444,0.37218 7.02433,1.38872 10.88197,4.032 0.0404,0.0281 0.0768,0.0562 0.11718,0.0844 4.8976,3.23128 8.66355,8.12316 8.89709,13.93988 0.0106,0.18918 0.009,0.37978 0.009,0.57131 0,8.80331 -7.4613,16.31587 -17.96448,19.28466 v 8.25234 h -7.2583 v -6.98728 c -0.89578,0.0638 -1.80421,0.0988 -2.72278,0.0988 -0.91914,0 -1.82632,-0.0356 -2.72278,-0.0988 v 6.98728 h -7.2583 v -8.24888 c -10.50254,-2.96906 -17.96448,-10.48162 -17.96448,-19.28465 0,-1.09106 0.1144,-2.15325 0.32593,-3.18244 h 12.48413 c -0.21154,1.02919 -0.32776,2.09138 -0.32776,3.18244 0,4.76494 6.92367,8.6279 15.46326,8.6279 8.53962,0 15.46142,-3.86296 15.46142,-8.6279 0,-0.06 9.4e-4,-0.12253 -0.009,-0.18319 0,-0.0516 -7.1e-4,-0.10312 -0.011,-0.15562 -0.1917,-2.24972 -2.25516,-4.18088 -4.97681,-5.38332 -2.95119,-1.3035 -7.38825,-2.15784 -12.33215,-2.61656 -4.94391,-0.45872 -10.96009,-0.52537 -17.05627,-4.49887 -5.1169,-3.33507 -9.02528,-8.47866 -9.02528,-14.59538 0,-8.80331 7.4612,-16.31587 17.96448,-19.28465 z"
       id="path1349"
       inkscape:connector-curvature="0" />
  </g>
</svg>
