<?xml version="1.0" encoding="UTF-8" standalone="no"?>
<svg
   xmlns:dc="http://purl.org/dc/elements/1.1/"
   xmlns:cc="http://creativecommons.org/ns#"
   xmlns:rdf="http://www.w3.org/1999/02/22-rdf-syntax-ns#"
   xmlns:svg="http://www.w3.org/2000/svg"
   xmlns="http://www.w3.org/2000/svg"
   xmlns:sodipodi="http://sodipodi.sourceforge.net/DTD/sodipodi-0.dtd"
   xmlns:inkscape="http://www.inkscape.org/namespaces/inkscape"
   viewBox="0 0 4000.741 4000"
   id="svg2"
   version="1.1"
   inkscape:version="0.92.5 (2060ec1f9f, 2020-04-08)"
   width="200"
   height="200"
   sodipodi:docname="logo-app-kcb-musical-terminology.svg">
  <metadata
     id="metadata10">
    <rdf:RDF>
      <cc:Work
         rdf:about="">
        <dc:format>image/svg+xml</dc:format>
        <dc:type
           rdf:resource="http://purl.org/dc/dcmitype/StillImage" />
        <dc:title></dc:title>
      </cc:Work>
    </rdf:RDF>
  </metadata>
  <defs
     id="defs8" />
  <sodipodi:namedview
     pagecolor="#ffffff"
     bordercolor="#666666"
     borderopacity="1"
     objecttolerance="10"
     gridtolerance="10"
     guidetolerance="10"
     inkscape:pageopacity="0"
     inkscape:pageshadow="2"
     inkscape:window-width="1280"
     inkscape:window-height="971"
     id="namedview6"
     showgrid="false"
     fit-margin-top="0"
     fit-margin-left="0"
     fit-margin-right="0"
     fit-margin-bottom="0"
     inkscape:zoom="3.4766083"
     inkscape:cx="98.006337"
     inkscape:cy="101.79265"
     inkscape:window-x="-8"
     inkscape:window-y="-8"
     inkscape:window-maximized="1"
     inkscape:current-layer="svg2"
     units="px"
     inkscape:snap-global="false" />
  <path
     style="display:inline;opacity:1;fill:#ffffff;fill-opacity:1;stroke:none;stroke-width:7.99999952;stroke-miterlimit:4;stroke-dasharray:none"
     d="M 105.64844 0.171875 C 114.97368 3.3341837 123.63822 8.2424083 131.45508 14.302734 C 134.53456 16.690299 137.48726 19.259042 140.32031 21.958984 L 154.43359 16.111328 C 143.61767 9.1070926 131.52559 4.2388756 118.86523 1.7929688 C 118.65219 1.7522656 118.44009 1.7092704 118.22656 1.6699219 C 117.52206 1.5385612 116.81525 1.4209723 116.10742 1.3046875 C 115.59981 1.2224305 115.09218 1.1409877 114.58203 1.0664062 C 114.12656 0.99879164 113.66958 0.93634654 113.21289 0.875 C 112.38287 0.76536419 111.55116 0.66140423 110.71484 0.57226562 C 110.57363 0.55691201 110.43233 0.54209705 110.29102 0.52734375 C 108.75463 0.37019089 107.20464 0.25863436 105.64844 0.171875 z M 82.613281 4.1757812 C 81.524943 4.1760442 80.428847 4.2033014 79.326172 4.2617188 C 80.592467 5.0217821 81.846327 5.8505856 83.080078 6.75 C 90.575525 12.215121 97.736255 20.180474 104.47852 29.337891 C 105.86047 31.215031 107.22005 33.144349 108.5625 35.111328 L 132.17188 25.332031 C 130.34319 23.693077 128.47668 22.111576 126.55664 20.623047 C 113.64536 10.612921 98.938355 4.1718365 82.613281 4.1757812 z M 173.3457 5.1601562 C 191.96263 26.057164 164.20313 60.169922 164.20312 60.169922 L 152.55859 55.345703 L 166.19922 88.273438 L 199.13086 74.634766 L 187.48242 69.8125 C 209.09168 17.643115 179.16092 7.5689245 173.3457 5.1601562 z M 66.072266 7.6367188 L 82.007812 46.111328 L 101 38.244141 C 100.01982 36.831844 99.034645 35.436916 98.037109 34.082031 C 91.594228 25.331102 84.811117 17.913805 78.369141 13.216797 C 73.952119 9.9963 69.850171 8.1294935 66.072266 7.6367188 z M 58.679688 10.697266 C 56.356793 13.716844 54.777649 17.939088 53.931641 23.339844 C 52.697774 31.216304 53.145271 41.256349 54.777344 52 C 55.030197 53.663442 55.319277 55.347381 55.625 57.039062 L 74.617188 49.171875 L 58.679688 10.697266 z M 46.921875 17.685547 C 33.785559 29.50001 27.284048 45.362037 25.095703 62.650391 C 24.790695 65.060669 24.587185 67.499316 24.453125 69.951172 L 48.0625 60.171875 C 47.620902 57.831968 47.219276 55.503632 46.869141 53.199219 C 45.161322 41.95637 44.59177 31.264284 46.027344 22.099609 C 46.263945 20.590822 46.563726 19.118782 46.921875 17.685547 z M 162.08984 21.599609 L 146.35938 28.115234 C 152.32947 34.627814 157.64132 41.721833 162.24414 49.013672 C 164.21501 45.941601 166.45335 42.052291 168.36328 37.439453 C 169.43969 34.839743 170.32127 32.139632 170.92188 29.486328 C 168.12367 26.674397 165.1759 24.038916 162.08984 21.599609 z M 138.43945 31.396484 L 113.03516 41.917969 C 121.26667 54.939423 128.49696 69.041572 133.95898 81.314453 A 4.0003998 4.0003998 0 0 1 134.41406 82.150391 C 134.73759 82.931956 135.0639 83.781508 135.39453 84.609375 L 153.00195 77.316406 L 137.77734 40.5625 L 150.37695 45.785156 C 146.73897 40.741831 142.74592 35.888831 138.43945 31.396484 z M 25.416016 33.396484 C 23.529356 35.507757 21.727671 37.696234 20.023438 39.962891 C 19.952099 40.058141 19.879579 40.152559 19.808594 40.248047 C 19.461315 40.713372 19.12057 41.184726 18.78125 41.65625 C 18.452702 42.11471 18.127149 42.57545 17.806641 43.039062 C 17.634574 43.286879 17.460891 43.533763 17.291016 43.783203 C 10.029011 54.493522 4.8959195 66.527963 2.1914062 79.171875 L 16.304688 73.326172 C 16.398795 69.413942 16.668979 65.51008 17.158203 61.644531 C 18.400423 51.830319 21.056891 42.228086 25.416016 33.396484 z M 105.51758 45.033203 L 85.070312 53.501953 L 103.4375 97.845703 L 127.97852 87.679688 C 122.37594 74.693078 114.47892 59.057782 105.51758 45.033203 z M 77.679688 56.564453 L 57.230469 65.033203 C 60.810326 81.286872 66.282678 97.929624 71.503906 111.07422 L 96.046875 100.9082 L 77.679688 56.564453 z M 49.714844 68.146484 L 24.308594 78.669922 C 24.501348 87.737422 25.712676 96.868873 27.648438 105.61719 L 30.740234 104.33789 L 38.132812 101.27539 L 46.484375 121.4375 L 64.087891 114.14648 C 63.732996 113.32883 63.366684 112.49439 63.042969 111.71289 A 4.0003998 4.0003998 0 0 1 62.777344 110.79688 C 57.961886 98.256818 53.102017 83.173316 49.714844 68.146484 z M 16.386719 81.951172 L 0.66601562 88.464844 C 0.65255053 88.582054 0.63805942 88.699073 0.625 88.816406 C 0.54152224 89.552038 0.47144224 90.289068 0.40429688 91.027344 C 0.36638065 91.453612 0.32356555 91.878851 0.29101562 92.306641 C 0.16303919 93.98858 0.078890932 95.682545 0.03515625 97.386719 C 0.034721342 97.403665 0.0336296 97.420551 0.033203125 97.4375 C 0.011767096 98.289402 -7.3510687e-16 99.142933 0 100 C 0 101.39104 0.028957598 102.7754 0.0859375 104.15234 C 0.1429174 105.52928 0.22746295 106.89783 0.33984375 108.25977 C 0.45222455 109.6217 0.59160982 110.97625 0.7578125 112.32227 C 0.92401518 113.66828 1.1174919 115.00674 1.3359375 116.33594 L 1.3359375 116.34375 C 1.3449247 116.39775 1.3502966 116.45187 1.359375 116.50586 L 20.115234 108.73828 C 18.11435 100.0905 16.78247 91.050271 16.386719 81.951172 z M 198.63672 83.5 L 179.88477 91.267578 C 182.41041 102.17742 183.86228 113.71422 183.72266 125.20312 L 198.13867 119.23438 C 198.42449 117.78314 198.67712 116.32468 198.89844 114.85938 C 199.09938 113.52896 199.26497 112.1919 199.41211 110.85156 C 199.79686 107.28661 200 103.66721 200 100 C 200 96.291901 199.79733 92.632187 199.40234 89.029297 C 199.31305 88.214833 199.21028 87.404174 199.10156 86.595703 C 199.0836 86.463584 199.06733 86.331333 199.04883 86.199219 C 198.95761 85.540808 198.85588 84.884733 198.75195 84.230469 C 198.71432 83.995988 198.67997 83.761781 198.64062 83.527344 C 198.63911 83.518245 198.63823 83.509098 198.63672 83.5 z M 156.0625 84.707031 L 138.28906 92.068359 C 143.45644 105.91692 148.54119 122.42636 151.67578 138.47852 L 175.625 128.55859 C 176.09295 117.16278 174.81418 105.46134 172.36523 94.380859 L 169.26367 95.666016 L 161.86914 98.728516 L 156.0625 84.707031 z M 130.88477 95.134766 L 106.49805 105.23633 L 124.86719 149.58203 L 144.125 141.60547 C 141.15157 125.78013 136.05647 109.04554 130.88477 95.134766 z M 99.107422 108.29688 L 74.720703 118.40039 C 80.900383 131.89353 89.130764 147.32834 98.21875 160.62109 L 117.47656 152.64453 L 99.107422 108.29688 z M 33.804688 111.72852 L 0.875 125.36914 L 12.521484 130.19336 C -9.0877775 182.36273 20.84298 192.43498 26.658203 194.84375 C 8.0413419 173.94674 35.798828 139.83594 35.798828 139.83594 L 47.445312 144.6582 L 33.804688 111.72852 z M 67.316406 121.46484 L 49.544922 128.82617 L 62.226562 159.44336 L 49.642578 154.22656 C 54.690663 161.22538 60.412003 167.85785 66.71875 173.66797 L 90.667969 163.75 C 81.534096 150.18327 73.454929 134.91108 67.316406 121.46484 z M 195.73828 128.88477 L 183.29492 134.03906 C 183.16944 135.48213 183.02337 136.92505 182.8418 138.35938 C 181.59927 148.17582 178.94076 157.77653 174.58008 166.60938 C 177.77231 163.03759 180.71056 159.23361 183.36914 155.22852 C 183.72843 154.68495 184.08912 154.14189 184.4375 153.5918 C 189.30795 145.9014 193.10867 137.58179 195.73828 128.88477 z M 174.88086 137.52734 L 153.0918 146.55078 C 153.10309 146.63508 153.11967 146.7192 153.13477 146.80273 C 154.84262 158.04547 155.41026 168.74172 153.97461 177.90625 C 153.73839 179.41466 153.43804 180.88551 153.08008 182.31836 C 166.17221 170.54362 172.67098 154.74796 174.88086 137.52734 z M 145.46094 149.71094 L 127.92969 156.97266 L 141.32227 189.30664 C 143.64505 186.28642 145.22419 182.06268 146.07031 176.66211 C 147.23816 169.20703 146.88427 159.8047 145.46094 149.71094 z M 37.765625 150.98047 C 35.793245 154.05402 33.550698 157.94662 31.638672 162.56445 C 30.562411 165.16363 29.680682 167.86479 29.080078 170.51758 C 33.729992 175.18957 38.799018 179.36579 44.207031 182.99414 L 58.621094 177.02344 C 50.592321 169.18689 43.608928 160.24258 37.765625 150.98047 z M 120.53906 160.03516 L 103.00586 167.29688 C 109.13671 175.44059 115.53545 182.33949 121.63281 186.78516 C 126.05002 190.00592 130.15175 191.87411 133.92969 192.36719 L 120.53906 160.03516 z M 95.375 170.45898 L 73.585938 179.48242 C 87.324707 190.09613 103.08932 196.6691 120.67188 195.73828 C 119.40623 194.97852 118.15491 194.15102 116.92188 193.25195 C 109.42639 187.78683 102.26766 179.82342 95.525391 170.66602 C 95.476635 170.59762 95.424896 170.52702 95.375 170.45898 z M 65.167969 182.96875 L 52.730469 188.12109 C 62.317027 193.25635 72.708321 196.81968 83.474609 198.63477 C 83.68495 198.66976 83.896639 198.70069 84.107422 198.73438 C 84.728302 198.83496 85.349419 198.93256 85.972656 199.02148 C 88.741427 199.41036 91.546067 199.68658 94.382812 199.84375 C 85.045373 196.68144 76.370716 191.76847 68.544922 185.70117 C 67.401839 184.81495 66.277408 183.90082 65.167969 182.96875 z "
     transform="matrix(20.003705,0,0,20.003705,0,-0.3705)"
     id="path5553" />
</svg>
