<?xml version="1.0" encoding="UTF-8" standalone="no"?>
<!-- Created with Inkscape (http://www.inkscape.org/) -->

<svg
   xmlns:dc="http://purl.org/dc/elements/1.1/"
   xmlns:cc="http://creativecommons.org/ns#"
   xmlns:rdf="http://www.w3.org/1999/02/22-rdf-syntax-ns#"
   xmlns:svg="http://www.w3.org/2000/svg"
   xmlns="http://www.w3.org/2000/svg"
   xmlns:sodipodi="http://sodipodi.sourceforge.net/DTD/sodipodi-0.dtd"
   xmlns:inkscape="http://www.inkscape.org/namespaces/inkscape"
   width="200"
   height="200"
   viewBox="0 0 52.916665 52.916668"
   version="1.1"
   id="svg5719"
   inkscape:version="0.92.4 (5da689c313, 2019-01-14)"
   sodipodi:docname="logo-app-ehb-academic-onstage.svg">
  <defs
     id="defs5713" />
  <sodipodi:namedview
     id="base"
     pagecolor="#ffffff"
     bordercolor="#666666"
     borderopacity="1.0"
     inkscape:pageopacity="0.0"
     inkscape:pageshadow="2"
     inkscape:zoom="1.4"
     inkscape:cx="-3.7378377"
     inkscape:cy="120.47279"
     inkscape:document-units="mm"
     inkscape:current-layer="layer1"
     showgrid="false"
     units="px"
     inkscape:window-width="2560"
     inkscape:window-height="1017"
     inkscape:window-x="1272"
     inkscape:window-y="-8"
     inkscape:window-maximized="1" />
  <metadata
     id="metadata5716">
    <rdf:RDF>
      <cc:Work
         rdf:about="">
        <dc:format>image/svg+xml</dc:format>
        <dc:type
           rdf:resource="http://purl.org/dc/dcmitype/StillImage" />
        <dc:title></dc:title>
      </cc:Work>
    </rdf:RDF>
  </metadata>
  <g
     inkscape:label="Layer 1"
     inkscape:groupmode="layer"
     id="layer1"
     transform="translate(0,-244.08332)">
    <path
       inkscape:connector-curvature="0"
       style="display:inline;opacity:1;fill:#ffffff;fill-opacity:1;stroke:none;stroke-width:2.11666656;stroke-miterlimit:4;stroke-dasharray:none"
       d="m 26.458328,244.08332 c -14.61254,0 -26.4583296666667,11.84579 -26.4583296666667,26.45833 0,14.61254 11.8457896666667,26.45834 26.4583296666667,26.45834 14.61254,0 26.45834,-11.8458 26.45834,-26.45834 0,-14.61254 -11.8458,-26.45833 -26.45834,-26.45833 z m 1.39113,13.48497 v 0 c 0.51297,0.007 1.03457,0.0983 1.53686,0.28162 1.93773,0.70718 2.96299,2.79776 2.84686,5.80326 -0.0857,2.21806 -0.74752,3.7115 -2.02985,4.5837 -0.69297,0.47133 -1.24683,0.63219 -2.25931,0.6563 -0.53673,0.0119 -0.93017,-0.008 -1.17253,-0.0636 v 0 c -1.27508,-0.2888 -2.20072,-1.0514 -2.78794,-2.29497 -0.4995,-1.05775 -0.72641,-2.61453 -0.59531,-4.08811 0.15473,-1.7399 0.60047,-2.86935 1.47071,-3.72948 0.77219,-0.76319 1.86204,-1.16454 2.99051,-1.15033 z m 10.37458,1.90531 c 0.10734,-0.003 0.2196,0 0.33639,0.008 0.99523,0.0558 1.66007,0.44569 2.06965,1.21179 0.39687,0.74221 0.41185,0.91207 0.41185,4.69172 v 3.35121 h -1.28569 -1.28625 v -3.01688 c 0,-1.96829 -0.0222,-3.12428 -0.0651,-3.32433 -0.21516,-1.00335 -1.25341,-1.07744 -2.24792,-0.16071 l -0.25837,0.2377 v 3.13211 3.13211 h -1.40509 -1.40611 v -4.35943 -4.36044 l 0.28422,-0.0651 c 0.45418,-0.10496 1.37501,-0.2358 1.97403,-0.28009 l 0.55295,-0.0408 v 0.4563 c 0,0.29599 0.0233,0.45578 0.0667,0.45578 0.0367,0 0.23093,-0.15127 0.43151,-0.33692 0.53991,-0.49983 1.07574,-0.71933 1.82729,-0.73123 z m -10.42885,0.45527 v 0 c -0.23582,0.008 -0.47326,0.0533 -0.64492,0.13436 -0.52049,0.24614 -0.95242,0.87672 -1.15443,1.68621 -0.0531,0.21262 -0.108,0.771 -0.1261,1.27537 -0.0487,1.35285 0.13367,2.21036 0.62011,2.91558 0.40457,0.58663 1.29352,0.81433 1.96217,0.50231 0.58486,-0.27297 1.01312,-0.94546 1.20095,-1.88722 0.12946,-0.64944 0.0916,-2.41136 -0.0635,-2.96211 -0.21913,-0.77841 -0.64434,-1.35541 -1.15859,-1.5725 -0.1656,-0.07 -0.39984,-0.10052 -0.63563,-0.0925 z m -9.96166,8.80203 v 1.04595 1.04645 h 1.04645 1.04698 v 0.40307 c -0.003,0.47799 -0.0804,1.08651 -0.21391,1.64486 l -0.0971,0.4041 h -1.49191 c -0.89961,0 -1.47839,0.022 -1.4578,0.0553 0.019,0.0305 0.28832,0.21193 0.59894,0.40309 l 0.5643,0.34726 0.0175,1.56681 c 0.0175,1.56591 0.0175,1.56544 0.1633,1.72033 0.29385,0.31308 0.86479,0.31559 1.6247,0.006 l 0.33435,-0.13642 0.13333,0.71623 c 0.0729,0.39372 0.1484,0.94975 0.16692,1.23611 l 0.0336,0.52038 -0.44235,0.12713 c -1.00325,0.28805 -1.9109,0.33388 -2.67269,0.13436 v 0 c -1.06932,-0.28015 -1.65322,-0.84191 -1.96009,-1.88566 -0.088,-0.29874 -0.11012,-0.70869 -0.13954,-2.56781 l -0.0346,-2.21329 -0.52401,-0.0169 -0.52347,-0.0175 v -1.22317 -1.22423 h 0.53848 0.53845 v -0.86299 c 0,-0.76991 0.0108,-0.86675 0.10491,-0.89556 0.32771,-0.10102 2.03742,-0.33083 2.482,-0.33382 z m -7.32875,0.0315 c 0.70834,0.013 1.45261,0.17901 2.1854,0.49659 0.59315,0.25718 0.59492,0.26088 0.44958,0.97825 -0.093,0.45826 -0.36708,1.24436 -0.43407,1.24436 -0.0172,0 -0.21476,-0.066 -0.43873,-0.14677 -0.95777,-0.34544 -1.97147,-0.41153 -2.5207897,-0.1638 -0.74526,0.33605 -0.9044,1.13488 -0.30541,1.53117 0.1261,0.0833 0.7107497,0.31425 1.2996797,0.51366 1.24249,0.42072 1.89299,0.7398 2.3399,1.14827 0.66781,0.61034 0.93493,1.24658 0.93792,2.23189 0.003,1.02322 -0.32962,1.80398 -1.0418,2.44843 -0.40711,0.36846 -1.01023,0.68559 -1.6619,0.87334 -0.57647,0.16599 -1.9097297,0.21314 -2.5574597,0.0904 -0.67268,-0.12746 -1.249468,-0.31748 -1.853644,-0.61178 -0.512101,-0.24942 -0.553456,-0.28249 -0.553456,-0.44598 0,-0.38978 0.391954,-1.89862 0.529696,-2.03965 0.02328,-0.0241 0.243152,0.0379 0.488844,0.13798 0.91006,0.37087 1.50495,0.49522 2.39056,0.50022 0.7540097,0.004 0.8256597,-0.006 1.0748697,-0.14626 0.39243,-0.21992 0.55708,-0.49252 0.52658,-0.87228 -0.0473,-0.58933 -0.39307,-0.84796 -1.8402097,-1.37564 -1.9028,-0.69387 -2.526582,-1.15047 -2.813258,-2.05828 -0.271912,-0.8609 -0.100251,-2.0022 0.413941,-2.75071 0.282257,-0.4109 0.865297,-0.8908 1.412317,-1.16274 0.5905,-0.29347 1.26307,-0.43355 1.9714397,-0.42063 z m 32.16807,1.87843 c 0.27064,0.005 0.54631,0.0338 0.82423,0.0894 1.49738,0.29972 2.51187,1.27434 2.9342,2.81843 0.10427,0.3811 0.13139,0.64902 0.13539,1.35445 0.003,0.51599 -0.0196,0.90138 -0.0548,0.93327 -0.0329,0.03 -1.13628,0.11258 -2.45206,0.18396 -3.18841,0.17304 -3.25995,0.1801 -3.25924,0.29922 0,0.1888 0.28795,0.69839 0.51573,0.91622 0.67712,0.64754 2.00183,0.70327 3.18794,0.13486 0.2378,-0.11388 0.44166,-0.20722 0.45267,-0.20722 0.0106,0 0.14695,0.16801 0.30231,0.37364 0.26358,0.34883 0.74414,1.24548 0.74414,1.38801 0,0.0864 -0.6718,0.53231 -1.08211,0.71832 -0.62432,0.28305 -1.21547,0.40248 -2.1177,0.42788 -0.69668,0.0196 -0.91043,0.004 -1.27225,-0.0941 -1.2342,-0.33374 -2.31209,-1.26077 -2.81948,-2.42414 -0.47104,-1.07995 -0.5416,-2.65094 -0.17259,-3.85609 0.58214,-1.9014 2.23909,-3.08702 4.13359,-3.05562 z m -17.91468,0.0161 c 0.84421,0.004 1.47413,0.14039 2.09291,0.44598 0.59941,0.29607 1.17639,0.85506 1.43971,1.39526 0.32885,0.67474 0.36792,1.05997 0.36792,3.61116 v 2.28513 l -0.39221,0.63923 c -0.44196,0.72009 -0.34364,0.65966 -1.45987,0.89141 -0.65124,0.1351 -2.44406,0.19928 -2.99257,0.10697 v 0 c -1.98398,-0.33438 -2.92655,-1.3345 -2.92954,-3.10938 -0.003,-0.92636 0.25736,-1.57488 0.84595,-2.11976 0.65857,-0.60976 1.46132,-0.87009 2.67631,-0.86609 0.4141,0 0.94231,0.0383 1.17253,0.0832 0.23027,0.0448 0.42886,0.071 0.44236,0.0579 0.0138,-0.0119 -0.009,-0.17301 -0.0496,-0.35657 -0.10139,-0.45297 -0.44234,-0.81288 -0.89763,-0.94724 -0.5856,-0.17272 -1.63542,-0.10607 -2.7032,0.17158 -0.15176,0.0395 -0.16311,0.0236 -0.3452,-0.47955 -0.10363,-0.28652 -0.20508,-0.67554 -0.22479,-0.86403 l -0.0356,-0.34314 0.41135,-0.15607 c 0.78952,-0.30078 1.32297,-0.40704 2.20554,-0.43924 0.12994,-0.005 0.25509,-0.007 0.37568,-0.006 z m 8.62584,0.0185 c 0.72234,-2.1e-4 0.94523,0.0228 1.33377,0.13486 0.5539,0.16007 1.04994,0.40204 1.41025,0.68834 l 0.26199,0.20773 0.48575,-0.17931 c 0.67702,-0.25046 0.68493,-0.25191 0.81029,-0.13849 0.10708,0.0969 0.48847,0.82812 0.5633,1.08003 0.0304,0.10232 -0.12978,0.22331 -1.10744,0.83717 l -1.14361,0.71779 0.63667,0.0169 0.63664,0.0169 v 0.28318 c 0,0.7125 -0.38489,1.53273 -0.97772,2.08359 -0.59867,0.55632 -1.32755,0.85855 -2.41123,1.00098 -0.57184,0.0751 -0.60629,0.089 -1.20819,0.47333 -0.34089,0.21773 -0.6504,0.40675 -0.68781,0.42014 -0.18219,0.0656 0.0363,0.08 0.41032,0.0274 0.63658,-0.0897 2.11465,-0.018 2.71973,0.13179 1.02677,0.25429 1.86481,0.81568 2.24742,1.50638 0.16251,0.2934 0.17621,0.36621 0.17621,0.91673 0,0.50458 -0.0217,0.64145 -0.13798,0.8754 -0.62507,1.25632 -2.30065,1.867 -4.70617,1.71566 v 0 c -1.97101,-0.12409 -3.36909,-1.05243 -3.53054,-2.34458 -0.0546,-0.4369 0.0957,-0.99819 0.37724,-1.40919 0.21291,-0.31094 0.78282,-0.79288 1.03145,-0.87178 0.0647,-0.0206 0.11835,-0.0655 0.11835,-0.0998 0,-0.0342 -0.12179,-0.27733 -0.26974,-0.54054 -0.14801,-0.26321 -0.26871,-0.48234 -0.26871,-0.48834 -3e-5,-0.005 0.20132,-0.18217 0.44801,-0.39222 0.24673,-0.21 0.44908,-0.39786 0.44908,-0.41807 0,-0.0201 -0.15544,-0.15028 -0.34573,-0.28887 -0.56422,-0.41087 -0.98023,-1.04249 -1.15289,-1.74924 -0.0442,-0.18095 -0.0797,-0.5846 -0.0791,-0.8971 0.003,-1.32119 0.60396,-2.28661 1.78747,-2.87218 0.73953,-0.36592 1.11747,-0.44516 2.12288,-0.44545 z m 0.0878,1.82571 c -0.0594,-0.003 -0.11874,-0.003 -0.17827,0 -0.2857,0.0183 -0.5661,0.118 -0.78187,0.30747 -0.36666,0.32189 -0.4698,0.59465 -0.47181,1.24383 0,0.51623 0.0145,0.59727 0.17209,0.88162 0.0952,0.17214 0.24283,0.3578 0.32763,0.41341 0.42207,0.27657 1.05154,0.31078 1.50276,0.0806 0.32181,-0.16423 0.52093,-0.45159 0.63613,-0.91829 0.12198,-0.49432 0.0508,-1.0423 -0.18965,-1.45264 -0.19971,-0.34078 -0.60092,-0.53446 -1.01701,-0.55708 z m 9.14054,0.33798 c -0.435,0 -0.53962,0.0225 -0.88728,0.19378 -0.51245,0.25228 -0.82958,0.66622 -0.95292,1.24436 l -0.0419,0.19431 h 1.86396 1.86396 l -0.0393,-0.19431 c -0.0678,-0.33753 -0.32602,-0.80693 -0.55292,-1.00613 -0.36177,-0.31766 -0.6935,-0.43201 -1.25368,-0.43201 z m -17.32608,2.54092 c -0.33229,-0.008 -0.69456,0.005 -0.85937,0.0455 -0.60198,0.14947 -0.95771,0.56817 -1.01441,1.19322 -0.096,1.05754 0.89717,1.61221 2.37556,1.32705 v 0 l 0.20929,-0.0414 0.0164,-1.18906 c 0.0106,-0.76309 -0.006,-1.21129 -0.046,-1.25108 -0.0463,-0.0464 -0.34894,-0.0763 -0.6811,-0.0853 z m 6.56084,4.70514 -0.0362,0.43201 c -0.0634,0.75515 0.18802,1.04982 1.03508,1.21441 0.23741,0.0462 1.20245,-0.0106 1.46193,-0.0858 0.75864,-0.22008 0.85034,-1.04536 0.15399,-1.38855 -0.2467,-0.12155 -0.37359,-0.13433 -1.4428,-0.15193 z"
       id="path1118-4-8" />
  </g>
</svg>
