<?xml version="1.0" encoding="UTF-8" standalone="no"?>
<!-- Created with Inkscape (http://www.inkscape.org/) -->

<svg
   width="200"
   height="200"
   viewBox="0 0 52.916665 52.916666"
   version="1.1"
   id="svg2684"
   inkscape:version="1.2.1 (9c6d41e410, 2022-07-14)"
   sodipodi:docname="logo-app-ehb-procure.svg"
   xmlns:inkscape="http://www.inkscape.org/namespaces/inkscape"
   xmlns:sodipodi="http://sodipodi.sourceforge.net/DTD/sodipodi-0.dtd"
   xmlns="http://www.w3.org/2000/svg"
   xmlns:svg="http://www.w3.org/2000/svg">
  <sodipodi:namedview
     id="namedview2686"
     pagecolor="#ffffff"
     bordercolor="#666666"
     borderopacity="1.0"
     inkscape:showpageshadow="2"
     inkscape:pageopacity="0.0"
     inkscape:pagecheckerboard="0"
     inkscape:deskcolor="#d1d1d1"
     inkscape:document-units="mm"
     showgrid="false"
     inkscape:zoom="2.3786088"
     inkscape:cx="169.63697"
     inkscape:cy="95.644143"
     inkscape:current-layer="layer1" />
  <defs
     id="defs2681" />
  <g
     inkscape:label="Layer 1"
     inkscape:groupmode="layer"
     id="layer1">
    <path
       id="path793-0"
       style="font-size:12.7px;line-height:0;font-family:Bernie;-inkscape-font-specification:Bernie;letter-spacing:0px;word-spacing:0px;fill:#ffffff;stroke-width:0.363391px"
       d="M 7.9566203 8.5064575 C 7.3984408 8.5064575 7.1370321 8.7682631 7.1370321 9.3089925 L 7.1370321 20.402372 C 7.1370321 21.065192 7.537827 21.22196 8.2878662 21.22196 C 9.0553554 21.22196 9.4562703 21.065152 9.4562703 20.402372 L 9.4562703 16.686837 L 17.846456 16.686837 C 21.003593 16.686837 22.974825 15.570548 22.974825 13.861169 L 22.974825 11.332642 C 22.974825 9.6232633 21.003593 8.5064575 17.846456 8.5064575 L 7.9566203 8.5064575 z M 9.4562703 10.390063 L 17.637683 10.390063 C 20.009881 10.390063 20.67264 10.878335 20.67264 11.506274 L 20.67264 13.68702 C 20.67264 14.314949 20.009881 14.803231 17.637683 14.803231 L 9.4562703 14.803231 L 9.4562703 10.390063 z M 29.075228 11.296985 C 26.162281 11.296985 24.557674 12.308971 24.557674 14.314889 L 24.557674 20.402372 C 24.557674 21.065192 24.923716 21.22196 25.656315 21.22196 C 26.406364 21.22196 26.772526 21.065152 26.772526 20.402372 L 26.772526 14.314889 C 26.772526 13.512519 27.34839 13.059151 29.075228 13.059151 L 30.435868 13.059151 C 30.959138 13.059151 31.063737 12.762442 31.063737 12.186853 C 31.063737 11.611234 30.959178 11.296985 30.435868 11.296985 L 29.075228 11.296985 z M 37.040633 11.296985 C 33.761396 11.296985 32.1045 12.291661 32.1045 14.332458 L 32.1045 18.117757 C 32.1045 20.141115 33.761396 21.152714 37.040633 21.152714 L 40.843502 21.152714 C 44.122749 21.152714 45.779635 20.141115 45.779635 18.117757 L 45.779635 14.332458 C 45.779635 12.291661 44.122749 11.296985 40.843502 11.296985 L 37.040633 11.296985 z M 37.110913 13.059151 L 40.773739 13.059151 C 42.727337 13.059151 43.564783 13.617319 43.564783 14.332458 L 43.564783 18.117757 C 43.564783 18.815476 42.727337 19.391064 40.773739 19.391064 L 37.110913 19.391064 C 35.157315 19.391064 34.320386 18.815476 34.320386 18.117757 L 34.320386 14.332458 C 34.320386 13.617319 35.157315 13.059151 37.110913 13.059151 z M 5.1624756 23.128304 C 1.726239 23.128304 0 24.192719 0 26.373067 L 0 32.530831 C 0 34.693719 1.726239 35.775077 5.1624756 35.775077 L 13.727327 35.775077 C 14.285507 35.775077 14.390336 35.443515 14.390336 34.833016 C 14.390336 34.205077 14.285417 33.890955 13.727327 33.890955 L 5.2327555 33.890955 C 3.1919576 33.890955 2.3021851 33.28088 2.3021851 32.530831 L 2.3021851 26.373067 C 2.3021851 25.605578 3.1919576 25.012427 5.2327555 25.012427 L 13.709241 25.012427 C 14.26742 25.012427 14.390336 24.698295 14.390336 24.070365 C 14.390336 23.442426 14.26746 23.128304 13.709241 23.128304 L 5.1624756 23.128304 z M 16.861503 25.849585 C 16.111464 25.849585 15.744775 26.006891 15.744775 26.66969 L 15.744775 32.74012 C 15.744775 34.780918 17.402198 35.775077 20.681425 35.775077 L 24.849646 35.775077 C 28.128883 35.775077 29.785779 34.780918 29.785779 32.74012 L 29.785779 26.66969 C 29.785779 26.006871 29.419737 25.849585 28.687138 25.849585 C 27.937109 25.849585 27.570927 26.006891 27.570927 26.66969 L 27.570927 32.74012 C 27.570927 33.45528 26.733461 34.013428 24.779883 34.013428 L 20.750671 34.013428 C 18.797103 34.013428 17.960144 33.45528 17.960144 32.74012 L 17.960144 26.66969 C 17.960144 26.006871 17.594082 25.849585 16.861503 25.849585 z M 36.021574 25.919348 C 33.108647 25.919348 31.504537 26.930817 31.504537 28.936735 L 31.504537 35.024736 C 31.504537 35.687555 31.870589 35.844324 32.603178 35.844324 C 33.353217 35.844324 33.719389 35.687515 33.719389 35.024736 L 33.719389 28.936735 C 33.719389 28.134366 34.294766 27.681514 36.021574 27.681514 L 37.382214 27.681514 C 37.905504 27.681514 38.0106 27.384816 38.0106 26.809216 C 38.0106 26.233607 37.905524 25.919348 37.382214 25.919348 L 36.021574 25.919348 z M 43.951322 25.919348 C 40.672096 25.919348 39.014673 26.914024 39.014673 28.954822 L 39.014673 32.739604 C 39.014673 34.762962 40.672096 35.774581 43.951322 35.774561 L 52.110514 35.774561 C 52.633804 35.774561 52.738383 35.460302 52.738383 34.884692 C 52.738383 34.309073 52.633824 34.012911 52.110514 34.012911 L 44.020569 34.012911 C 42.066971 34.012911 41.230042 33.437323 41.230042 32.739604 L 41.230042 31.849736 L 51.870736 31.849736 C 52.760325 31.849736 52.916667 31.640663 52.916667 30.960384 L 52.916667 28.954822 C 52.916667 26.914024 51.46909 25.919348 47.980534 25.919348 L 43.951322 25.919348 z M 44.020569 27.681514 L 47.910771 27.681514 C 49.864359 27.681514 50.701815 28.152453 50.701815 28.954822 L 50.701815 30.122709 L 41.230042 30.122709 L 41.230042 28.954822 C 41.230042 28.239672 42.066981 27.681514 44.020569 27.681514 z M 13.326318 37.750667 C 12.944749 37.750667 12.66331 37.914622 12.66331 38.178031 C 12.66331 38.241631 12.680753 38.314134 12.717053 38.386804 L 15.243514 43.992147 C 15.370714 44.282867 15.633345 44.410209 15.987655 44.410209 C 16.332864 44.410209 16.56977 44.283055 16.68787 44.019535 L 18.841227 39.350053 L 20.984249 44.019535 C 21.111449 44.292075 21.375482 44.410209 21.702551 44.410209 C 22.056851 44.410209 22.320029 44.273827 22.447209 43.992147 L 25.027413 38.386804 C 25.063913 38.314204 25.081673 38.241721 25.081673 38.178031 C 25.081673 37.914582 24.800224 37.750667 24.418665 37.750667 C 24.137035 37.750667 23.982627 37.841679 23.900867 38.023519 L 21.720638 43.010811 L 19.522323 38.204903 C 19.367813 37.859684 19.249659 37.750667 18.868099 37.750667 C 18.504719 37.750667 18.340715 37.850734 18.177185 38.204903 L 15.970085 43.010811 L 13.844116 38.023519 C 13.762416 37.841829 13.607958 37.750667 13.326318 37.750667 z M 27.952816 37.786841 C 26.163118 37.786861 25.263574 38.341071 25.263574 39.47666 L 25.263574 42.684216 C 25.263574 43.810725 26.163118 44.373519 27.952816 44.373519 L 32.331877 44.373519 C 32.622576 44.373519 32.68586 44.201089 32.68586 43.88311 C 32.68586 43.55606 32.622616 43.3927 32.331877 43.3927 L 27.988989 43.3927 C 26.92606 43.3927 26.462984 43.074866 26.462984 42.684216 L 26.462984 41.620715 L 32.358748 41.620715 C 32.649448 41.620715 32.713249 41.457426 32.713249 41.130306 C 32.713249 40.803256 32.649488 40.639897 32.358748 40.639897 L 26.462984 40.639897 L 26.462984 39.47666 C 26.462984 39.076941 26.92606 38.768693 27.988989 38.768693 L 32.340662 38.768693 C 32.622291 38.768693 32.68586 38.605403 32.68586 38.278284 C 32.68586 37.951234 32.622411 37.786841 32.340662 37.786841 L 27.952816 37.786841 z M 33.867183 37.786841 C 33.585544 37.786841 33.449121 37.923203 33.449121 38.204903 L 33.449121 43.946672 C 33.449121 44.228301 33.585494 44.373519 33.867183 44.373519 L 39.000203 44.373519 C 40.344762 44.373519 41.680143 44.046502 41.680143 42.493014 C 41.680143 41.684464 41.316539 41.311877 40.76237 41.102917 C 41.407369 40.784958 41.598494 40.313094 41.598494 39.677165 C 41.598494 38.160006 40.507571 37.786841 38.926823 37.786841 L 33.867183 37.786841 z M 34.684705 38.768693 L 39.054464 38.768693 C 40.199133 38.768693 40.435258 39.031944 40.435258 39.667863 C 40.435258 40.430992 40.099177 40.576335 39.008988 40.576335 L 34.684705 40.576335 L 34.684705 38.768693 z M 34.656799 41.566455 L 38.945426 41.566455 C 40.217275 41.566455 40.444043 41.829668 40.444043 42.529187 C 40.444043 43.137866 40.271142 43.3927 39.072034 43.3927 L 34.656799 43.3927 L 34.656799 41.566455 z M 11.954309 43.283146 C 11.44557 43.283146 11.236523 43.456226 11.236523 43.846936 C 11.236523 44.237576 11.44557 44.410209 11.954309 44.410209 C 12.463059 44.410209 12.671578 44.237646 12.671578 43.846936 C 12.671578 43.456296 12.463059 43.283146 11.954309 43.283146 z " />
  </g>
</svg>
