<?xml version="1.0" encoding="UTF-8" standalone="no"?>
<svg
   xmlns:dc="http://purl.org/dc/elements/1.1/"
   xmlns:cc="http://creativecommons.org/ns#"
   xmlns:rdf="http://www.w3.org/1999/02/22-rdf-syntax-ns#"
   xmlns:svg="http://www.w3.org/2000/svg"
   xmlns="http://www.w3.org/2000/svg"
   xmlns:sodipodi="http://sodipodi.sourceforge.net/DTD/sodipodi-0.dtd"
   xmlns:inkscape="http://www.inkscape.org/namespaces/inkscape"
   height="200"
   width="200"
   viewBox="0 0 200 200"
   id="svg2996"
   version="1.1"
   inkscape:version="0.92.5 (2060ec1f9f, 2020-04-08)"
   sodipodi:docname="logo-app-ritcs-insurance.svg">
  <metadata
     id="metadata3005">
    <rdf:RDF>
      <cc:Work
         rdf:about="">
        <dc:format>image/svg+xml</dc:format>
        <dc:type
           rdf:resource="http://purl.org/dc/dcmitype/StillImage" />
        <dc:title />
      </cc:Work>
    </rdf:RDF>
  </metadata>
  <defs
     id="defs3003" />
  <sodipodi:namedview
     pagecolor="#ffffff"
     bordercolor="#666666"
     borderopacity="1"
     objecttolerance="10"
     gridtolerance="10"
     guidetolerance="10"
     inkscape:pageopacity="0"
     inkscape:pageshadow="2"
     inkscape:window-width="1280"
     inkscape:window-height="971"
     id="namedview3001"
     showgrid="false"
     inkscape:zoom="1.244508"
     inkscape:cx="-143.55568"
     inkscape:cy="69.521748"
     inkscape:window-x="-8"
     inkscape:window-y="-8"
     inkscape:window-maximized="1"
     inkscape:current-layer="svg2996"
     showguides="false"
     inkscape:guide-bbox="true">
    <sodipodi:guide
       orientation="0,1"
       position="218.76116,70.698"
       id="guide4079"
       inkscape:locked="false" />
    <sodipodi:guide
       orientation="0,1"
       position="242.26443,188.82965"
       id="guide4081"
       inkscape:locked="false" />
    <sodipodi:guide
       orientation="0,1"
       position="172.54972,62.688"
       id="guide4091"
       inkscape:locked="false" />
    <sodipodi:guide
       orientation="0,1"
       position="181.74716,56.276"
       id="guide4107"
       inkscape:locked="false" />
  </sodipodi:namedview>
  <path
     style="display:inline;opacity:1;fill:#ffffff;stroke-width:6.19742489"
     d="m 102.06982,8.5e-6 c 0,0 -33.184514,33.7499735 -85.419894,33.7499735 0,0 -4.91592,66.250018 12.29098,104.375018 11.67591,26.24992 36.25769,48.7499 70.6718,61.87499 35.028594,-12.5 58.994504,-34.37488 71.285224,-60.62499 C 188.7195,101.25 183.18892,33.749981 183.18892,33.749981 131.56832,33.749981 102.06982,8.5e-6 102.06982,8.5e-6 Z M 99.999506,52.000002 c 12.000194,0 22.105404,8.21109 22.105404,23.36908 0,10.10513 -4.4205,20.20962 -10.73628,26.525408 -2.52612,6.94741 1.2627,8.84182 1.89449,8.84182 13.26308,4.42111 27.78909,12.63118 27.78909,20.84179 v 3.15821 c 0,10.73677 -21.47338,13.26369 -41.052704,13.26369 -19.57901,0 -41.05277,-2.52692 -41.05277,-13.26369 v -3.15821 c 0,-8.21061 14.52657,-16.42068 27.15817,-20.84179 0.6319,0 5.05391,-2.52601 2.52741,-8.84182 -6.3159,-6.315788 -10.73828,-16.420278 -10.73828,-26.525408 0,-15.15799 10.10558,-23.36908 22.10547,-23.36908 z"
     id="path1-13"
     inkscape:connector-curvature="0" />
</svg>
