<?xml version="1.0" encoding="UTF-8" standalone="no"?>
<svg
   xmlns:dc="http://purl.org/dc/elements/1.1/"
   xmlns:cc="http://creativecommons.org/ns#"
   xmlns:rdf="http://www.w3.org/1999/02/22-rdf-syntax-ns#"
   xmlns:svg="http://www.w3.org/2000/svg"
   xmlns="http://www.w3.org/2000/svg"
   xmlns:sodipodi="http://sodipodi.sourceforge.net/DTD/sodipodi-0.dtd"
   xmlns:inkscape="http://www.inkscape.org/namespaces/inkscape"
   height="200"
   width="200"
   viewBox="0 0 200 200"
   version="1.1"
   id="svg829"
   sodipodi:docname="logo-app-kcb-sequens.svg"
   inkscape:version="0.92.4 (5da689c313, 2019-01-14)">
  <metadata
     id="metadata835">
    <rdf:RDF>
      <cc:Work
         rdf:about="">
        <dc:format>image/svg+xml</dc:format>
        <dc:type
           rdf:resource="http://purl.org/dc/dcmitype/StillImage" />
        <dc:title></dc:title>
      </cc:Work>
    </rdf:RDF>
  </metadata>
  <defs
     id="defs833" />
  <sodipodi:namedview
     pagecolor="#ffffff"
     bordercolor="#666666"
     borderopacity="1"
     objecttolerance="10"
     gridtolerance="10"
     guidetolerance="10"
     inkscape:pageopacity="0"
     inkscape:pageshadow="2"
     inkscape:window-width="1280"
     inkscape:window-height="971"
     id="namedview831"
     showgrid="false"
     inkscape:snap-intersection-paths="true"
     inkscape:snap-smooth-nodes="true"
     inkscape:zoom="2.8284271"
     inkscape:cx="67.384696"
     inkscape:cy="94.869663"
     inkscape:window-x="-8"
     inkscape:window-y="-8"
     inkscape:window-maximized="1"
     inkscape:current-layer="svg829"
     showguides="true"
     inkscape:guide-bbox="true"
     inkscape:object-paths="true">
    <sodipodi:guide
       position="395.08566,89.559123"
       orientation="-1,4.2219349e-06"
       id="guide1714"
       inkscape:locked="false" />
  </sodipodi:namedview>
  <path
     style="display:inline;opacity:1;fill:#ffffff;fill-opacity:1;stroke:none;stroke-width:34.09743881;stroke-miterlimit:4;stroke-dasharray:none;stroke-opacity:1"
     d="m 72,8.000005 -48,48 h 48 z m 8,0 v 56 H 24 V 80 115.1953 192 H 96.1836 A 68,68 0 0 1 72,140 68,68 0 0 1 140,72.000005 68,68 0 0 1 176,82.4082 V 8.000005 H 116.5469 Z M 140,80 a 59.999999,59.999999 0 0 0 -60,60 59.999999,59.999999 0 0 0 60,60 59.999999,59.999999 0 0 0 60,-60 59.999999,59.999999 0 0 0 -60,-60 z m 0.084,16 c 33.2136,1.9375 32.7944,18.0725 24.8125,27.4531 5.8953,-11.3502 -10.2416,-14.127 -16.8125,-14.7793 V 118 c 34.436,7.8559 16.8125,27.4531 16.8125,27.4531 5.8953,-11.3502 -10.2416,-14.127 -16.8125,-14.7793 v 34.2032 c -0.011,6.5967 -4.8452,13.2653 -12.1152,16.7617 -9.6827,4.645 -20.4989,2.2241 -24.1583,-5.4063 -3.6594,-7.6296 1.2243,-17.5782 10.9063,-22.2226 5.8255,-2.7862 12.3234,-3.0963 17.3672,-0.8946 z"
     id="rect1081-5"
     inkscape:connector-curvature="0" />
</svg>
