<?xml version="1.0" encoding="UTF-8" standalone="no"?>
<!-- Generator: Adobe Illustrator 18.1.0, SVG Export Plug-In . SVG Version: 6.00 Build 0)  -->

<svg
   xmlns:dc="http://purl.org/dc/elements/1.1/"
   xmlns:cc="http://creativecommons.org/ns#"
   xmlns:rdf="http://www.w3.org/1999/02/22-rdf-syntax-ns#"
   xmlns:svg="http://www.w3.org/2000/svg"
   xmlns="http://www.w3.org/2000/svg"
   xmlns:sodipodi="http://sodipodi.sourceforge.net/DTD/sodipodi-0.dtd"
   xmlns:inkscape="http://www.inkscape.org/namespaces/inkscape"
   version="1.1"
   id="Layer_1"
   x="0px"
   y="0px"
   width="200"
   height="200"
   viewBox="0 0 200 200"
   xml:space="preserve"
   inkscape:version="0.92.4 (5da689c313, 2019-01-14)"
   sodipodi:docname="logo-app-ehb-sharepoint.svg"><metadata
   id="metadata3314"><rdf:RDF><cc:Work
       rdf:about=""><dc:format>image/svg+xml</dc:format><dc:type
         rdf:resource="http://purl.org/dc/dcmitype/StillImage" /><dc:title /></cc:Work></rdf:RDF></metadata><defs
   id="defs3312">
	
	
	
	
	
	
	
	
	
	
	
	
	
</defs><sodipodi:namedview
   pagecolor="#ffffff"
   bordercolor="#666666"
   borderopacity="1"
   objecttolerance="10"
   gridtolerance="10"
   guidetolerance="10"
   inkscape:pageopacity="0"
   inkscape:pageshadow="2"
   inkscape:window-width="1306"
   inkscape:window-height="759"
   id="namedview3310"
   showgrid="false"
   inkscape:zoom="1.4752568"
   inkscape:cx="-55.19069"
   inkscape:cy="143.12727"
   inkscape:window-x="2356"
   inkscape:window-y="147"
   inkscape:window-maximized="0"
   inkscape:current-layer="Layer_1"
   inkscape:object-paths="true"
   inkscape:snap-intersection-paths="true"
   inkscape:snap-smooth-nodes="true" />
<style
   type="text/css"
   id="style3280">
	.st0{fill:#0A73BB;}
</style>

<path
   style="display:inline;opacity:1;fill:#ffffff;stroke-width:8.33333397"
   d="M 91.51758,5e-7 C 69.52279,5e-7 49.39902,12.3735 39.4707,32 H 128 v 22.705101 c 6.57002,-2.7096 13.73169,-4.2595 21.23633,-4.3574 C 145.25183,21.5157 120.62359,0.0326005 91.51758,5e-7 Z M 0,40.002 v 120 h 120 v -120 z m 150,18.3261 c -7.63179,0.022 -15.15733,1.7902 -22,5.1699 v 53.8692 c 13.05498,8.9641 21.65872,23.9874 21.66602,40.9433 0.11131,0.01 0.22263,0.012 0.33398,0.018 27.61424,0 50,-22.3858 50,-50 0,-27.6142 -22.38576,-50 -50,-50 z m -84.72656,7.3555 c 5.1786,0.039 10.32582,0.8742 15.25781,2.4824 v 12.3457 c -2.44981,-1.4866 -5.1191,-2.5786 -7.9082,-3.2363 -3.02586,-0.7444 -6.13007,-1.1179 -9.2461,-1.1113 -3.28433,-0.118 -6.54896,0.5733 -9.5039,2.0117 -2.28034,0.9848 -3.75904,3.227 -3.76758,5.7109 -0.0151,1.5058 0.55675,2.9588 1.5957,4.0488 1.23281,1.2782 2.69087,2.3186 4.29883,3.072301 1.80484,0.895 4.49361,2.081899 8.06836,3.560599 0.3959,0.125401 0.7831,0.2809 1.15625,0.4628 3.52785,1.38 6.93186,3.0581 10.17383,5.0176 2.45503,1.5135 4.51424,3.5886 6.00976,6.0547 1.54084,2.7902 2.29243,5.9477 2.17383,9.1328 0.17462,3.9547 -1.03582,7.8473 -3.42187,11.0059 -2.38205,2.9046 -5.56627,5.0425 -9.15625,6.1484 -4.2172,1.3228 -8.61782,1.9631 -13.03711,1.8965 -3.95811,0.015 -7.91022,-0.3081 -11.8125,-0.9707 -3.30104,-0.5256 -6.52539,-1.4566 -9.59766,-2.7734 v -13.041 c 2.94134,2.0981 6.22807,3.6639 9.71094,4.625 3.45948,1.0787 7.05629,1.6539 10.67969,1.7089 3.35644,0.2136 6.70753,-0.4974 9.6875,-2.0566 2.07095,-1.1883 3.32227,-3.4159 3.25976,-5.8027 0.0113,-1.6645 -0.64624,-3.2655 -1.82617,-4.4395 -1.473,-1.4434 -3.17519,-2.6309 -5.03906,-3.5137 -2.14182,-1.0784 -5.31151,-2.4964 -9.50391,-4.2539 -3.32406,-1.3368 -6.50631,-3.0023 -9.5,-4.9707 -2.31148,-1.5309 -4.24076,-3.571699 -5.64062,-5.964799 -1.36181,-2.5006 -2.04028,-5.3157 -1.9668,-8.162101 -0.11906,-3.850599 1.1818,-7.610099 3.6543,-10.5645 2.59683,-2.9589 5.95462,-5.1494 9.70898,-6.334 4.28062,-1.4102 8.76478,-2.1048 13.27148,-2.0566 0.74059,-0.027 1.48091,-0.039 2.22071,-0.033 z M 128,127.5449 V 168 H 59.51953 c 4.47134,18.7431 21.21138,31.9774 40.48047,32 23.01135,-4e-4 41.66565,-18.6546 41.66602,-41.666 -0.0188,-11.7291 -4.9802,-22.907 -13.66602,-30.7891 z"
   id="circle7935"
   inkscape:connector-curvature="0" /></svg>