<?xml version="1.0" encoding="UTF-8" standalone="no"?>
<svg
   xmlns:dc="http://purl.org/dc/elements/1.1/"
   xmlns:cc="http://creativecommons.org/ns#"
   xmlns:rdf="http://www.w3.org/1999/02/22-rdf-syntax-ns#"
   xmlns:svg="http://www.w3.org/2000/svg"
   xmlns="http://www.w3.org/2000/svg"
   xmlns:sodipodi="http://sodipodi.sourceforge.net/DTD/sodipodi-0.dtd"
   xmlns:inkscape="http://www.inkscape.org/namespaces/inkscape"
   height="200"
   width="200"
   viewBox="0 0 200 200"
   id="svg2996"
   version="1.1"
   inkscape:version="0.92.5 (2060ec1f9f, 2020-04-08)"
   sodipodi:docname="logo-app-ritcs-soundlibrary.svg">
  <metadata
     id="metadata3005">
    <rdf:RDF>
      <cc:Work
         rdf:about="">
        <dc:format>image/svg+xml</dc:format>
        <dc:type
           rdf:resource="http://purl.org/dc/dcmitype/StillImage" />
        <dc:title />
      </cc:Work>
    </rdf:RDF>
  </metadata>
  <defs
     id="defs3003" />
  <sodipodi:namedview
     pagecolor="#ffffff"
     bordercolor="#666666"
     borderopacity="1"
     objecttolerance="10"
     gridtolerance="10"
     guidetolerance="10"
     inkscape:pageopacity="0"
     inkscape:pageshadow="2"
     inkscape:window-width="1280"
     inkscape:window-height="971"
     id="namedview3001"
     showgrid="false"
     inkscape:zoom="2.489016"
     inkscape:cx="89.812671"
     inkscape:cy="89.345516"
     inkscape:window-x="-8"
     inkscape:window-y="-8"
     inkscape:window-maximized="1"
     inkscape:current-layer="svg2996"
     showguides="false"
     inkscape:guide-bbox="true">
    <sodipodi:guide
       orientation="0,1"
       position="218.76116,70.698"
       id="guide4079"
       inkscape:locked="false" />
    <sodipodi:guide
       orientation="0,1"
       position="242.26443,188.82965"
       id="guide4081"
       inkscape:locked="false" />
    <sodipodi:guide
       orientation="0,1"
       position="172.54972,62.688"
       id="guide4091"
       inkscape:locked="false" />
    <sodipodi:guide
       orientation="0,1"
       position="181.74716,56.276"
       id="guide4107"
       inkscape:locked="false" />
  </sodipodi:namedview>
  <path
     inkscape:connector-curvature="0"
     style="display:inline;opacity:1;fill:#ffffff;fill-opacity:1;stroke:none;stroke-width:34.09743881;stroke-miterlimit:4;stroke-dasharray:none;stroke-opacity:1"
     d="m 72,7.999915 -48,48 h 48 z m 8,0 v 56 H 24 v 16 35.195295 76.8047 h 72.18359 c -15.33354,-12.9201 -24.18325,-31.9489 -24.18359,-52 0,-37.5554 30.44466,-67.999995 68.00001,-67.999995 12.73799,0.03 25.21172,3.6355 36,10.4082 v -74.4082 h -59.45312 z m 60.00001,72 C 106.86289,79.999915 80,106.86281 80,139.99991 c 0,33.1371 26.86289,60 60.00001,60 33.13708,0 60,-26.8629 60,-60 0,-33.1371 -26.86292,-59.999995 -60,-59.999995 z m 9.25781,19.794896 v 80.410199 l -28.95898,-24.293 H 99.000003 v -31.8242 h 21.310557 z m 27.25781,19.853499 c 3.56195,7.7823 5.2048,16.9381 4.1875,26.5782 -0.68927,6.4626 -2.53238,12.4905 -5.20507,17.8359 l -6.4336,-3.0176 c 2.33949,-4.6459 3.94668,-9.9074 4.54883,-15.5859 0.89688,-8.4409 -0.56288,-16.4743 -3.70703,-23.1778 z m -13.17578,5.2481 c 2.70603,5.6195 3.96086,12.5338 3.18946,19.8164 -0.51761,4.8713 -1.88995,9.3725 -3.88868,13.3086 l -6.4414,-3.0313 c 1.66307,-3.2288 2.81684,-6.9893 3.24219,-11.0254 0.64577,-6.0833 -0.46364,-11.8745 -2.75196,-16.4101 z"
     id="rect1081-19" />
</svg>
