<?xml version="1.0" encoding="UTF-8" standalone="no"?>
<svg
   xmlns:dc="http://purl.org/dc/elements/1.1/"
   xmlns:cc="http://creativecommons.org/ns#"
   xmlns:rdf="http://www.w3.org/1999/02/22-rdf-syntax-ns#"
   xmlns:svg="http://www.w3.org/2000/svg"
   xmlns="http://www.w3.org/2000/svg"
   xmlns:sodipodi="http://sodipodi.sourceforge.net/DTD/sodipodi-0.dtd"
   xmlns:inkscape="http://www.inkscape.org/namespaces/inkscape"
   height="200"
   width="200"
   viewBox="0 0 200 200"
   version="1.1"
   id="svg876"
   sodipodi:docname="logo-app-ehb-stuvo-resto.svg"
   inkscape:version="0.92.4 (5da689c313, 2019-01-14)">
  <metadata
     id="metadata882">
    <rdf:RDF>
      <cc:Work
         rdf:about="">
        <dc:format>image/svg+xml</dc:format>
        <dc:type
           rdf:resource="http://purl.org/dc/dcmitype/StillImage" />
        <dc:title></dc:title>
      </cc:Work>
    </rdf:RDF>
  </metadata>
  <defs
     id="defs880" />
  <sodipodi:namedview
     pagecolor="#ffffff"
     bordercolor="#666666"
     borderopacity="1"
     objecttolerance="10"
     gridtolerance="10"
     guidetolerance="10"
     inkscape:pageopacity="0"
     inkscape:pageshadow="2"
     inkscape:window-width="1278"
     inkscape:window-height="1018"
     id="namedview878"
     showgrid="false"
     inkscape:snap-intersection-paths="true"
     inkscape:object-paths="false"
     inkscape:snap-smooth-nodes="true"
     inkscape:zoom="2"
     inkscape:cx="63.01357"
     inkscape:cy="82.589639"
     inkscape:window-x="2553"
     inkscape:window-y="0"
     inkscape:window-maximized="1"
     inkscape:current-layer="svg876"
     showguides="true"
     inkscape:guide-bbox="true"
     inkscape:snap-global="false" />
  <path
     style="display:inline;opacity:1;fill:#ffffff;fill-opacity:1;stroke:none;stroke-width:23.27651024;stroke-miterlimit:4;stroke-dasharray:none;stroke-opacity:1"
     d="m 24.000017,-1.5e-6 -4.00003,56.0878865 c 0,19.156537 6.67953,27.937927 16.00003,30.798806 V 200 h 15.99999 V 86.886691 c 9.3205,-2.860879 15.99999,-11.642269 15.99999,-30.798806 L 64.000007,-1.5e-6 55.999987,56.087885 h -6 l -6,-56.0878865 -6,56.0878865 h -6 z m 83.999993,0 c 0,0 -24.000108,15.6233945 -23.999998,120.0000015 h 7.99998 v 80 H 108.00001 V 120 42.250014 Z m 43.99997,0 c -15.46397,0 -27.99999,27.7873135 -27.99999,52.0878995 0,19.930503 8.43549,31.317503 20.00002,34.771503 V 200 h 15.99998 V 86.859401 c 11.56449,-3.454 20.00002,-14.841 20.00002,-34.771503 0,-24.300586 -12.53602,-52.0878995 -28.00003,-52.0878995 z"
     id="rect1258"
     inkscape:connector-curvature="0" />
</svg>
