<?xml version="1.0" encoding="UTF-8" standalone="no"?>
<svg
   xmlns:dc="http://purl.org/dc/elements/1.1/"
   xmlns:cc="http://creativecommons.org/ns#"
   xmlns:rdf="http://www.w3.org/1999/02/22-rdf-syntax-ns#"
   xmlns:svg="http://www.w3.org/2000/svg"
   xmlns="http://www.w3.org/2000/svg"
   xmlns:sodipodi="http://sodipodi.sourceforge.net/DTD/sodipodi-0.dtd"
   xmlns:inkscape="http://www.inkscape.org/namespaces/inkscape"
   height="200"
   width="200"
   viewBox="0 0 200 200"
   version="1.1"
   id="svg5"
   sodipodi:docname="logo-app-ehb-survey.svg"
   inkscape:version="0.92.4 (5da689c313, 2019-01-14)">
  <metadata
     id="metadata11">
    <rdf:RDF>
      <cc:Work
         rdf:about="">
        <dc:format>image/svg+xml</dc:format>
        <dc:type
           rdf:resource="http://purl.org/dc/dcmitype/StillImage" />
      </cc:Work>
    </rdf:RDF>
  </metadata>
  <defs
     id="defs9" />
  <sodipodi:namedview
     pagecolor="#ffffff"
     bordercolor="#666666"
     borderopacity="1"
     objecttolerance="10"
     gridtolerance="10"
     guidetolerance="10"
     inkscape:pageopacity="0"
     inkscape:pageshadow="2"
     inkscape:window-width="640"
     inkscape:window-height="480"
     id="namedview7"
     showgrid="false"
     inkscape:zoom="1.18"
     inkscape:cx="-44.491525"
     inkscape:cy="100"
     inkscape:current-layer="svg5" />
  <path
     style="display:inline;opacity:1;fill:#ffffff;fill-opacity:1;stroke:none;stroke-width:22.24254227;stroke-miterlimit:4;stroke-dasharray:none;stroke-opacity:1"
     d="m 68,0 v 8 16 h 64 V 8 0 Z M 24,8 V 192 H 40 96.20117 C 90.78345,187.432 86.0922,182.0336 82.31836,176 H 40 V 24 H 60 V 8 Z m 116,0 v 16 h 20 v 50.9941 c 5.68974,1.7486 11.0546,4.2311 16,7.3243 V 8 Z M 48,32 v 16 h 16 88 V 32 H 64 Z m 0,24 v 16 h 16 88 V 56 H 64 Z m 0,24 v 16 h 16 8 16.17383 c 5.52241,-6.4982 12.23831,-11.9477 19.81836,-16 H 88.17383 72 64 Z m 92,0 c -33.13712,0 -60,26.8629 -60,60 0,33.1371 26.86288,60 60,60 33.13708,0 60,-26.8629 60,-60 0,-33.1371 -26.86292,-60 -60,-60 z m -92,24 v 16 h 26.99414 c 1.74855,-5.6897 4.23103,-11.0546 7.32422,-16 z m 115.33398,10.5449 11.31446,11.3125 -28.28516,28.2852 -11.3125,11.3125 -11.31445,-11.3125 -18.38477,-18.3848 11.31446,-11.3144 18.38476,18.3847 z M 48,128 v 16 H 72.12695 C 72.05005,142.6757 72,141.3436 72,140 c 0,-4.097 0.38182,-8.1026 1.07617,-12 z m 0,24 v 16 h 30.03516 c -2.27978,-5.0369 -3.96102,-10.3984 -4.95899,-16 z"
     id="rect5887"
     inkscape:connector-curvature="0" />
</svg>
