<?xml version="1.0" encoding="UTF-8" standalone="no"?>
<svg
   xmlns:dc="http://purl.org/dc/elements/1.1/"
   xmlns:cc="http://creativecommons.org/ns#"
   xmlns:rdf="http://www.w3.org/1999/02/22-rdf-syntax-ns#"
   xmlns:svg="http://www.w3.org/2000/svg"
   xmlns="http://www.w3.org/2000/svg"
   xmlns:sodipodi="http://sodipodi.sourceforge.net/DTD/sodipodi-0.dtd"
   xmlns:inkscape="http://www.inkscape.org/namespaces/inkscape"
   height="200"
   width="200"
   viewBox="0 0 200 200"
   version="1.1"
   id="svg5219"
   sodipodi:docname="logo-app-ehb-mobility-teacher.svg"
   inkscape:version="0.92.4 (5da689c313, 2019-01-14)">
  <metadata
     id="metadata5225">
    <rdf:RDF>
      <cc:Work
         rdf:about="">
        <dc:format>image/svg+xml</dc:format>
        <dc:type
           rdf:resource="http://purl.org/dc/dcmitype/StillImage" />
        <dc:title />
      </cc:Work>
    </rdf:RDF>
  </metadata>
  <defs
     id="defs5223" />
  <sodipodi:namedview
     pagecolor="#ffffff"
     bordercolor="#666666"
     borderopacity="1"
     objecttolerance="10"
     gridtolerance="10"
     guidetolerance="10"
     inkscape:pageopacity="0"
     inkscape:pageshadow="2"
     inkscape:window-width="1278"
     inkscape:window-height="1018"
     id="namedview5221"
     showgrid="false"
     showguides="false"
     inkscape:guide-bbox="true"
     inkscape:snap-intersection-paths="true"
     inkscape:snap-smooth-nodes="true"
     inkscape:zoom="2.8284271"
     inkscape:cx="45.282046"
     inkscape:cy="72.845161"
     inkscape:window-x="2553"
     inkscape:window-y="0"
     inkscape:window-maximized="0"
     inkscape:current-layer="svg5219"
     inkscape:snap-global="false">
    <sodipodi:guide
       position="38.6071,57.5419"
       orientation="0.54881858,0.83594149"
       id="guide5770"
       inkscape:locked="false"
       inkscape:label=""
       inkscape:color="rgb(0,0,255)" />
    <sodipodi:guide
       position="31.36133,46.506999"
       orientation="0.54881858,0.83594149"
       id="guide5772"
       inkscape:locked="false"
       inkscape:label=""
       inkscape:color="rgb(0,0,255)" />
    <sodipodi:guide
       position="37.51559,55.880444"
       orientation="0.83592778,-0.54883946"
       id="guide5774"
       inkscape:locked="false" />
    <sodipodi:guide
       position="132.53748,200.60662"
       orientation="0.54882129,0.83593971"
       id="guide5776"
       inkscape:locked="false"
       inkscape:label=""
       inkscape:color="rgb(0,0,255)" />
    <sodipodi:guide
       position="125.29217,189.57142"
       orientation="0.54881858,0.83594149"
       id="guide5778"
       inkscape:locked="false"
       inkscape:label=""
       inkscape:color="rgb(0,0,255)" />
    <sodipodi:guide
       position="143.92776,17.27469"
       orientation="0,1"
       id="guide5783"
       inkscape:locked="false" />
    <sodipodi:guide
       position="143.92776,-2e-05"
       orientation="0,1"
       id="guide5785"
       inkscape:locked="false" />
    <sodipodi:guide
       position="38.934317,8.63729"
       orientation="1,0"
       id="guide5787"
       inkscape:locked="false" />
    <sodipodi:guide
       position="152.56526,8.63729"
       orientation="1,0"
       id="guide5789"
       inkscape:locked="false" />
    <sodipodi:guide
       position="89.327953,20.37468"
       orientation="1,0"
       id="guide5793"
       inkscape:locked="false" />
    <sodipodi:guide
       position="102.14043,20.37468"
       orientation="1,0"
       id="guide5795"
       inkscape:locked="false" />
  </sodipodi:namedview>
  <path
     style="display:inline;opacity:1;fill:#ffffff;fill-opacity:1;stroke:none;stroke-width:42.07649612;stroke-miterlimit:4;stroke-dasharray:none;stroke-opacity:1"
     d="m 134.2148,0.024398 -2.5664,3.6661 -9.1621,13.0839 A 71.999995,71.999995 0 0 1 160,79.975598 71.999995,71.999995 0 0 1 87.999998,151.9756 71.999995,71.999995 0 0 1 40.441402,133.9483 l -2.5859,3.6933 -6.6211,9.4551 -2.5567,3.6523 13.1055,9.1778 2.5254,-3.6055 a 87.999995,87.999995 0 0 0 1.0547,0.5332 87.999996,87.999996 0 0 0 2.2871,1.1602 87.999995,87.999995 0 0 0 5.3769,2.6191 87.999996,87.999996 0 0 0 3.8575,1.4902 87.999995,87.999995 0 0 0 4.1425,1.5274 87.999996,87.999996 0 0 0 5.6485,1.5547 87.999995,87.999995 0 0 0 2.5644,0.664 87.999996,87.999996 0 0 0 7.3868,1.2598 87.999995,87.999995 0 0 0 1.1738,0.1797 87.999996,87.999996 0 0 0 2.1992,0.2461 v 16.4199 h -48 v 16 H 144 v -16 H 95.999998 v -16.373 a 87.999995,87.999995 0 0 0 0.2949,-0.041 87.999996,87.999996 0 0 0 5.265602,-0.748 87.999995,87.999995 0 0 0 3.461,-0.5215 87.999996,87.999996 0 0 0 5.0508,-1.2422 87.999995,87.999995 0 0 0 3.4824,-0.8886 87.999996,87.999996 0 0 0 4.8047,-1.7051 87.999995,87.999995 0 0 0 3.4883,-1.2735 87.999996,87.999996 0 0 0 4.4277,-2.0898 87.999995,87.999995 0 0 0 3.5273,-1.7051 87.999996,87.999996 0 0 0 4.045,-2.4277 87.999995,87.999995 0 0 0 3.4863,-2.1387 87.999996,87.999996 0 0 0 3.6953,-2.7558 87.999995,87.999995 0 0 0 3.3379,-2.5372 87.999996,87.999996 0 0 0 3.2969,-3.0156 87.999995,87.999995 0 0 0 3.1777,-2.9609 87.999996,87.999996 0 0 0 2.8867,-3.2266 87.999995,87.999995 0 0 0 3.0059,-3.4199 87.999996,87.999996 0 0 0 0.7441,-0.9902 87.999995,87.999995 0 0 0 2.6074,-3.4649 87.999995,87.999995 0 0 0 0.9317,-1.4863 87.999996,87.999996 0 0 0 2.3828,-3.7969 87.999995,87.999995 0 0 0 2.0957,-3.6543 87.999996,87.999996 0 0 0 2.1211,-4.2812 87.999995,87.999995 0 0 0 1.582,-3.5352 87.999996,87.999996 0 0 0 1.7988,-4.7773 87.999995,87.999995 0 0 0 1.127,-3.3965 87.999996,87.999996 0 0 0 1.3828,-5.1934 87.999995,87.999995 0 0 0 0.7266,-3.234298 87.999996,87.999996 0 0 0 0.8965,-5.5586 87.999995,87.999995 0 0 0 0.3691,-3.0332 87.999996,87.999996 0 0 0 0.5,-8.527404 87.999996,87.999996 0 0 0 -0.3691,-7.1387 87.999995,87.999995 0 0 0 -0.041,-0.7988 87.999996,87.999996 0 0 0 -1.0273,-7.3086 87.999995,87.999995 0 0 0 -0.2266,-1.4765 87.999996,87.999996 0 0 0 -1.5957,-6.5215 87.999995,87.999995 0 0 0 -0.5371,-2.0879 87.999996,87.999996 0 0 0 -2.0136,-5.6914 87.999995,87.999995 0 0 0 -0.9766,-2.6621 87.999996,87.999996 0 0 0 -2.25,-4.7832 87.999995,87.999995 0 0 0 -1.5703,-3.2403 87.999996,87.999996 0 0 0 -2.3164,-3.8633 87.999995,87.999995 0 0 0 -2.291,-3.7265 87.999996,87.999996 0 0 0 -2.254,-3.0254 87.999995,87.999995 0 0 0 -3.0957,-4.0606 87.999996,87.999996 0 0 0 -1.996,-2.1855 87.999995,87.999995 0 0 0 -4.125,-4.416 87.999996,87.999996 0 0 0 -0.4707,-0.4297 87.999995,87.999995 0 0 0 -4.0665,-3.7227 l 2.545,-3.6347 z m -46.214802,15.9512 a 63.999995,63.999995 0 0 0 -63.999996,64 A 63.999995,63.999995 0 0 0 87.999998,143.9756 63.999995,63.999995 0 0 0 152,79.975598 a 63.999995,63.999995 0 0 0 -64.000002,-64 z"
     id="circle6111"
     inkscape:connector-curvature="0" />
</svg>
