<?xml version="1.0" encoding="UTF-8" standalone="no"?>
<svg
   xmlns:dc="http://purl.org/dc/elements/1.1/"
   xmlns:cc="http://creativecommons.org/ns#"
   xmlns:rdf="http://www.w3.org/1999/02/22-rdf-syntax-ns#"
   xmlns:svg="http://www.w3.org/2000/svg"
   xmlns="http://www.w3.org/2000/svg"
   xmlns:sodipodi="http://sodipodi.sourceforge.net/DTD/sodipodi-0.dtd"
   xmlns:inkscape="http://www.inkscape.org/namespaces/inkscape"
   height="200"
   width="200"
   viewBox="0 0 200 200"
   version="1.1"
   id="svg3816"
   sodipodi:docname="logo-app-ehb-personal-timetable.svg"
   inkscape:version="0.92.4 (5da689c313, 2019-01-14)">
  <metadata
     id="metadata3822">
    <rdf:RDF>
      <cc:Work
         rdf:about="">
        <dc:format>image/svg+xml</dc:format>
        <dc:type
           rdf:resource="http://purl.org/dc/dcmitype/StillImage" />
        <dc:title />
      </cc:Work>
    </rdf:RDF>
  </metadata>
  <defs
     id="defs3820" />
  <sodipodi:namedview
     pagecolor="#ffffff"
     bordercolor="#666666"
     borderopacity="1"
     objecttolerance="10"
     gridtolerance="10"
     guidetolerance="10"
     inkscape:pageopacity="0"
     inkscape:pageshadow="2"
     inkscape:window-width="1278"
     inkscape:window-height="1018"
     id="namedview3818"
     showgrid="false"
     inkscape:zoom="2.36"
     inkscape:cx="3.7048673"
     inkscape:cy="59.979325"
     inkscape:window-x="2553"
     inkscape:window-y="0"
     inkscape:window-maximized="0"
     inkscape:current-layer="svg3816"
     inkscape:snap-intersection-paths="true"
     inkscape:snap-smooth-nodes="true" />
  <path
     inkscape:connector-curvature="0"
     style="display:inline;opacity:1;fill:#ffffff;fill-opacity:1;stroke:none;stroke-width:42.00426865;stroke-miterlimit:4;stroke-dasharray:none;stroke-opacity:1"
     d="M 55.99999,0 V 8.0000123 23.999999 H 72.00002 V 8.0000123 0 Z m 24,0 V 8.0000123 23.999999 H 96.00002 V 8.0000123 0 Z m 24,0 V 8.0000123 23.999999 h 16.00003 V 8.0000123 0 Z m 24,0 V 8.0000123 23.999999 h 16.00003 V 8.0000123 0 Z M 24.00001,8.0000123 V 192 H 175.99999 V 8.0000123 h -24 V 23.999999 32.000012 H 48.00002 V 23.999999 8.0000123 Z M 40,56.000012 H 160.00001 V 176.00001 H 40 Z m 60.00001,8.000013 A 31.999998,31.999998 0 0 0 67.99999,96 31.999998,31.999998 0 0 0 100.00001,128.00001 31.999998,31.999998 0 0 0 132.00002,96 31.999998,31.999998 0 0 0 100.00001,64.000025 Z M 72.08986,124.59772 c -9.46904,4.60271 -17.79357,11.52998 -24.08984,20.33779 V 168 h 103.99997 v -23.01759 c -6.28747,-8.8123 -14.60341,-15.74619 -24.0664,-20.3574 a 39.999999,39.999999 0 0 1 -27.93358,11.37502 39.999999,39.999999 0 0 1 -27.91015,-11.40231 z"
     id="path1703" />
</svg>
