<?xml version="1.0" encoding="UTF-8" standalone="no"?>
<!-- Created with Inkscape (http://www.inkscape.org/) -->

<svg
   width="200"
   height="200"
   viewBox="0 0 52.916665 52.916668"
   version="1.1"
   id="svg5719"
   inkscape:version="1.2 (dc2aedaf03, 2022-05-15)"
   sodipodi:docname="logo-app-ehb-wooclap.svg"
   xml:space="preserve"
   xmlns:inkscape="http://www.inkscape.org/namespaces/inkscape"
   xmlns:sodipodi="http://sodipodi.sourceforge.net/DTD/sodipodi-0.dtd"
   xmlns="http://www.w3.org/2000/svg"
   xmlns:svg="http://www.w3.org/2000/svg"
   xmlns:rdf="http://www.w3.org/1999/02/22-rdf-syntax-ns#"
   xmlns:cc="http://creativecommons.org/ns#"
   xmlns:dc="http://purl.org/dc/elements/1.1/"><defs
     id="defs5713" /><sodipodi:namedview
     id="base"
     pagecolor="#ffffff"
     bordercolor="#666666"
     borderopacity="1.0"
     inkscape:pageopacity="0.0"
     inkscape:pageshadow="2"
     inkscape:zoom="2.8"
     inkscape:cx="54.464286"
     inkscape:cy="94.107143"
     inkscape:document-units="mm"
     inkscape:current-layer="layer1"
     showgrid="false"
     units="px"
     inkscape:window-width="2560"
     inkscape:window-height="1017"
     inkscape:window-x="1272"
     inkscape:window-y="-8"
     inkscape:window-maximized="1"
     inkscape:showpageshadow="2"
     inkscape:pagecheckerboard="0"
     inkscape:deskcolor="#d1d1d1" /><metadata
     id="metadata5716"><rdf:RDF><cc:Work
         rdf:about=""><dc:format>image/svg+xml</dc:format><dc:type
           rdf:resource="http://purl.org/dc/dcmitype/StillImage" /><dc:title /></cc:Work></rdf:RDF></metadata><g
     inkscape:label="Layer 1"
     inkscape:groupmode="layer"
     id="layer1"
     transform="translate(0,-244.08332)"><path
       id="path1118-4-8"
       style="display:inline;opacity:1;fill:#ffffff;fill-opacity:1;stroke:none;stroke-width:2.11667;stroke-miterlimit:4;stroke-dasharray:none"
       d="M 26.458333 244.08332 C 11.845808 244.08332 5.0132687e-15 255.92913 0 270.54165 C 0 285.15418 11.845808 296.99999 26.458333 296.99999 C 41.070859 296.99999 52.916667 285.15418 52.916667 270.54165 C 52.916667 255.92913 41.070859 244.08332 26.458333 244.08332 z M 11.863875 259.56144 C 12.552775 259.56144 13.177419 259.74173 13.737146 260.1025 C 14.296874 260.46327 14.719795 261.01917 15.006836 261.76958 L 19.097542 271.77 L 23.274032 261.81247 C 23.561072 261.09092 24.005534 260.54281 24.608317 260.16761 C 25.211103 259.7924 25.857288 259.60485 26.546183 259.60485 C 27.235082 259.60485 27.880746 259.7924 28.483533 260.16761 C 29.086317 260.54281 29.531295 261.09092 29.818335 261.81247 L 34.124015 271.81341 L 38.127905 261.72617 C 38.414945 261.00461 38.824194 260.46327 39.355221 260.1025 C 39.886245 259.74173 40.467296 259.56144 41.098783 259.56144 C 42.046018 259.56144 42.892893 259.88616 43.639197 260.53555 C 44.385503 261.18495 44.758508 261.97151 44.758508 262.89509 C 44.758508 263.32802 44.643981 263.80391 44.414343 264.32343 L 37.439058 279.34628 C 37.123314 280.06783 36.64261 280.62322 35.996769 281.01285 C 35.350928 281.40248 34.640644 281.59731 33.865633 281.59731 C 33.090623 281.59731 32.387173 281.40248 31.755684 281.01285 C 31.124195 280.62322 30.650845 280.06783 30.335099 279.34628 L 26.244393 270.21144 L 22.412585 279.34628 C 22.125546 280.06783 21.659031 280.62322 21.013188 281.01285 C 20.367346 281.40248 19.657061 281.59731 18.882052 281.59731 C 18.107042 281.59731 17.396756 281.40248 16.750916 281.01285 C 16.105075 280.62322 15.609666 280.06783 15.265218 279.34628 L 8.3333415 264.32343 C 8.1324146 263.89049 8.0320679 263.42915 8.0320679 262.9385 C 8.0320679 261.98605 8.4266124 261.18495 9.2159749 260.53555 C 10.005336 259.88616 10.887938 259.56144 11.863875 259.56144 z " /></g></svg>
