<?xml version="1.0" encoding="UTF-8" standalone="no"?>
<!-- Created with Inkscape (http://www.inkscape.org/) -->

<svg
   xmlns:dc="http://purl.org/dc/elements/1.1/"
   xmlns:cc="http://creativecommons.org/ns#"
   xmlns:rdf="http://www.w3.org/1999/02/22-rdf-syntax-ns#"
   xmlns:svg="http://www.w3.org/2000/svg"
   xmlns="http://www.w3.org/2000/svg"
   xmlns:sodipodi="http://sodipodi.sourceforge.net/DTD/sodipodi-0.dtd"
   xmlns:inkscape="http://www.inkscape.org/namespaces/inkscape"
   width="200"
   height="200"
   viewBox="0 0 52.916665 52.916668"
   version="1.1"
   id="svg1127"
   inkscape:version="0.92.4 (5da689c313, 2019-01-14)"
   sodipodi:docname="logo-app-ehb-youtube.svg">
  <defs
     id="defs1121" />
  <sodipodi:namedview
     id="base"
     pagecolor="#ffffff"
     bordercolor="#666666"
     borderopacity="1.0"
     inkscape:pageopacity="0.0"
     inkscape:pageshadow="2"
     inkscape:zoom="1.979899"
     inkscape:cx="138.36411"
     inkscape:cy="154.22624"
     inkscape:document-units="px"
     inkscape:current-layer="layer1"
     showgrid="false"
     units="px" />
  <metadata
     id="metadata1124">
    <rdf:RDF>
      <cc:Work
         rdf:about="">
        <dc:format>image/svg+xml</dc:format>
        <dc:type
           rdf:resource="http://purl.org/dc/dcmitype/StillImage" />
        <dc:title></dc:title>
      </cc:Work>
    </rdf:RDF>
  </metadata>
  <g
     inkscape:label="Layer 1"
     inkscape:groupmode="layer"
     id="layer1"
     transform="translate(0,-244.08332)">
    <path
       inkscape:connector-curvature="0"
       style="display:inline;opacity:1;fill:#ffffff;stroke-width:0.84183729"
       d="m 26.458333,252.02082 c 0,0 -16.5418818,-5e-5 -20.6752291,1.10278 -2.2729031,0.60614 -4.0657991,2.3994 -4.6803204,4.68085 C 2.4999998e-7,261.92955 2.4999998e-7,270.54165 2.4999998e-7,270.54165 c 0,0 0,8.61211 1.10278325000002,12.7372 0.6061075,2.27301 2.3990036,4.06628 4.6803204,4.68085 4.1333473,1.10284 20.6752291,1.10279 20.6752291,1.10279 0,0 16.550296,5e-5 20.67523,-1.10279 2.272876,-0.60613 4.065799,-2.3994 4.68032,-4.68085 1.102783,-4.12509 1.102783,-12.7372 1.102783,-12.7372 0,0 0,-8.6121 -1.102783,-12.7372 -0.606107,-2.27301 -2.399003,-4.06627 -4.68032,-4.68085 -4.124934,-1.10283 -20.67523,-1.10278 -20.67523,-1.10278 z m -5.821362,10.05417 14.816666,8.46666 -14.816666,8.46667 z"
       id="path1872" />
  </g>
</svg>
